<svg xmlns="http://www.w3.org/2000/svg" xmlns:xlink="http://www.w3.org/1999/xlink" width="512" height="512" viewBox="0 0 512 512">
  <defs>
    <clipPath id="clip-illustration2">
      <rect width="512" height="512"/>
    </clipPath>
  </defs>
  <g id="illustration2" clip-path="url(#clip-illustration2)">
    <g id="Group_443-vectormaker-co" data-name="Group 443-vectormaker-co" transform="translate(-14 0.466)">
      <path id="Path_13" data-name="Path 13" d="M214.713,13.621c-2.187,2.186-.471,3.379,4.86,3.379,4.768,0,5.526-.253,5.241-1.75-.345-1.82-8.582-3.149-10.1-1.629M161.45,19.984C133.04,28.175,101.662,52.152,83.564,79.5c-7.116,10.752-12.606,21.814-11.619,23.411.868,1.4,3.391-1.643,6.55-7.911,15.752-31.249,47.33-57.972,84.441-71.46,17.214-6.257,16.21-8.659-1.486-3.556M159,40.866c-11.543,3.788-23.449,11.024-21.467,13.046.721.736,3.442-.213,9-3.14a92.872,92.872,0,0,1,15.967-6.33c5.188-1.384,8-2.627,8-3.538,0-2.092-5.188-2.109-11.5-.038m44.161,5.66c-20.586,5.606-20.438,5.335-17.256,31.554,1.253,10.322,2,19.634,1.667,20.693-.588,1.854-16.068,14.275-21.31,17.1-2.355,1.269-3.9.836-20.435-5.75-24.934-9.929-25.234-9.868-34.868,7.107-11.726,20.661-11.852,20.154,9.02,36.015,8.514,6.469,15.838,12.733,16.277,13.919.689,1.861.289,6.5-1.85,21.449-.633,4.425-2.081,5.351-19.406,12.417-24.808,10.117-25.046,10.475-19.958,30.022,5.758,22.116,5.822,22.155,31.531,18.992,21.537-2.649,22.314-2.54,26.566,3.714,1.773,2.608,5.242,7.128,7.709,10.045,5.862,6.93,5.814,7.5-2.315,27.9-9.41,23.6-9.319,23.892,10.995,35.176,16.888,9.38,17.821,9.05,33.442-11.835,12.5-16.711,12.674-16.83,22.348-15.145A75.346,75.346,0,0,0,235.276,301c5.633,0,7.817,2.958,14.767,20,10.2,25.008,10.338,25.1,30.837,19.644,21.672-5.765,21.419-5.325,18.215-31.724-2.618-21.563-2.626-21.505,3.673-25.935,2.6-1.831,7.054-5.276,9.891-7.657,6.841-5.738,8.083-5.641,27.569,2.172,23.6,9.463,24.347,9.285,34.308-8.236C385.687,249.65,385.5,248.954,365,233.5c-19.084-14.386-17.809-11.281-14.41-35.09,1.225-8.587,18.487-14.655,31.065-10.92,14.15,4.2,22.055,17.787,26.775,46.01,1.938,11.593,4.165,20.736,6.089,25,.817,1.812,1.483,7.75,1.682,15,.375,13.692,2.174,18.42,8.725,22.936,4.14,2.853,12.378,4.941,16.043,4.067,2.447-.583-8.7,7.5-11.969,8.682-.825.3-4.875-1.1-9-3.109-8.5-4.138-8.762-4.707-8.931-19.576-.171-15-2.039-16.915-17.582-18.009-13.511-.951-14.249-.3-17.384,15.438-3.23,16.212-2.747,15.455-11.792,18.468-10.706,3.565-10.64,3.582-21.006-5.42-14.016-12.172-15.466-12.207-27.555-.671-8.94,8.53-8.916,9.166.911,24.148l7.661,11.68-3.385,7c-4.459,9.217-3.862,8.908-19.141,9.912-17.271,1.134-18.149,1.872-19.2,16.154-1.1,14.915-.67,15.374,17.884,19.321,14.011,2.98,12.848,2.165,15.907,11.158l2.415,7.1-7.849,3.684c-12.509,5.869-19.045,5.22-30.623-3.042-16.2-11.557-28.233-22.474-38.313-34.748-11.226-13.671-15.282-16.783-19.417-14.9-3.709,1.69-4.248-.237-1.189-4.247,2.624-3.44,3.407-7.9,1.586-9.024-1.673-1.034-1.2-1.963,4.1-8.017,9.775-11.171,12.364-17.208,8.568-19.984-1.442-1.054-1.442-1.3.005-2.743,3.969-3.97-1.159-9.107-6.391-6.4a9.861,9.861,0,0,1-5.388.966c-1.986-.38-3.459.365-6.482,3.278-2.152,2.073-4.741,3.915-5.754,4.093-2.948.519-5.454,2.672-11.154,9.583a84.323,84.323,0,0,1-9.549,9.852c-13.873,11.129-17.25,16.157-17.313,25.772-.049,7.376,2.726,12.619,11.431,21.6,5.5,5.678,6.6,7.33,5.813,8.737-1.338,2.391.156,4.949,7.5,12.829,3.365,3.612,9.472,10.316,13.57,14.9,16.619,18.578,43.5,36.031,65.58,42.574,22.968,6.808,47.479,1.19,65.851-15.092l5.883-5.214,5.807,2.881c7.361,3.652,6.922,2.665,8.008,17.987,1.312,18.5,1.289,18.471,17.066,19.491,14.333.927,14.878.435,18.425-16.593,3.11-14.927,2.574-14.171,12.334-17.408,10.3-3.418,9.2-3.737,20.416,5.934,14,12.075,14.468,12.1,26.212,1.161,10.155-9.457,10.17-10.011.633-24.435-8.254-12.483-8.146-11.935-4.063-20.66,3.631-7.76,4.817-8.575,12.58-8.643,16.228-.144,22.237-2.014,22.855-7.113.156-1.285.77-5.261,1.364-8.836,2.41-14.485,1.727-15.3-15.994-19.168-15.631-3.407-14.06-2.309-17.321-12.1-3.464-10.4-3.651-9.69,5.26-20.079,12.676-14.779,12.707-15.29,1.626-27.148-4.111-4.4-7.474-8.056-7.474-8.128,0-.485,6.806-2.624,14-4.4,8.6-2.123,16-5.947,16-8.268,0-.7,1.913-1.928,4.25-2.736,2.921-1.01,4.719-2.407,5.751-4.47a24.232,24.232,0,0,1,3.75-5.25c3.655-3.655,1.873-8.249-3.2-8.249a5.2,5.2,0,0,1-3.78-2.218c-1.937-2.917-6.941-2.739-18.784.668-11.684,3.362-13.47,2.9-10.866-2.817.847-1.858.651-3.159-.945-6.289-1.108-2.17-2.987-9.323-4.177-15.9-12.807-70.727-28.22-93.747-67-100.069-10.692-1.743-14.278-1.518-36.672,2.294-18.979,3.23-18.431,3.388-26.892-7.741-11.03-14.508-10.8-11.377-2.424-32.463,9.96-25.085,10.005-24.924-10.147-36.224-17.549-9.841-17.925-9.718-33.542,10.993C270.847,86.458,268.565,88.5,264.139,87.53c-1.619-.355-6.635-1.018-11.148-1.473C242.6,85.009,242.676,85.1,235,66.521c-8.064-19.518-8.318-19.968-12.36-21.886-4.463-2.118-4.924-2.073-19.482,1.891m29.518,66.57c-65.752,7.256-95.047,90.708-48.265,137.49,22.641,22.641,45.933,26.65,83.086,14.3,26.507-8.809,45.793-29.166,52.508-55.421,2.3-8.977,2.676-24.918.727-30.513-1.09-3.128-1.235-1.892-1.235,10.5,0,43.972-30.662,73.74-81.852,79.467-19.24,2.153-37.374-5.348-52.946-21.9-20.679-21.982-26.025-53.733-14.021-83.274A76.973,76.973,0,0,1,284.587,128.6c12.64,8.39,26.1,24.161,30.555,35.818,1.183,3.091,2.359,5.412,2.614,5.158.765-.765-4.615-13.964-7.629-18.716-16.737-26.392-46.962-41.131-77.448-37.766M53.75,247.516c-3.734,2.545-4.72,4.767-2.676,6.03.591.365,2.053-.232,3.25-1.326a14.224,14.224,0,0,1,4.483-2.691c1.421-.431,2.185-1.334,1.988-2.353-.495-2.57-2.949-2.452-7.045.34M449.824,258.51c-.281.28-6.768,1-14.417,1.6-8.126.639-14.237,1.57-14.7,2.24-1.717,2.481-.306,21.944,1.859,25.646,5.247,8.973,16.208,10.457,29.558,4,4.549-2.2,8.858-4,9.574-4,1.4,0,1.763-5.45.706-10.733l-.6-2.983-2.654,2.476q-3.342,3.136-6.653,6.3c-4.05,3.877-10.723,7.378-11.873,6.229-1.323-1.324-.533-3.1,1.623-3.653,3.286-.841,17.5-14.782,18.29-17.943,1.522-6.064-1.04-6.98-10.071-3.6-8.22,3.075-8.6.141-.54-4.122,1.964-1.038,2.859-1.907,1.988-1.932a3.567,3.567,0,0,0-2.093.466M83.259,260.25c-.542.688-1.774,4.524-2.736,8.526-1.9,7.9-2.72,8.752-9.42,9.823-4.006.641-4.347.473-10.051-4.968-7.046-6.72-6.5-6.655-12.921-1.546C41.962,277,41.942,277.236,47,285.5c4.755,7.769,4.7,7.236,1.259,13.408-3.015,5.4-4.644,6.059-15.034,6.081C27.091,305,26,306.514,26,315.006c0,5.7.2,5.874,9.459,7.949,6.441,1.444,7.182,1.875,8.7,5.062,3.459,7.28,3.411,7.538-2.587,13.826-6.413,6.724-6.721,8.429-2.484,13.769,4.737,5.971,5.225,6.026,12.9,1.469,8.081-4.8,8.413-4.838,14.283-1.557,5.066,2.831,5.7,4.289,5.722,13.1.017,7.263.642,7.948,8.1,8.87,7.1.878,7.945.069,10.278-9.826l1.8-7.62,5.336-1.682,5.336-1.682,6.335,5.652c7.566,6.75,8.232,6.823,14.194,1.575,5.613-4.94,5.609-4.86.631-12.7-4.659-7.344-4.728-8.236-1.1-14.21l2.732-4.5,8.144-.5c9.687-.6,10.044-.877,10.848-8.572.764-7.31.4-7.688-9.638-10.121l-7.458-1.807-1.883-5.247-1.883-5.248,5.625-6.406c6.629-7.551,6.747-8.391,2-14.181-4.45-5.43-5.067-5.441-13.688-.232l-6.929,4.187-5.132-2.857c-6.58-3.664-6.6-3.7-6.616-12.209-.013-6.291-.294-7.389-2.238-8.75-2.7-1.89-12.1-2.1-13.518-.307m391.241,3.7c-8.714,2.74-8.993,2.921-8.769,5.69.127,1.574.352,6.089.5,10.035l.269,7.174,3-.527c5.312-.933,10.714-2.441,10.285-2.87-.23-.229-1.96.026-3.845.566-4.791,1.374-6.137,1.231-5.763-.611.208-1.028,3.834-2.784,10.209-4.945,12.564-4.259,12.984-4.425,12.487-4.921-.227-.227-5.1,1.141-10.827,3.04-6.414,2.127-10.77,3.1-11.342,2.524-1.537-1.537.038-2.859,5.558-4.664,12.744-4.168,21.738-7.7,21.738-8.535,0-1.68-3.122-.921-10.328,2.51-8.505,4.049-14.422,5.8-15.223,4.5-.932-1.507.363-2.7,4.315-3.981,4.914-1.591,12.929-5.63,13.724-6.917,1.181-1.911-6.86-.94-15.988,1.93M455,263.8c0,1.246,2.259,3.2,3.7,3.2.715,0,1.3-.9,1.3-2,0-1.467-.667-2-2.5-2-1.375,0-2.5.36-2.5.8m49.267,11.229c-3.133,1.255-1.885,4.18,1.611,3.775,1.812-.21,2.622-.9,2.622-2.221,0-2.3-1.235-2.756-4.233-1.554M75.624,286.576c-19.133,6.112-29.221,27.55-20.194,42.909,4.233,7.2,11.273,14.33,17.05,17.263,8.879,4.507,23.025,4.152,29.511-.741,3.894-2.937,1.59-3.5-4.17-1.025-17.755,7.638-42.225-8.251-42.182-27.39.067-30.015,42.148-39.912,55.843-13.134,5.461,10.677,3.314,26.743-4.714,35.289-2.958,3.149-.865,2.825,2.618-.4,8.385-7.775,11.3-23.794,6.313-34.688-6.887-15.043-24.584-23.026-40.075-18.078m411.807,6.536c-.766,1.24,1.249,2.849,3.6,2.873a8.671,8.671,0,0,1,3.752,1.573c2.388,1.673,4.221,1.2,4.221-1.091,0-3.07-9.96-5.959-11.569-3.355M474.3,300.75c.993,4.946,2.622,8.25,4.066,8.25,2.3,0,2.445-2.219.439-6.75-2.184-4.93-5.409-6-4.505-1.5M223.419,314.691c-3.806,4.23-8.032,8.955-9.392,10.5S210.98,328,210.277,328c-2.513,0-1.2-3.17,3.434-8.293,11.052-12.215,10.886-12.008,8.7-10.882-1.151.592-5.2,4.7-8.992,9.129-6.579,7.678-9.083,9.3-8.777,5.688.192-2.271-.189-2.082-2.58,1.275l-2.077,2.916,4.917,1.633a24.919,24.919,0,0,1,7.56,4.084c3.784,3.506,5.065,3.13,10.865-3.193,13.709-14.945,13.6-20.732-.144-7.452-6.435,6.218-8.18,7.211-8.18,4.652,0-1.826,9.983-12.675,13.293-14.446,2.947-1.577,5.436-6.111,3.354-6.111-.72,0-4.423,3.461-8.228,7.691m-142.335-1.07c-3.518,4.472-.929,10.7,4.232,10.18,3.732-.376,7.188-4.638,6.224-7.675-1.749-5.511-7.086-6.79-10.456-2.505m124.788,6.129c-1.243,1.586-1.208,1.621.378.378,1.666-1.307,2.2-2.128,1.372-2.128a6.312,6.312,0,0,0-1.75,1.75m-56.426,9.337a1.429,1.429,0,0,0,.191,1.8c9.734,8.042,12.363,9.241,12.363,5.639,0-1.428-9.012-8.526-10.825-8.526a2.358,2.358,0,0,0-1.729,1.087m45.01,4.406c-1.675,1.654-5.213,4.76-7.864,6.9-12.512,10.111-11.6,22.58,2.653,36.439l5.487,5.333,9.548-9.839c12.958-13.354,14.056-14.8,12.3-16.261a5.021,5.021,0,0,0-3.876-.529c-4.145,1.04-4.025-1.3.21-4.1a23.624,23.624,0,0,0,5.614-5.123c3.878-5.918-5.815-8.314-13.909-3.438a38.374,38.374,0,0,1-6.749,3.039,14.63,14.63,0,0,0-5.4,3.122c-1.794,1.982-5.466,2.708-5.466,1.081,0-1.223,6.141-7.115,7.44-7.137a60.847,60.847,0,0,0,8.545-3.453l7.485-3.434L205.485,334c-2.742-1.151-5.66-2.413-6.485-2.8-.976-.462-2.564.34-4.544,2.3M214,343.378c0,2.523,2.58,3.833,4.053,2.058,1.1-1.322,1.078-1.741-.117-2.5-2.112-1.336-3.936-1.133-3.936.439m-68.843,6.2c.6,3.1,12.843,4.983,12.843,1.98,0-1.98-.652-2.254-7.348-3.087-5.338-.664-5.817-.567-5.495,1.107m13.093,16.166c-1.882.937-3.25,2.383-3.25,3.436,0,2.189.733,2.247,5.128.407s5.089-2.622,3.741-4.246-1.55-1.621-5.619.4M48.537,380.939c-1.59,2.575,10.335,10.011,20.156,12.569,9.328,2.43,21.807,1.541,21.807-1.553,0-1.159-1.833-1.474-9-1.548-12.045-.124-21.089-2.846-28.385-8.544-2.671-2.087-3.727-2.3-4.578-.924M510,397c0,4.128,2.149,5.66,3.393,2.418C514.709,395.99,514.06,393,512,393c-1.667,0-2,.667-2,4m-4.536,21.75c-6.025,36.07-27.06,62.433-58.881,73.794-13.541,4.835-11.97,7.953,1.7,3.371,27.87-9.342,48.8-31.475,57.211-60.489,2.5-8.621,3.4-20.426,1.552-20.426-.525,0-1.236,1.688-1.581,3.75" fill="#a4a1a1" stroke="#a4a1a1" stroke-width="1" fill-rule="evenodd"/>
      <path id="Path_14" data-name="Path 14" d="M216.25,13.684c-4.82.975-2.475,3.316,3.323,3.316,4.768,0,5.526-.253,5.242-1.75-.341-1.8-4.049-2.48-8.565-1.566m-52.226,5.829c-33.217,8.245-72.247,41.077-89.4,75.2-5.11,10.166-2.575,11.507,2.9,1.533C85.467,81.766,92.582,72.371,104.976,60,123.2,41.8,138.3,32.243,163.335,23.061c6.416-2.354,11.665-4.68,11.665-5.17,0-1.129.264-1.168-10.976,1.622M158,41.634c-9.581,3.227-21.589,10.175-20.12,11.644.765.765,3.45-.1,9.348-3.008A78.744,78.744,0,0,1,166.815,43c2.373-.611,4.151-1.6,3.952-2.2-.658-1.972-5.344-1.666-12.769.834m46.5,4.887c-21.114,5.455-21.551,6.148-18.608,29.492,2.909,23.071,2.9,23.3-1.509,26.694q-5.147,4-10.25,8.056c-9.476,7.527-8.7,7.546-29.6-.75-24.34-9.665-23.965-9.779-35.421,10.779-9.284,16.66-9.083,17.23,11.471,32.658,17.636,13.238,17.012,12.127,15.1,26.883-1.753,13.532-1.168,12.946-21.168,21.181-23.83,9.81-24.241,10.458-19.045,29.947,5.641,21.157,6.185,21.507,28.909,18.614,23.017-2.931,23.916-2.88,27.329,1.548,1.536,1.992,5.162,6.6,8.056,10.25,7.414,9.335,7.435,8.525-.752,29.169-9.526,24.017-9.516,24.056,8.543,34.425,18.7,10.738,19.425,10.526,35.047-10.274,5.909-7.869,11.622-14.777,12.694-15.351,2.293-1.227,24.019.936,26.324,2.621.783.573,4.594,8.687,8.468,18.032,10.463,25.24,10.5,25.262,30.69,19.934,21.137-5.578,21.253-5.774,18.153-31.029-2.63-21.42-2.526-22.069,4.317-27.045,2.889-2.1,7.633-5.739,10.542-8.087,6.688-5.4,5.374-5.539,26.086,2.827,24.2,9.777,24.626,9.665,35.217-9.339,10.2-18.307,9.984-18.992-11.052-34.726-8.933-6.681-15.279-12.133-15.6-13.4-.747-2.98,2.181-24.474,3.562-26.137,2.226-2.682,15.654-7.494,20.915-7.494,10.027,0,21.183,6.07,25.346,13.792,4.026,7.467,8.5,22.136,10.718,35.116,2.107,12.348,5.43,24.612,6.919,25.532.466.288.62,4.523.341,9.411-1.131,19.84,6.422,30.065,22.256,30.13l6,.024L437,305c-8.94,5.954-8.286,5.9-17.506,1.465-8.468-4.073-8.072-3.19-9.087-20.267-.933-15.712-2.335-16.939-19.756-17.287-10.5-.21-10.829.172-14.479,16.948-3.249,14.939-2.481,13.951-13.768,17.7-9.579,3.183-7.524,3.934-21.35-7.811-11.7-9.943-12.434-9.979-22.6-1.115-11.52,10.047-11.535,10.755-.573,26.844,3.364,4.938,6.117,9.787,6.117,10.775,0,1.462-6.434,15.5-7.263,15.845-.13.054-6.664.647-14.52,1.318-18.369,1.569-19.139,2.36-19.193,19.722-.034,10.834.43,11.243,16.729,14.712,15.5,3.3,13.75,2.142,16.889,11.17,2.832,8.144,3.024,7.711-5.271,11.894-13.367,6.74-19.817,5.465-36.722-7.261-15.446-11.627-22.883-18.64-34.347-32.386-10.556-12.657-12.005-13.731-17.375-12.872-4.874.779-5.717-.632-2.468-4.134,3.38-3.643,3.972-5.808,2.535-9.277-1.13-2.726-.889-3.216,4.878-9.916,8.838-10.269,10.984-15.283,7.707-18-1.221-1.014-1.186-1.6.25-4.176,2.891-5.185-3.014-8.41-7.852-4.289a2.351,2.351,0,0,1-3,.364c-2.259-1.429-2.71-1.249-7.249,2.889-2.326,2.119-5.443,4.147-6.929,4.506-1.676.406-5.427,3.78-9.887,8.9a115.48,115.48,0,0,1-13.76,13.243c-17.087,13-17.762,27.959-1.973,43.748,5.956,5.956,6.7,7.112,6.194,9.635-.624,3.123,3.4,8.145,23.127,28.858,24.794,26.034,58.208,43.3,83.708,43.244,15.108-.03,33.715-7.39,44.925-17.769l5.94-5.5,6.337,3.09c7.617,3.714,7.247,2.866,8.147,18.663.977,17.142,1.3,17.528,15.35,18.617,15.489,1.2,15.581,1.116,19.451-17.452,2.918-14.005,2.144-13.012,13.091-16.786,10.005-3.448,7.855-4.188,21.5,7.4,11.678,9.921,13.16,10.066,22.178,2.16,12.546-11,12.567-11.227,2.376-26.41-8.794-13.1-8.423-11.1-3.8-20.455,4.423-8.938,3.715-8.586,18.985-9.443,9.864-.553,12.585-1.041,14.256-2.554,1.137-1.028,1.9-2.035,1.7-2.237s.238-2.943.978-6.09c1.987-8.442,1.8-16.531-.433-18.55-.995-.9-7.408-2.819-14.25-4.263-14.525-3.065-14.745-3.235-18.357-14.137-3.076-9.286-3.329-8.368,4.907-17.771,13.658-15.593,13.7-16,2.519-27.662-4.4-4.586-8-8.4-8-8.467-.029-.467,6.769-2.617,13.9-4.4,9.028-2.253,15.783-5.52,16.6-8.028.277-.854,2.752-2.5,5.5-3.664,3.007-1.27,4.995-2.741,4.995-3.7,0-2.492.265-2.938,3.22-5.425,1.529-1.286,2.78-2.948,2.78-3.693,0-1.779-3.9-4.468-6.482-4.468a4.447,4.447,0,0,1-3.286-2c-1.72-2.754-6.913-2.607-17.635.5-10.415,3.018-11.232,3.05-12.6.5-.726-1.356-.737-2-.035-2,1.71,0,1.17-5.312-.965-9.5a18.178,18.178,0,0,1-2-6.145c0-7.375-9.494-47.449-14.224-60.044-15.683-41.751-41.1-54.369-91.241-45.295-15.989,2.893-17.86,2.749-21.242-1.639q-4-5.147-8.056-10.25c-7.473-9.409-7.494-8.62.769-29.279,9.719-24.3,9.675-24.461-9.713-35.157-18.047-9.957-18.234-9.9-33.945,10.905-12.911,17.1-13.043,17.185-22.666,15.509A75.165,75.165,0,0,0,249.8,86c-6.02,0-7.962-2.573-15.256-20.211-9.884-23.9-10.528-24.314-30.053-19.268m23.15,67.078C160.3,125.764,137.4,216.415,191.326,257.35c20.1,15.255,37.562,18.105,66.054,10.777,32.965-8.478,55.033-28.817,62.755-57.84,2.479-9.317,2.8-26.577.6-32.544-1.282-3.482-1.38-2.68-1.343,11,.038,13.992-.122,15.226-3.09,23.806-9.7,28.027-28.6,44.532-60.3,52.652-21.683,5.554-35.566,4.927-49.794-2.246-60.5-30.5-53.23-120.788,11.533-143.22,37.933-13.139,84.013,9.169,98.293,47.584,3.167,8.52,3.616,6.134.568-3.019-11.575-34.755-51.443-57.478-88.956-50.7M55.381,246.919c-7.263,4.429-6.2,7.819,1.1,3.536,2.483-1.455,4.514-3,4.514-3.443,0-1.717-2.878-1.764-5.619-.093M444.5,259.057a61.508,61.508,0,0,1-9.61.885,99.476,99.476,0,0,0-10.25.694l-4.64.636v10.4c0,15.48,2.976,21.106,12.65,23.919,6.679,1.941,10.691,1.215,20.578-3.725,4.25-2.124,8.75-3.9,10-3.941s1.71-.306,1.022-.583c-.8-.323-1.25-2.612-1.25-6.362,0-7.878-.555-7.9-8.571-.331-6.642,6.271-9.882,8.355-12.994,8.355-2.47,0-1.57-1.879,1.712-3.576,9.943-5.142,19.885-18.675,17.027-23.176-.837-1.319-10.564.871-12.624,2.843a3.776,3.776,0,0,1-2.258.909c-2.527,0,1.027-4.164,5.208-6.1,3.915-1.815,3.936-1.852,1-1.761a50.376,50.376,0,0,0-7,.92m41,1.608c-5.984,1.3-20.093,5.875-20.662,6.7-.364.53-.252,2.043.25,3.363s.912,5.569.912,9.444v7.047l3.75-.661c4.972-.875,13.514-3.59,14.681-4.666.512-.472-2.14.02-5.893,1.093s-7.21,1.714-7.681,1.422c-1.944-1.2-.567-2.419,4.393-3.887,8.177-2.419,19.315-6.836,18.186-7.212-.559-.186-5.237,1.017-10.394,2.674C473.291,279.12,470,279.647,470,278.072c0-.918,2.891-2.1,18.5-7.578,9.656-3.388,12-5.08,8.3-6.007-1.777-.446-3.591.107-6.231,1.9-4.256,2.889-13.661,6.615-16.7,6.615-3.977,0-1.251-2.125,6.99-5.447,9-3.631,10.726-4.781,9.685-6.466-.687-1.111-1.542-1.183-5.054-.422m-29.825,2.993c-.757.757,1.136,3.342,2.447,3.342.483,0,.878-.9.878-2a1.871,1.871,0,0,0-3.325-1.342M503,276.383c0,1.559,4.755,2.822,5.583,1.483.918-1.486-.6-2.866-3.142-2.866-1.412,0-2.441.583-2.441,1.383M488.01,293.25c.009,1.113,7.056,4.991,9.407,5.177,2.382.189,1.377-2.582-1.594-4.393-3.726-2.272-7.828-2.683-7.813-.784M474,298.822c0,2.63,3.407,10.178,4.594,10.178,1.892,0,1.774-3.161-.279-7.466-1.494-3.132-4.315-4.9-4.315-2.712M220.957,317.046c-6.858,7.38-10.6,10.713-11.267,10.044-.994-.994.062-2.452,10.391-14.34,7.386-8.5,2.294-5-6.2,4.26-5.462,5.955-8.6,8.673-9.254,8.018s.024-2.269,2-4.76c3.3-4.152,4.687-6.268,4.106-6.268a66.211,66.211,0,0,0-5.6,6.521C200.1,326.8,199.445,329,202.6,329c1.992,0,8.338,3.313,11.3,5.9,3.329,2.907,3.192,2.977,10.506-5.408,7.387-8.47,10.155-13.028,8.524-14.035-1.19-.736-2.966.605-11.063,8.353-3.579,3.425-5.883,4.976-6.327,4.258-.809-1.309,3.557-6.543,10.272-12.315,4.324-3.718,7.063-7.166,7.15-9.005.1-2.128-2.666.244-12.008,10.3m-71.5,12.021c-.363.586-.5,1.155-.309,1.263s2.747,2.159,5.676,4.557c3.39,2.775,5.674,4.013,6.283,3.4,1.565-1.565.149-3.6-4.892-7.044-5.226-3.566-5.789-3.748-6.758-2.18m44.03,4.631c-13.034,11.868-13.45,12.361-15.037,17.818-1.885,6.484-1.006,10.8,3.626,17.788,2.974,4.49,11.362,12.7,12.977,12.7.775,0,22.256-22.6,22.661-23.838.688-2.106-2.579-4.165-5.092-3.209-4,1.522-3.153-.194,2.432-4.9,5.759-4.856,6.29-7.863,1.672-9.481-4.045-1.416-18,3.3-24.931,8.423-1.9,1.4-3.341,1.864-3.946,1.259-1.232-1.232,5.224-6.981,8.867-7.895a50.9,50.9,0,0,0,8.082-3.514L210.2,336l-5.249-2.432c-2.887-1.337-5.525-2.878-5.862-3.423s-2.857,1.053-5.6,3.552m21.677,10.441c.184,1.3.784,2.248,1.334,2.111,1.476-.369,1.216-3.511-.334-4.028-.915-.3-1.229.3-1,1.917M145,349.392c0,1.627,5.592,3.593,10.25,3.6,3.094.007,3.86-2.553,1-3.343-5.8-1.6-11.25-1.727-11.25-.259m12,17.576c-1.647,1.267-2.159,2.253-1.5,2.889,1.343,1.3,8.5-1.62,8.5-3.464,0-2.013-4.071-1.679-7,.575M49,381.449c0,5.793,23.8,14.708,34.838,13.053,10.908-1.636,9.461-3.141-3.588-3.732-11.871-.538-17.817-2.312-25.524-7.615C49.531,379.582,49,379.423,49,381.449m461.667,12.218c-1.066,1.065-.77,6.151.4,6.874,1.433.886,1.641.565,2.455-3.791.675-3.615-.766-5.172-2.855-3.083M505.091,421.4c-6.149,35.312-31.208,64.561-62.341,72.764-2.613.689-4.75,1.833-4.75,2.544,0,4.884,24.921-5.874,38.269-16.519C493.225,466.665,508,438.55,508,419.81c0-6.828-1.6-5.957-2.909,1.589" fill="#6dbf36" fill-rule="evenodd"/>
      <path id="Path_15" data-name="Path 15" d="M218.187,13.807c-2.785.2-4.173.736-3.917,1.5.511,1.532,9.93,1.589,10.439.062.5-1.506-1.328-1.945-6.522-1.566M162.5,20.067c-24.555,6.361-58.288,31.1-75.673,55.484-5.863,8.226-14.781,24-14.81,26.2-.038,2.825,1.723.783,5.983-6.938,18.371-33.294,51.955-61.559,86-72.381,3.025-.961,6.85-2.334,8.5-3.05l3-1.3-3,.088a64.373,64.373,0,0,0-10,1.9m-5,21.861c-9.837,3.507-20.851,10.045-19.391,11.511.334.336,4.834-1.415,10-3.893a107.038,107.038,0,0,1,15.337-6.021c3.271-.835,6.4-1.969,6.95-2.521,1.686-1.686-7.4-1.035-12.9.924m44.326,5.5c-18.6,5.094-18.658,5.212-15.354,30.557,2.649,20.331,2.526,21.379-3.026,25.672-2.02,1.562-6.6,5.2-10.186,8.09-8.267,6.663-8.3,6.661-28.032-1.25-24.2-9.7-24.705-9.576-34.854,8.727s-10.085,18.512,10.34,34.02c7.61,5.779,14.472,11.272,15.248,12.207,1.71,2.06-.213,23.658-2.409,27.046-.781,1.205-8,4.763-18.174,8.952-24.789,10.21-24.953,10.488-19,32.318,5.119,18.768,5.2,18.81,31.052,15.526,20.34-2.584,21.6-2.415,25.568,3.427,1.375,2.025,4.863,6.572,7.75,10.106,6.667,8.16,6.665,8.2-1.25,27.943-9.671,24.12-9.563,24.527,9.265,35.1,17.417,9.782,18.052,9.594,32.6-9.658,14.776-19.558,12.732-18.392,28.638-16.34,12.786,1.649,12.442,1.3,20.452,20.746,10.147,24.638,10.433,24.813,31.348,19.288,20.065-5.3,20.123-5.408,16.789-31.05-2.771-21.316-2.828-21.037,5.6-27.445,3.474-2.643,8.084-6.293,10.246-8.11,5.261-4.423,6.094-4.313,24.828,3.275,24.344,9.86,25.247,9.632,35.553-9,10.121-18.293,10.019-18.615-10.919-34.414-8.26-6.233-15.282-12.021-15.605-12.862-1.172-3.054,1.853-24.214,3.819-26.713,5.18-6.586,21.874-9.443,32.327-5.532,13.773,5.153,19.186,16.347,26.449,54.691,1.068,5.639,2.867,12.165,4,14.5,1.741,3.6,2.027,5.935,1.864,15.247-.438,24.976,14.919,34.212,37.8,22.734a97.984,97.984,0,0,1,17.352-6.261c8.068-1.949,9.9-2.793,13-5.978,1.983-2.04,4.731-4.052,6.106-4.471,3.377-1.029,6-3.462,6-5.565,0-.951,1.125-2.467,2.5-3.368,4.833-3.167,1.394-10.023-3.991-7.957-.951.365-1.509,0-1.509-.993,0-4.4-7.357-4.387-21.338.026-7.534,2.379-7.891,2.4-9.218.653-1.667-2.2-1.761-3.007-.444-3.821,1.535-.948,1.2-4.193-.869-8.29a33.755,33.755,0,0,1-2.568-8.71c-5.692-40.678-17.638-73.4-32.4-88.753-16.071-16.711-35.3-20.735-70.623-14.781-19.711,3.322-21.051,3.175-24.686-2.706-1.155-1.868-4.519-6.348-7.476-9.955-6.81-8.309-6.811-8.285,1.124-28.077,9.7-24.2,9.576-24.705-8.727-34.854-18.379-10.191-18.436-10.172-34.7,11.071-12.783,16.7-12.012,16.274-26.337,14.533-13.879-1.687-13.214-1.03-21.682-21.409-10.026-24.128-10.134-24.189-32.231-18.138M230,112.693a82.258,82.258,0,0,0-18.857,5.561c-22.931,9.815-40.765,30.118-47.771,55.746-2.515,9.2-2.54,32.933-.045,42,9.618,34.94,43.041,60.049,74.718,56.131,46.757-5.784,75.824-29.173,83.532-67.213,2.022-9.981.651-22.923-1.487-28.927-1.616-2.928,2.239-2.951-3.6-12.808-11.752-33.154-51.519-56.369-86.488-50.49m3.3,68.267c-10.593,6.458-7.036,21.745,5.731,24.63,8.712,1.97,14.97-2.87,14.97-11.577,0-11.124-11.732-18.522-20.7-13.053M53.016,248.64c-4.082,3.435-2.525,5.571,1.811,2.483A12.053,12.053,0,0,1,58.9,249c.6,0,1.1-.675,1.1-1.5,0-2.342-3.531-1.766-6.984,1.14M449,258.165a139.677,139.677,0,0,1-15.183,1.479c-6.425.36-12.187.966-12.8,1.348-1.6.987-1.766,19.627-.218,24.08,2.588,7.444,11.289,12.639,19.573,11.686,2.272-.261,7.956-2.291,12.631-4.51s10.75-4.331,13.5-4.694c5.9-.777,17.234-4.314,18.048-5.632.8-1.3-.65-1.15-5.548.578-4.685,1.653-9.425,2-8.575.621.3-.483,4.938-2.33,10.309-4.105,9.238-3.051,14.913-5.7,14.052-6.564-.213-.213-5.306,1.173-11.316,3.08-12.073,3.831-12.8,3.97-12.261,2.34.207-.621,6.432-3.254,13.834-5.851C493.662,269,498.5,266.8,498.5,265.9c0-2.37-4.066-2.134-7.885.458-6.356,4.313-20.307,8.385-17.615,5.142a4.032,4.032,0,0,1,2.4-1.5c2.868,0,15.6-7.016,15.6-8.6,0-2.237-5.592-1.481-17.6,2.379-8.761,2.818-8.9,2.91-8.487,5.791.958,6.743.57,16.757-.666,17.173-.916.308-1.25-1.338-1.25-6.163,0-3.621-.355-6.583-.789-6.583s-3.922,2.853-7.75,6.34c-7.3,6.649-10.3,8.66-12.895,8.66-2.415,0-1.856-1.547,1.034-2.864,4.029-1.835,16.208-13.268,17.9-16.8,1.117-2.334,1.257-3.846.533-5.75-1.209-3.18-2.9-3.208-10.282-.172-3.163,1.3-5.743,2.077-5.735,1.726.039-1.622,1.882-3.19,5.827-4.956,4.729-2.117,3.641-3.309-1.842-2.017m7,6.228a2.37,2.37,0,0,0,1.5,1.969c1.02.391,1.5-.054,1.5-1.393A1.788,1.788,0,0,0,457.5,263a1.454,1.454,0,0,0-1.5,1.393m47.667,11.274c-1.36,1.359-.6,2.333,1.833,2.333,1.556,0,2.5-.567,2.5-1.5,0-1.5-3.075-2.091-4.333-.833M488,293.421A1.711,1.711,0,0,0,489.809,295a7.561,7.561,0,0,1,3.75,1.468c2.505,1.895,4.441,1.924,4.441.067,0-1.713-2.21-3.021-6.75-4-2.589-.556-3.25-.377-3.25.882m-13.415,5.441c-.44.713,2,8.59,3.121,10.071.18.239.828-.067,1.439-.678.816-.816.612-2.328-.766-5.68-1.857-4.513-2.755-5.393-3.794-3.713m-246.144,5.561a6.459,6.459,0,0,1-4.575.9c-2.042-.407-3.532.286-6.622,3.077-2.192,1.981-4.537,3.6-5.211,3.6-2.292,0-6.851,4-11.943,10.48a80.111,80.111,0,0,1-12.336,11.928c-17.711,13.338-18.368,27.883-1.986,44.026,9.25,9.114,10.754,6.982,1.782-2.528-14.213-15.067-13.945-26.275.908-37.948a110.96,110.96,0,0,0,14.168-14.583c4.148-5.156,7.964-9.375,8.481-9.375s-.916,2.347-3.184,5.217c-6.755,8.546-2.539,6.681,6.5-2.874,10.658-11.268,11.937-10.483,1.92,1.178-10.856,12.637-7.3,11.967,4.83-.908,5.5-5.837,10.457-10.613,11.021-10.613,1.578,0-.034,5.352-1.958,6.5-3.3,1.971-14.234,12.844-14.234,14.159,0,2.273,1.106,1.567,8.073-5.159,14.24-13.748,12.743-4.912-1.844,10.877-4.727,5.117-6.09,5.54-8.67,2.688-2.139-2.364-9.8-6.065-12.548-6.065-3.4,0-2.239,1.641,2.41,3.417,7.122,2.72,7.236,3.751.766,6.922q-5.059,2.48-10.111,4.974c-4.457,2.2-7.079,5.018-5.833,6.263.37.37,2.03-.469,3.689-1.866a23.311,23.311,0,0,1,6.374-3.646,62.841,62.841,0,0,0,7.237-3.086c4.323-2.2,11.415-2.62,13.257-.778,2.245,2.245,1.208,4.638-4.05,9.338-5.164,4.617-5.2,4.684-2.087,4.12,2.119-.384,3.559-.1,4.363.873.66.8,1.621,1.187,2.136.869.55-.34.443-1.171-.26-2.018-.952-1.147-.783-1.894.826-3.661,3.907-4.292,4.586-6.593,2.765-9.373-1.853-2.827-1.961-2.619,5.627-10.848,8.022-8.7,10.849-15.3,7.386-17.237-1.231-.688-1.29-1.375-.336-3.9,2.116-5.606-1.848-8.516-6.729-4.938M370.061,319.5c-34.816,11.269-50.621,54.159-30.919,83.9,9.862,14.888,20.7,20.411,43.358,22.1,26.893,2.008,51.057-13.723,57.983-37.748,2.828-9.81.756-11.712-2.366-2.172-9.162,28-33.411,40.774-67.117,35.356-33.283-5.351-47.98-46.9-27.329-77.262,18.659-27.434,56.608-31.312,79.74-8.147,9.06,9.072,16.589,25,16.589,35.085,0,2.346.45,4.544,1,4.884,3.495,2.16-.429-19.505-5.249-28.977a54.614,54.614,0,0,0-65.69-27.026M150,329.3c0,1.2,8.928,8.7,10.359,8.7,2.161,0-.06-3.495-4.109-6.465-5.2-3.815-6.25-4.191-6.25-2.24m65.192,14.78a1.333,1.333,0,0,0,2.616,0c.2-.591-.391-1.075-1.308-1.075s-1.505.484-1.308,1.075m-69.808,5.113c-.863,1.4-.261,1.7,5.632,2.815,5.4,1.023,8.182.2,5.776-1.715-1.771-1.407-10.687-2.268-11.408-1.1M380.2,364.49c-7.912,6.657-.389,20.709,9.364,17.491,9.675-3.193,7.629-17.94-2.721-19.62-2.774-.45-4.073-.034-6.643,2.129M157.75,366.572c-2.813,1.526-3.685,3.428-1.571,3.428,2.583,0,7.821-2.479,7.821-3.7,0-1.71-2.823-1.586-6.25.273m67.082,6.023c-4.033,4.186-9.734,9.588-12.671,12.005-4.09,3.367-4.965,4.538-3.742,5.007,4.091,1.57,28.168-21.89,24.679-24.047-.514-.317-4.234,2.848-8.266,7.035m-175.6,9.6C51.75,389.75,85.255,398.218,90,392.5c1.092-1.315.072-1.5-8.288-1.5-11.142,0-19.077-2.091-25.991-6.848-4.767-3.28-7.172-4-6.489-1.955M511.25,393.718c-.687.247-1.25,1.761-1.25,3.365,0,3.951,2.637,3.847,3.22-.127.475-3.24.038-3.958-1.97-3.238m-5.672,26.532c-5.559,34.848-28.127,62.553-59.558,73.115-7.8,2.622-11.16,5.46-4.888,4.133,33.539-7.1,63.918-41.631,66.407-75.486.5-6.865-.94-8.163-1.961-1.762" fill="#040404" stroke="#040404" stroke-width="1" fill-rule="evenodd"/>
    </g>
  </g>
</svg>
