<svg xmlns="http://www.w3.org/2000/svg" xmlns:xlink="http://www.w3.org/1999/xlink" width="512" height="512" viewBox="0 0 512 512">
  <defs>
    <clipPath id="clip-illustration1">
      <rect width="512" height="512"/>
    </clipPath>
  </defs>
  <g id="illustration1" clip-path="url(#clip-illustration1)">
    <g id="_8393379-vectormaker-co_1_" data-name="8393379-vectormaker-co (1)" transform="translate(1.816 -0.066)">
      <path id="Path_9" data-name="Path 9" d="M482.011,50.96c-5.083,1.754-11.045,6.643-12.152,9.963-.3.9-1.783.529-5.288-1.334-10.214-5.431-21.471-.319-23.207,10.538-.62,3.873-.713,3.952-3.75,3.173-15.779-4.052-31.413,7.046-29.223,20.745l.614,3.839-6.983-.585c-21.388-1.793-30.648,18.194-13.185,28.46,4.411,2.593,5.338,2.741,17.163,2.742,11.249,0,12.85.225,16,2.246,6.826,4.38,18.757,2.489,27.794-4.4l3.351-2.556,2.19,2.057c6.293,5.912,21.856,8.881,30.082,5.74,6.553-2.5,12.429-9.487,11.684-13.888-.075-.441.38-15.679,1.01-33.861.967-27.908.931-33.2-.233-33.932-2.308-1.463-10.067-.946-15.867,1.056M85.634,63.473c-3.035,2.06-4.093,2.3-6.331,1.452-4.263-1.621-15.692-1.292-19.262.554-3.843,1.987-7.032,7-7.037,11.053,0,2.982-.091,3.034-5.266,3.108C39,79.767,30,85.8,30,91.531c0,6.116,12.852,12.846,24.669,12.919,6.9.042,8.532.381,10.5,2.183,9.514,8.707,28.762,7.043,37.816-3.268,2.672-3.044,3.308-3.292,7.223-2.811,14.859,1.827,18.36-17.6,4.1-22.759-2.8-1.011-3.309-1.687-3.309-4.361,0-9.512-16.486-15.986-25.366-9.961m85.418,10.609a179.327,179.327,0,0,1-18.34,11.525c-14.289,7.659-17.441,10.909-18.8,19.393-1.548,9.634,3.984,24.214,12.521,33,5.089,5.238,7.571,8.774,7.571,10.785,0,1.816-10.246-.734-14.872-3.7-7.457-4.785-13.609-5.654-25.385-3.586-12.908,2.267-19.856,1.728-23.57-1.83C88.643,138.2,87.048,137,86.629,137a14.96,14.96,0,0,1-3.95-2.431c-6.772-5.166-12.039-5.483-11.483-.691a4.733,4.733,0,0,1-1.7,4.285c-1.731,1.439-1.848,2.066-.868,4.668.794,2.108.817,3.32.077,4.06s-.739,1.749-.013,3.342c.786,1.723.7,2.6-.336,3.575-1.061.992-1.123,1.767-.267,3.365a3.984,3.984,0,0,1-.119,4.375c-3.712,6.937,7.954,17.081,21.776,18.935,4.108.551,5.25,1.093,5.25,2.488a4.608,4.608,0,0,0,1.542,3.064c1.07.888,1.224,1.6.5,2.323-1.567,1.567-1.268,3.516,1.037,6.753,3.216,4.516,7.314,6.075,17.787,6.765l9.479.624-5.468,3.624C106.655,214.888,100,225,100,236.321v6.444l-11.4-.072c-10.844-.068-11.7.081-17.75,3.083-14.832,7.361-44.9,39.666-55.437,59.567-6.441,12.16-5.483,22.452,2.518,27.074,6,3.466,34.822,3.13,82.484-.959,9.306-.8,16.988-1.341,17.072-1.2s.956,2.5,1.938,5.247c2.465,6.907,24.649,51.724,29.043,58.676,8.143,12.881,19.81,12.854,54.924-.123,53.5-19.775,241.956-97.211,274.876-112.949,15.591-7.453,15.5-7.374,15.943-13.555l.284-3.95-11-3.229c-23.147-6.793-51.057-14.379-78.5-21.336-89.584-22.71-90.626-23.025-91.961-27.834-1.729-6.224-1.446-6.86,3.612-8.134,11.034-2.778,14.021-6.916,12.99-17.992a28.323,28.323,0,0,1,.821-11c2.3-7.416,3.376-15.364,2.417-17.889a19.969,19.969,0,0,1-.879-5.8c0-4.554-3.88-8.652-7.769-8.2-2.093.242-3.145-.341-4.5-2.495a10.825,10.825,0,0,0-4.75-3.847c-1.854-.647-2.979-1.736-2.979-2.884,0-1.966-3.523-4.959-5.837-4.959-.766,0-4.979,3.488-9.362,7.75l-7.969,7.75-1.763-2.171c-7.959-9.806-21.787-7.766-27.377,4.04-3.168,6.69-3,6.589-11.909,7.247-8.761.647-11.217,2.035-17.571,9.937-5.787,7.2-7.41,7.55-17.191,3.752-7.76-3.014-11.285-5.959-19.521-16.309-4.738-5.955-10.413-9.786-12.544-8.469-.526.325-.956.114-.956-.468A1.1,1.1,0,0,0,178.869,140c-.737,0-.93,1.236-.555,3.546.5,3.076.26,3.665-1.8,4.449-2.985,1.135-14.467,2.675-16.648,2.234-1.619-.328-5.56-8.869-4.555-9.874.288-.287-.339-3.031-1.394-6.1a36.592,36.592,0,0,1-1.781-10.667c.075-2.8.343-3.968.6-2.593.642,3.491,2.117,5,4.89,5,2.262,0,2.544-.33,2.778-3.25.161-2.008,1.759-2.64,4.267-1.687,2.853,1.085,6.811-.26,7.717-2.623.62-1.614.768-1.613,2.569.018,1.052.951,1.692,2.305,1.422,3.007-1.537,4.006,5.038,2.1,6.673-1.93.623-1.535.841-.946.889,2.4.138,9.7-5.613,16.231-14.666,16.653-5.995.28-6.943,1.482-2.147,2.725,7.2,1.866,16.072-3.347,19.263-11.321,2.908-7.269,1.667-22.106-2.033-24.291-2.592-1.531-1.284-3.216,4.413-5.682,11.036-4.777,16-11.671,11.295-15.7-1.729-1.481-1.783-1.881-.5-3.713,4.555-6.5-3.11-12.571-10.1-7.993-2.208,1.447-2.465,1.452-2.465.057,0-1.827-3.717-4.672-6.1-4.672-.912,0-5.342,2.737-9.844,6.082m-4.359,30.895c-8.07.821-11.721,3.4-10.064,7.117.974,2.184.989,2.18,4.556-.952,3.522-3.092,8.08-4.14,9.315-2.142,1.019,1.649,3.053,1.144,5.854-1.452,4.235-3.925,4.072-3.969-9.661-2.571m16.8,3.195a5.624,5.624,0,0,0,.661,4l1.3,2.328.338-2.221c.476-3.135-1.394-6.469-2.3-4.107M167,113.917c0,2.132.483,3.083,1.566,3.083,1.111,0,1.475-.779,1.25-2.673-.46-3.893-2.816-4.236-2.816-.41m.465,11.14c-2.273,3.678,3.8,9.63,7.06,6.922,3.761-3.121,3.728-4.846-.124-6.456-4.293-1.794-6.043-1.911-6.936-.466m138.068,9.218a4.272,4.272,0,0,1-5.028,5.316c-1.6-.4-2.911.236-4.761,2.312a14.6,14.6,0,0,1-3.847,3.3c-1.813.6.411,5.778,4.18,9.722a14.727,14.727,0,0,1,3.429,5.788c.31,1.534,1.034,4.271,1.609,6.083a18.466,18.466,0,0,1,.378,7.25L300.824,178l4.338-.1c6.012-.138,10.888-1.657,5.779-1.8-4.41-.124-6.929-1.878-7.352-5.118a28.681,28.681,0,0,0-.8-3.982c-.264-.825-.981-3.019-1.593-4.876-.881-2.675-.809-3.962.348-6.2A12.953,12.953,0,0,0,303,151.7a5.606,5.606,0,0,1,1.9-3.119c1.707-1.545,2.452-4.561,3.349-13.559.169-1.7-.314-2.584-1.543-2.83-1.448-.29-1.673.106-1.178,2.078M85.507,141.989c-1.786,2.89,2.408,31.355,5,33.949s4.99.138,4.99-5.055c0-4.231.115-4.394,3.312-4.7,3.739-.359,14.152,2.045,21.636,4.994,5.25,2.07,18.308,3.962,21.528,3.12,2.715-.71,1.415-2.968-2.115-3.674-4.134-.827-3.674-4.282.5-3.788a6.309,6.309,0,0,0,5.231-1.924c2.711-2.547,3.152-4.134.91-3.274-.822.316-5.435-.6-10.25-2.023s-11.2-3.163-14.18-3.855-5.632-1.891-5.886-2.665c-.668-2.039,10.931-.811,17.914,1.9,8.843,3.427,13.9,4.133,13.9,1.941a3.14,3.14,0,0,1,1-2.43c1.852-1.145,1.02-2.5-1.535-2.5-1.4,0-5.933-1.8-10.085-4-8.574-4.542-13.769-5.054-25.38-2.5-11.638,2.56-18.965,1.741-23.645-2.642-1.48-1.387-2.362-1.656-2.848-.869m181.1,3.593c-.858,2.235-.79,2.418.893,2.418.833,0,1.5-.889,1.5-2,0-2.384-1.536-2.653-2.393-.418m-83.894,2.406c-.78,2.983-5.122,4.181-16.33,4.506-11.833.343-14.383,1.33-14.383,5.566,0,2.269.6,3.219,2.5,3.94,4.237,1.611,3.064,3.552-1.836,3.038-2.576-.27-5.664,2.818-5.664,5.666,0,7.723,27.4,8.412,40.406,1.016,7.318-4.159,10.109-10.525,6.58-15.01l-2.126-2.7-3.18,3.358c-5.93,6.261-20.962,11.224-23.171,7.65-1.058-1.711.832-2.657,6.7-3.352,10.053-1.191,18.5-8.414,15.386-13.162-1.97-3.006-4.166-3.237-4.879-.512m131.165-.426c-7.042,2.169-8.451,4.559-1.629,2.764,5.737-1.509,12.382-1.413,12.028.174-.122.55-3.02,1.566-6.44,2.258-7.124,1.442-13.027,4.1-13.669,6.151-.327,1.047.045,1.2,1.446.591,3.655-1.587,16.262-3.761,17.981-3.1,2.655,1.019.521,2.442-5.326,3.551-5.565,1.055-12.865,3.789-12.116,4.537.253.253,2.009.053,3.9-.444,6.454-1.692,14.444-1.717,14.444-.043,0,1.1-1.748,1.714-6.5,2.3-12.921,1.593-14.311,5.677-1.9,5.6,4.71-.031,8.589.428,9.416,1.115,1.506,1.25,1.552,1.136,3.053-7.51,1.051-6.057.484-15.994-1.056-18.485-.884-1.43-8.156-1.138-13.631.547m-40.058,3.586c-.29,1.945-1.248,2.748-5.77,4.837-3.612,1.668-5.535,5.821-3.657,7.9.96,1.062,4.356,8.16,7.547,15.775l5.8,13.844,3.38-.336c5.243-.521,14.008-4.415,15.682-6.966,1.191-1.814,1.226-2.238.164-2a1.622,1.622,0,0,1-1.73-1.448c-.238-1.087.213-1.75,1.191-1.75,1.046,0,1.578-.921,1.587-2.75a23.872,23.872,0,0,1,.62-5.015c.483-1.8.276-2.138-1.013-1.643-1.064.408-1.621.09-1.621-.926,0-1.73,1.6-3.094,2.251-1.922.232.416.2.081-.067-.744a38.472,38.472,0,0,1-.959-4.861c-.325-2.326-.727-2.944-1.306-2.008-.632,1.022-1.118,1.07-1.99.2-1.414-1.414-.25-3.637,1.39-2.653.673.4.59-.02-.191-.984-1.467-1.808-5.128-2.33-5.128-.732,0,1.3-7,3.316-10.044,2.887-2.579-.364-2.688-.971-1.374-7.6.592-2.984.437-3.25-1.9-3.25-1.836,0-2.633.6-2.863,2.148M238.356,165.5c-.089,1.539.391,2.5,1.25,2.5.82,0,1.394-1.029,1.394-2.5,0-3.262-2.456-3.262-2.644,0m-131.815,6.432c-.317.513.87,2.285,2.638,3.937,2.889,2.7,3.288,3.778,3.945,10.658C114.162,197.392,114.9,198,127,198c14.668,0,36.344-6.619,51.232-15.645,7.534-4.568,7.9-5.479,1.527-3.76-9.09,2.45-18.56,2.831-25.585,1.029A74.46,74.46,0,0,0,138.9,178c-7.486,0-10.7-.569-19.765-3.5-12.109-3.915-11.8-3.852-12.6-2.567m143.046,1.38c-1.4,1.026-1.571,1.579-.651,2.147a2.084,2.084,0,0,0,2.915-2.407c-.26-.78-.95-.7-2.264.26m-51.444,2.594c-1.006.625-1.053,1.03-.183,1.568,1.372.848,2.4.1,1.894-1.38-.208-.606-.914-.683-1.711-.188m19.607.782c-2.827.739-2.132,3.107.75,2.556,1.375-.263,2.5-1.1,2.5-1.862,0-1.422-.255-1.476-3.25-.694M310.5,181a18.437,18.437,0,0,1-5.543.93c-3.11.061-3.661.467-4.5,3.316a10.2,10.2,0,0,1-4.168,5.25c-5.612,3.5-2.865,4.9,4,2.029a61.057,61.057,0,0,1,8.347-2.555c5.463-1.224,6.329-2.141,6.351-6.72.016-3.373-.855-3.81-4.485-2.25m-79.957,1.931a1.086,1.086,0,0,0,.336,1.494c.5.31,1.169-.109,1.485-.931.622-1.62-.881-2.085-1.821-.563m24.07,1.564c-1.891.8-2.475,1.472-1.693,1.955,1.478.914,6.08-.153,6.08-1.41,0-1.619-1.421-1.795-4.387-.545m-51.07,5.436c-.74,1.2,1.141,2.382,2.473,1.559,1.119-.691.384-2.49-1.016-2.49a2,2,0,0,0-1.457.931m34.2.194c-.958.536-1.742,1.4-1.742,1.925,0,1.563,3.015,1.073,3.655-.593.8-2.077.183-2.505-1.913-1.332m-55.767,3.44c-1.255,3.3-1.239,3.435.418,3.435,1.43,0,2.607-2.069,2.607-4.582,0-2.348-1.982-1.6-3.025,1.147m82.726.769c-1.511,2.3-1.351,3.666.43,3.666.439,0,1.306-.948,1.926-2.107,1.7-3.18-.388-4.563-2.356-1.559m-135.252,9.693a75.943,75.943,0,0,0-18.661,13.646l-3.712,3.827,13.888-.3,13.888-.3.706-6.7a57.579,57.579,0,0,1,1.431-8.7c1.84-5.084.005-5.442-7.54-1.473m30.246-2.327c-2.372.615-1.547,2.888.909,2.5,3.2-.5,4.4-1.094,4.4-2.171,0-1.048-2.045-1.176-5.3-.331M241,203.5c0,1.233.787,1.551,3.25,1.313,1.787-.172,3.25-.763,3.25-1.313s-1.463-1.141-3.25-1.313c-2.463-.238-3.25.08-3.25,1.313m-23,.441c0,1.236.841,1.682,4.75,2.521,3.856.827,4.789-1.816,1-2.832-3.318-.889-5.75-.758-5.75.311M295,207l-4.5.505,4.468,1.194c4.8,1.284,5.393,1.177,4.87-.876-.243-.955-1.6-1.186-4.838-.823m-14.421,3.842c-1.761,3.4-10.23,11.43-18.439,17.472-3.5,2.575-5.973,4.689-5.5,4.7s11.632,1.35,24.8,2.979,24.114,2.785,24.33,2.569-.853-5.761-2.376-12.323l-2.769-11.93-9.329-3.073-9.329-3.073-1.386,2.681m-82.614.7c-.995,1.2-1.013,1.81-.081,2.742s1.409.867,2.142-.292c2.143-3.389.419-5.437-2.061-2.45m-20.748,1.375c.394,2.078,5.783,2.789,5.783.763,0-.854-1.253-1.637-3.041-1.9-2.375-.349-2.976-.1-2.742,1.136m79.533-.714c-3.791,1.006-4.837,2.443-2.447,3.36,1.654.634,8.7-2.262,8.7-3.576,0-1.167-1.2-1.125-6.25.216m-105.628,5.7a1.5,1.5,0,0,0-.718,1.941c.875,1.416,3.6.318,3.6-1.452,0-1.593-.9-1.745-2.878-.489m66.151.916c-3.273,1.7-4.4,4.18-1.908,4.18,1.673,0,6.635-3.794,6.635-5.073,0-1.258-.933-1.082-4.727.893m-53.76,2.8c-1.856,4.444-1.857,4.378.012,4.378.838,0,1.963-1.154,2.5-2.565,2.277-5.991-.061-7.678-2.512-1.813M315,219.45c0,1.22,6.007,19.03,6.88,20.4.941,1.477,4.754,2.034,73.12,10.692,23.925,3.03,49.428,6.4,56.673,7.484,27.607,4.141,27.047,3.966-52.673-16.45-47.339-12.123-76.98-20.094-82.277-22.127-.948-.363-1.723-.362-1.723,0m-77.377,2.09c-1.044,2.72-.7,4.46.877,4.46.833,0,1.5-.889,1.5-2s.034-2.326.075-2.725c.156-1.507-1.855-1.29-2.452.265m-97.935,9.106c-1.3,1.3-.682,2.354,1.4,2.354,1.164,0,1.909-.524,1.688-1.187-.487-1.462-2.157-2.094-3.083-1.167M182,234.031c0,1.522,2.653,2.273,5.5,1.558,3.88-.974,2.943-2.589-1.5-2.589-2.2,0-4,.464-4,1.031m23,1.362c0,1.17.952,1.607,3.5,1.607,1.925,0,3.5-.45,3.5-1s-.863-1-1.918-1a11.721,11.721,0,0,1-3.5-.607c-1.038-.4-1.582-.055-1.582,1m19.543-.462c-.74,1.2,1.141,2.382,2.473,1.559,1.119-.691.384-2.49-1.016-2.49a2,2,0,0,0-1.457.931m-54.9,1.763c-1.126,1.126-.685,2.306.861,2.306.825,0,1.5-.423,1.5-.941,0-1.261-1.562-2.164-2.361-1.365m-24.6,1.762c-1.928,2.323-.177,3.982,2.063,1.954a5.9,5.9,0,0,0,1.9-2.565c0-1.374-2.656-.964-3.964.611M77,247.607c-7.627,2.045-11.523,4.963-26.562,19.893C19,298.708,7.867,321.461,20.314,329.05c10.44,6.365,100.3-1.1,223.686-18.583,28.875-4.092,66.9-9.264,84.5-11.493C402.011,289.66,490,274.436,490,271.029c0-1.267-2.766-2.029-7.37-2.029-2.313,0-9.589-.677-16.168-1.5s-50.212-3.534-96.962-6.015-88.825-4.93-93.5-5.443-18.85-1.2-31.5-1.53C217.844,253.815,111.651,248.4,97.261,247c-12.435-1.21-13.625-1.174-20.261.606m393.813,13.076a2.011,2.011,0,0,0,1.916-.079c.332-.332-.258-.568-1.312-.525-1.165.048-1.4.285-.6.6m-14.313,21.9c-35.878,7.025-80.227,13.934-131,20.407-13.2,1.683-41.1,5.506-62,8.5-67.485,9.654-110.924,15.285-132,17.112-13.118,1.137-13.351-1.736,2.432,29.93,17.526,35.167,19.055,37.767,23.408,39.833,11.665,5.535,28.626-.052,146.66-48.317,46.829-19.148,56.979-23.327,90-37.056,19.525-8.117,40.9-16.895,47.5-19.505,12.564-4.97,32.7-13.472,33.417-14.108.576-.513.633-.523-18.417,3.208m33.772,2.267c-2.641,3.572-7.857,6.091-13.378,6.461-4.761.319-6.271,2.248-2.773,3.542,6.26,2.316,20.879-5.725,20.879-11.484,0-2.3-2.511-1.518-4.728,1.481m-477.7,55.031c-.978,1.582,3.842,7.407,7.834,9.467,4.624,2.387,12.972,3.263,16.84,1.768,4.716-1.823,3.068-3.015-4-2.894-7.548.129-11.031-1.232-15.687-6.129-3.068-3.227-4.082-3.677-4.987-2.212m73.258,23.59c-6.6,4.486-10.29,14.677-6.634,18.333,2.19,2.19,2.8,1.254,2.8-4.3,0-5.131.277-5.77,4.121-9.5,2.266-2.2,4.516-4,5-4s.879-.675.879-1.5c0-2.167-2.021-1.85-6.166.967m338.6,11.426a23.566,23.566,0,0,0-7.051,5.465c-2.806,3.4-3.184,3.558-6.423,2.629C399.532,379.711,389,384.619,389,393.22c0,2.242-.239,2.308-7.25,1.988-24.25-1.109-28.759,25.6-5.385,31.89,2.406.648,7.34.842,12.1.475,12.171-.939,12.4-.935,21.872.376,19.737,2.734,41.137-3.72,43.18-13.022.448-2.038,1.246-2.927,2.629-2.927,5.24,0,9.8-4.785,9.833-10.316.044-7.581-4.661-11.207-13.584-10.467-4.915.408-5.21.309-4.275-1.438,2.32-4.337-2.988-12.156-10.337-15.226-4.84-2.022-8.35-1.932-13.353.34M270,380.544c-35.035,16.28-84.172,32.628-129.75,43.169-2.824.653-2.952,2.287-.18,2.287,8.083,0,40.7-8.26,66.93-16.95,29.858-9.892,76.21-29.344,78.412-32.907,1.5-2.426-4.257-.782-15.412,4.4m-146.744-.9c-3.424,1.688-6.654,6.066-7.768,10.53-.637,2.555-.951,2.673-7.048,2.638-21.4-.124-27.994,27.636-9.009,37.923,1.858,1.006,1.83,1.165-.75,4.232-5,5.947-3.083,14.376,4.431,19.445,8.926,6.021,24.709,8.044,30.388,3.895,2.943-2.15,3.116-2.161,9.107-.559,13.461,3.6,30.451-6.341,30.335-17.749-.025-2.452-.059-2.441-1.734.566-7.344,13.183-19.956,17.849-32.281,11.944l-3.572-1.711-3.1,3.1c-4.5,4.5-16.293,3.776-25.4-1.56-10.834-6.344-9.556-18.208,1.834-17.032,6.28.648,6.148-.332-.5-3.747C96.751,425.694,92,420.108,92,412.54c0-12.721,12.228-20.287,23.5-14.54,2.158,1.1,3.977,2,4.044,2s-.054-2.363-.267-5.25c-.883-11.946,9.833-17.315,19.455-9.746,3.227,2.538,4.411.933,1.621-2.2a14.725,14.725,0,0,0-17.1-3.159M136,408.039c-3.025.966-7.3,2.14-9.5,2.609-5.773,1.23-4.407,2.871,2.279,2.738,6.247-.125,17.861-4.541,16.735-6.363-.825-1.335-2.822-1.121-9.514,1.016m97,8.128c-24.671,10.139-41.18,14.938-57.37,16.679-9.694,1.042-11.573,1.545-10.351,2.767,2.477,2.477,20.386.439,36.221-4.122,9.587-2.761,38.523-14.047,41.325-16.118,4.481-3.312-.889-2.878-9.825.794m58.636,21.469c-1.45,1.45-2.636,3.014-2.636,3.476s-1.154.4-2.565-.137c-4.2-1.6-15.664-1.2-18.276.626-8.83,6.185-2.022,16.169,11.653,17.089a29.088,29.088,0,0,1,10.527,2.494c14.57,7.758,32.9-9.882,18.676-17.975-1.651-.94-3.005-2.067-3.009-2.5s-1.111-1.9-2.461-3.25a8.163,8.163,0,0,0-11.909.181" fill="#a4a2a2" fill-rule="evenodd"/>
      <path id="Path_10" data-name="Path 10" d="M175.92,71.058C165.081,78.623,155.075,84.965,150,87.489c-12.94,6.434-16.529,11.665-15.753,22.955A41.819,41.819,0,0,0,146.278,137.5c6.622,6.774,9.808,12.519,6.921,12.478-4.047-.059-10.369-2.164-14.858-4.949-7.633-4.735-12.743-5.261-27.341-2.811-14.363,2.41-14.244,2.436-25.928-5.759-9.341-6.551-14.851-7.313-13.818-1.909.339,1.775-.072,2.819-1.386,3.523a3.537,3.537,0,0,0-.786,5.611c.776.776.723,1.658-.19,3.119-1.017,1.628-1.022,2.338-.024,3.539s.988,1.918-.051,3.582c-1.054,1.686-1.058,2.462-.025,4.117,1.057,1.692,1.013,2.3-.259,3.571-5.561,5.561,8.03,17.192,22.149,18.956,2.913.364,5.037,1.08,4.72,1.592s.093,1.949.909,3.194c1.017,1.552,1.188,2.792.544,3.943C93.383,195.5,105.414,202,120.364,202h6.09l-5.477,3.575c-14.158,9.242-21.525,20.5-20.8,31.793l.392,6.132-10.22-.339c-18.084-.6-24.736,3.049-46.22,25.354C7.94,306.084,1.3,331.395,26.8,334.581c5.955.744,42.407-.87,70.7-3.13,9.9-.791,18.528-1.441,19.172-1.445s1.724,1.681,2.4,3.744c3.851,11.792,27.347,57.892,32.841,64.436,8.44,10.054,22.491,7.286,82.046-16.162C312.115,351.252,451.844,293.54,473,283.292c6.325-3.064,13.372-6.374,15.659-7.357,3.808-1.635,6.432-5.177,4.941-6.668-.32-.321-.129-1.13.426-1.8,2.722-3.28,1.579-3.78-25.026-10.949-6.875-1.852-16.325-4.487-21-5.856-11.108-3.252-28.045-7.679-69.156-18.073-42.581-10.767-63.03-16.452-64.494-17.93-.632-.639-1.582-3.261-2.11-5.827l-.962-4.667,4.512-1.136c12.3-3.1,15.9-8.642,13.244-20.415-.89-3.943-.833-5.194.3-6.5,3.216-3.713,4.063-26.339,1.151-30.782C329.308,143.541,328.039,143,325,143c-3.389,0-4.175-.432-5.52-3.034a6.478,6.478,0,0,0-4.526-3.625c-2.265-.453-2.957-1.139-2.957-2.931,0-2.532-2.573-4.41-6.041-4.41-1.339,0-5,2.738-9.537,7.142l-7.366,7.142-3.968-3.586c-8.694-7.854-20.354-5.133-25.229,5.887-2.6,5.881-3.915,6.629-13.072,7.434-8.865.779-8.6.6-19.045,12.768-3.537,4.121-6.555,4.15-16.073.155-8.522-3.577-11.444-6.247-21-19.184-1.52-2.058-3.868-3.971-5.218-4.25-8.005-1.656-7.381-1.825-6.785,1.843.532,3.279.438,3.384-4.006,4.5A40.576,40.576,0,0,1,166.616,150c-4.413,0-5.535,1.566-1.675,2.338,2.846.569,11.892-.524,15.254-1.844a5.588,5.588,0,0,0,2.524-3.152l.829-2.486L186.274,147c6.561,5.161-2.031,13.221-16.524,15.5-4.271.672-4.914,2.169-1.319,3.071,4.556,1.144,13.383-2.318,18.777-7.363l5-4.674,1.991,2.459c4.556,5.626-.965,14.319-11.43,18-19.407,6.821-41.932,2.4-35.009-6.866,1.525-2.042,2.658-2.553,5.1-2.3,3.509.364,4.418-1.678,1.13-2.538C149.45,161.1,151.267,153,156.073,153c2.475,0,4.927-1.049,4.927-2.107,0-.491-.686-.893-1.525-.893-1.721,0-3.242-3.377-4.505-10-.471-2.475-1.558-6.961-2.414-9.968-2.342-8.23-1.54-15.31.885-7.807,1.365,4.22,5.617,4.721,6.577.775.551-2.268,1.016-2.468,5.015-2.158,3.813.3,4.7-.026,6.581-2.383,2.151-2.7,2.185-2.7,3.295-.629.717,1.339,1.747,1.9,2.856,1.557,1.624-.5,1.623-.466-.015.587-2.626,1.689-2.107,3.2.977,2.842A5.122,5.122,0,0,0,182.712,120c1.185-2.354,1.259-2.221,1.273,2.29.031,9.986-5.127,15.608-15.3,16.675l-6.184.649,4.055,1.179c11.848,3.445,23.071-8.775,20.844-22.7-.388-2.426-1.2-4.1-1.992-4.1-1.759,0-3.719-3.743-2.976-5.682a1.592,1.592,0,0,1,2.146-.927c1.145.439,1-.114-.545-2.077l-2.1-2.677L186.213,101c13.061-4.987,19.626-13.3,13.075-16.549-1.9-.943-2.015-1.3-.816-2.525,6.19-6.324-1.75-14.429-8.745-8.927-2.942,2.314-3.865,2.524-3.174.721.644-1.678-1.515-4.36-4.133-5.133-1.41-.417-3.5.378-6.5,2.47m-8.42,33.627c-8.538.743-11.5,2.517-11.5,6.886,0,3.13,2.4,3.171,5.3.092,2.772-2.942,6.1-3.821,8.327-2.2,2.182,1.6,4.939.878,7.865-2.048,3.478-3.478,2.288-3.8-9.99-2.734m-.815,6.065c-.616,1.069-.226,4.565.671,6.018,1.961,3.172,4.134-.349,2.641-4.277-.927-2.437-2.449-3.237-3.312-1.741m.754,15.441c-.525,1.656-.039,2.756,1.989,4.5,3.33,2.865,4.062,2.875,6.015.086,2.1-3,1.96-4.777-.384-4.777a3.333,3.333,0,0,1-2.559-1c-1.12-1.813-4.348-1.053-5.061,1.191m137.271,6.432c-.381.381-.149,1.348.516,2.15,1.473,1.774-2.4,5.482-4.772,4.571-.806-.309-3.018.822-4.986,2.55-1.946,1.708-3.95,3.106-4.454,3.106-1.381,0,2.392,7.8,4.907,10.141,2.468,2.3,4.379,6.565,3.545,7.914-.3.487.151,2.237,1,3.888,1.184,2.289,1.338,3.957.648,7.029l-.9,4.028,4.643-.014c5.238-.015,9.144-.854,9.144-1.964,0-.41-1.012-.572-2.25-.361a7.211,7.211,0,0,1-7.912-5.171c-.408-1.645-1.3-5.166-1.977-7.824-.958-3.745-.969-5.264-.049-6.737A8.019,8.019,0,0,0,303,152.514c0-.833.964-2.478,2.142-3.656a10.609,10.609,0,0,0,2.459-5.75c.917-10.4.907-10.556-.65-10.868a2.851,2.851,0,0,0-2.241.383M85,145.921c0,14.648,3.489,30.436,6.831,30.909,2.646.375,5.622-2.731,4.1-4.28-1.419-1.445-1.116-4.153.626-5.6,1.977-1.641,11.076.015,23.305,4.24,10.428,3.6,24.136,5.006,24.136,2.471,0-.923-1.524-2.272-3.5-3.1-4.291-1.792-4.619-3.832-.549-3.4,2.163.227,3.765-.471,6-2.612,3.989-3.822,3.9-4.041-1.7-4.079a60.789,60.789,0,0,1-12.75-2.345c-4.4-1.273-9.7-2.743-11.779-3.267-2.275-.574-3.515-1.381-3.116-2.027,1.027-1.66,9.89-.24,19.689,3.156,10.762,3.729,10.843,3.725,12.83-.518L150.747,152h-2.7c-2.408,0-4.813-1.05-15.377-6.712-3.668-1.965-9.808-1.92-22.038.164-11.636,1.983-16.067,1.462-21.591-2.54L85,139.987v5.934m181.18.329c.176,1.238.995,2.25,1.82,2.25s1.644-1.012,1.82-2.25c.245-1.732-.174-2.25-1.82-2.25s-2.065.518-1.82,2.25m47.32.959c-2.806.984-6.83,3.795-6.255,4.37a29.169,29.169,0,0,0,5.724-1.161c6.974-1.809,11.031-1.829,11.031-.054,0,.87-1.72,1.6-4.75,2.009-6.943.943-13.985,3.495-14.686,5.322-.927,2.413-.149,2.581,4.591.99,7.227-2.426,14.845-3.148,14.845-1.407,0,.956-1.481,1.7-4.25,2.122-6.724,1.038-13.521,3.562-14.174,5.263-.454,1.182-.172,1.384,1.163.833,5.769-2.38,18.261-3.434,18.261-1.541,0,.525-1.575,1.2-3.5,1.5s-5.179.81-7.232,1.134C303.25,168.327,304.29,172,315.8,172c5.374,0,9.254.454,9.967,1.167,1.365,1.365,1.686.661,2.807-6.167a54.236,54.236,0,0,0,.04-17.25l-.7-3.75-5.7.079a35.2,35.2,0,0,0-8.7,1.13M274,150.878c0,2.2-2.412,4.485-4.132,3.911-.659-.219-2.653,1.188-4.431,3.128l-3.232,3.528,1.927,2.449c2.219,2.822,4.6,7.983,9.431,20.443,4.3,11.078,4.072,10.755,6.723,9.74,1.218-.466,4.721-1.572,7.785-2.457,7.1-2.05,11.223-5.953,8.445-7.985-1.767-1.292-1.769-1.394-.059-2.351,3.453-1.933,1.821-22.145-2.015-24.95-2.534-1.853-4.193-1.667-5.409.6-.687,1.284-2.6,2.173-5.646,2.63-5.66.849-6.864-.492-4.825-5.373,1.679-4.018,1.2-5.2-2.121-5.2-1.721,0-2.441.554-2.441,1.878m19.639,7.816c-1.126,1.126-.685,2.306.861,2.306.825,0,1.5-.423,1.5-.941,0-1.261-1.562-2.164-2.361-1.365M238,164.927c0,2.439.426,3.073,2.066,3.073,1.663,0,2.005-.535,1.75-2.741-.472-4.09-3.816-4.381-3.816-.332m58,5.573c0,.825.45,1.5,1,1.5s1-.675,1-1.5-.45-1.5-1-1.5-1,.675-1,1.5m-190.009,1.75c0,.688,1.413,2.419,3.151,3.847,2.875,2.364,3.217,3.263,3.8,10,1.088,12.62,2.884,13.691,20.139,12.016,14.983-1.454,42.256-11.858,51.421-19.615l3-2.539-4.282,1.487c-7.3,2.537-20.051,3.781-25.718,2.51a157.758,157.758,0,0,0-17.5-1.888c-10.178-.626-14.155-1.353-21.41-3.918-9.632-3.4-12.585-3.85-12.6-1.9m143.113.664c-1.442.914-.866,4.086.742,4.086,1.47,0,3.382-2.821,2.681-3.956-.781-1.264-1.583-1.294-3.423-.13m-51.931,3.745a2.16,2.16,0,0,0,1.841,1.841c2.143,0,1.834-2.906-.355-3.327-1.336-.257-1.743.15-1.486,1.486m18.309.371a1.875,1.875,0,0,0,.332,2.184c1.36,1.36,6.446.072,5.93-1.5-.529-1.61-5.364-2.138-6.262-.683m95.018,3.778a20.431,20.431,0,0,1-7.18.97c-1.749-.2-2.972-.024-2.718.387.937,1.517-2.376,7.38-4.947,8.754-1.46.78-2.655,1.793-2.655,2.25,0,1.345,4.864.953,7.945-.64a27.794,27.794,0,0,1,6.929-2.125c6-.96,7.318-2.277,6.944-6.951l-.318-3.975-4,1.33m-80.091,1.568c-.847,2.208.28,3.335,1.808,1.807.9-.9.9-1.461.016-2.35s-1.324-.761-1.824.543m23.841,1.33a4.181,4.181,0,0,0-.949.323,1.858,1.858,0,0,0,.121,3.579c1.919.737,5.578-1.326,5.578-3.143,0-1.47-.58-1.562-4.75-.759M204.1,188.941c-1.511.934-.815,4.059.9,4.059,1.464,0,2.466-2.934,1.374-4.026a1.926,1.926,0,0,0-2.278-.033M236.6,190.3c-1.645,1.2-1.656,1.406-.141,2.664,1.394,1.157,1.876,1.125,3.209-.207,2.764-2.764.181-4.833-3.068-2.457m-55.047,2.876c-1.507,3.551-.7,5.475,1.879,4.485,1.76-.675,2.18-6.167.548-7.176-.56-.346-1.652.865-2.427,2.691m83.1.65c-2.178,2.407-2.1,4.171.184,4.171,1.844,0,4.555-4.273,3.427-5.4-.992-.993-1.871-.693-3.611,1.229m-103.9,6.887c-3.57.541-3.956,4.284-.441,4.284,2.969,0,6.206-2.357,5.285-3.848-.392-.634-1.023-1.085-1.4-1s-1.929.337-3.441.566m-29.224,1.847c-8.72,4.547-20.484,13.2-22.849,16.8l-1.4,2.132,14.111-.225,14.11-.224.608-6.276c.335-3.451.947-7.962,1.361-10.025.873-4.345-.7-4.923-5.943-2.187m85.88.589c-.986,1.6,2.4,3.848,5.785,3.848,3.85,0,3.631-2.518-.34-3.9-3.953-1.378-4.564-1.372-5.445.054m22.838.1c.643,1.958,7.756,2.243,7.756.31,0-1.159-1.05-1.56-4.083-1.56-2.819,0-3.957.387-3.673,1.25m53.256,3.632-3,.644,4.116,1.237c5.325,1.6,5.384,1.592,5.384-.763,0-2.1-1.066-2.287-6.5-1.118m-13.507,4.135c-1.431,3.455-9.66,11.269-18.236,17.317-4.8,3.384-5.539,4.262-4.062,4.823,2.216.841,48.26,6.26,48.658,5.726.157-.211-1.024-5.79-2.625-12.4l-2.911-12.014-9.238-3.236c-11.138-3.9-10.069-3.88-11.586-.218m-82.389.464c-1.566,2.39-1.565,2.6.006,3.2,1.756.674,4.7-2.257,4.091-4.077-.664-1.991-2.471-1.6-4.1.878m59.646.181c-4.174,1.478-5.869,4.338-2.571,4.338,3.542,0,8.321-2.413,8.321-4.2,0-2.1-.176-2.11-5.75-.137m-81.065,1.088c.433,2.286,7.815,3.161,7.815.927,0-1.437-2.85-2.637-6.323-2.663-1.2-.009-1.71.585-1.492,1.736M150,219c0,2.091.775,2.407,3.418,1.393,2.529-.97,1.874-3.393-.918-3.393-1.833,0-2.5.533-2.5,2m13.469,1.729c-1.549,3.707-1.359,6.271.464,6.271,2.428,0,4.757-8.521,2.56-9.364-1.031-.4-1.966.56-3.024,3.093m52.8-1.921c-1.775.931-3.238,2.206-3.25,2.835-.044,2.214,2.885,2.22,6.162.011,5.454-3.675,3.085-5.991-2.912-2.846m20.828,3.333c-.807,2.315-.821,3.534-.047,4.3,1.41,1.387,4.136-2.156,3.734-4.851-.476-3.192-2.487-2.889-3.687.555m77.9-2.418c0,2.072,6.227,19.886,7.3,20.9.657.617,6.82,1.828,13.7,2.689,53.827,6.749,103.291,13.161,117.844,15.277,30.87,4.488,31.593,4.707-70.344-21.277-30.378-7.743-56.446-14.737-66.75-17.908-.962-.3-1.75-.153-1.75.319M139.19,231.75a1.811,1.811,0,0,0,3.62,0c.236-1.228-.3-1.75-1.81-1.75s-2.046.522-1.81,1.75m42.441,1.769c-.736,1.919.292,2.481,4.536,2.481,3.125,0,3.833-.358,3.833-1.937,0-2.306-7.506-2.794-8.369-.544m42.705,1.048c-.834,2.172,1.282,4.215,2.8,2.7,1.28-1.28.487-4.267-1.133-4.267-.585,0-1.333.705-1.664,1.567m-20.151,1.183c.392,2.069,6.448,3.017,8.184,1.281,1.548-1.548-.944-3-5.192-3.016-2.629-.012-3.254.351-2.992,1.735m-59.16,2.724c-2.074,2.207-2.143,2.544-.638,3.121,2.093.8,5.685-2.244,4.939-4.189-.761-1.982-1.641-1.764-4.3,1.068m23.711-1.876c-.974.973.363,3.4,1.871,3.4.766,0,1.393-.9,1.393-2a1.864,1.864,0,0,0-3.264-1.4M75.324,247.854c-7.016,2.424-13.947,7.987-27.982,22.456-33.848,34.9-41.866,56.995-22.051,60.777,5.362,1.024,43.022-.555,74.709-3.132,43.578-3.543,71.7-6.946,156.5-18.938,26.95-3.811,61.825-8.55,77.5-10.532,84.54-10.686,168.112-26.246,154.906-28.841-9.979-1.961-57.227-5.3-122.906-8.675-42.625-2.192-81.775-4.406-87-4.918s-18.95-1.2-30.5-1.53c-28.172-.8-135.512-6.265-147.789-7.52-13.708-1.4-19.418-1.21-25.387.853M460.5,281.617C428.128,288.124,380.12,295.682,331,302c-17.325,2.229-51.921,6.978-76.88,10.553-50.148,7.181-100.895,13.717-120.12,15.47-6.875.627-13.028,1.3-13.672,1.495-1.161.352,25.367,54.528,30.945,63.2,8.056,12.521,19.908,10.661,77.727-12.2,35.575-14.066,103.486-41.725,154-62.72,21.175-8.8,47.725-19.739,59-24.3,38.584-15.628,39.24-16.049,18.5-11.88m29.937,3.509c-3.722,3.961-9.857,6.824-14.687,6.852-3.835.022-5.005,1.326-2.168,2.415C479.768,296.767,495,288.885,495,283.31c0-2.1-1.414-1.535-4.563,1.816M13,340.864c0,6.561,14.809,13,23.384,10.174,4.763-1.572,3.62-3.383-1.58-2.505a19.524,19.524,0,0,1-16.862-5.712C13.756,338.507,13,338.208,13,340.864M85.154,364.6c-6.53,5.59-8.747,11.555-6.119,16.466,1.756,3.28,3.285,2.3,2.637-1.7q-1.206-7.436,6.222-13.4C90.152,364.15,92,362.291,92,361.833c0-1.809-2.843-.66-6.846,2.767M265,383c-36.943,16.423-81.89,31.211-123.765,40.72-2.744.624-4,2.276-1.724,2.276,7.281,0,35.518-7.014,60.989-15.149,37.485-11.973,94.771-36.356,83.964-35.739-1.08.062-9.839,3.613-19.464,7.892m-140.55-3.6c-3.843,1.674-8.445,7.066-8.465,9.92-.026,3.614-1.183,4.173-8.644,4.173-6.485,0-7.52.288-11,3.064-10.539,8.407-10.487,21.516.123,31.3l4.617,4.255-2.541,3.019c-5.475,6.508-1.794,16.277,7.96,21.122,10.018,4.977,22.286,5.552,27.254,1.279,2.507-2.156,2.815-2.193,6.192-.748,7.535,3.224,17.228,1.69,25.332-4.009,2.97-2.089,7.766-10.545,7.654-13.495-.05-1.333-.35-1.152-1.189.717-5.689,12.681-20.318,18.554-32.474,13.036l-4.23-1.921-2.943,2.943c-3.643,3.643-9.637,3.945-19.266.971-15.619-4.824-19.056-20-4.541-20.047l5.211-.017-7-4.068c-11.653-6.77-14.731-10.747-14.731-19.031,0-12.328,12.709-19.744,23.982-13.993l4.1,2.091-.911-3.177c-3.3-11.514,8.716-19.621,18.63-12.567,4.273,3.041,5.146,2.985,3.431-.219-2.448-4.575-11.088-6.973-16.55-4.594m16.291,27.678c-.967.563-5.376,1.8-9.8,2.753-9.123,1.963-10.454,3.75-2.593,3.482,5.52-.188,16.648-4.376,16.648-6.265,0-1.323-1.958-1.31-4.259.03m91.759,9.506c-20.848,9.011-42.811,15.224-59.739,16.9-3.707.367-7,1.082-7.309,1.588-.925,1.5,14.919,1.066,23.34-.634,19.534-3.944,64.145-21.784,53.458-21.378-.963.037-5.35,1.623-9.75,3.525" fill="#6dbf36" fill-rule="evenodd"/>
      <path id="Path_11" data-name="Path 11" d="M170.5,75.01a138.669,138.669,0,0,1-16,10.153C138.337,93.54,134,98.4,134,108.134c0,9.894,6.469,24.468,13.676,30.812a26.1,26.1,0,0,1,5.9,7.577l1.577,3.773-5.266-.623a27.849,27.849,0,0,1-11.326-4.366c-7.543-4.658-14.434-5.356-27.612-2.8-12.041,2.339-15.509,1.74-23.138-3.994-11.461-8.615-16.524-9.837-16.071-3.879.183,2.4-.225,3.257-1.75,3.656-2.361.617-2.637,3.923-.477,5.716,1.343,1.114,1.328,1.388-.127,2.452-1.328.971-1.42,1.6-.488,3.345a3.481,3.481,0,0,1-.114,4.171c-1.014,1.625-1.016,2.419-.007,4.034,1.025,1.642.99,2.424-.191,4.25C64.39,168.751,78.657,180,91.083,180c4.511,0,4.917.2,4.917,2.378a5.351,5.351,0,0,0,1.542,3.657c1.07.888,1.224,1.6.5,2.323-2.02,2.02-1.04,5.437,2.437,8.489,3.762,3.3,6.566,4.072,18.353,5.03l7.668.623-4.654,2.736C108.207,213.254,100.5,224.48,100.5,236.33v7.17l-12.5.01c-16.54.014-19.469,1.5-38.388,19.49-22.942,21.815-40.2,48.726-38.173,59.526,2.477,13.2,12.914,14.3,84.376,8.834,12.282-.939,21.635-1.255,22.07-.745A66.9,66.9,0,0,1,121.5,339c3.169,8.3,23.488,49.077,27.771,55.725C159.725,410.951,169.75,408.289,304.5,353.5c130-52.853,186.239-76.943,188.735-80.842a3.175,3.175,0,0,0,.258-2.483,4.594,4.594,0,0,1,.49-3.145c1.413-2.642.027-3.406-12.483-6.88-6.05-1.679-19.775-5.52-30.5-8.535s-39.075-10.45-63-16.522c-65.783-16.7-74.252-19.2-75.031-22.162-2.365-8.995-2.563-8.559,4.895-10.824,10.222-3.1,12.737-7.349,10.982-18.539-.71-4.527-.582-6.109.632-7.843A10.391,10.391,0,0,0,331,170.644a28.731,28.731,0,0,1,1.133-6.694c.832-2.776.845-5.729.048-11.1-1.194-8.044-2.594-9.855-7.622-9.855-2.3,0-3.754-.872-5.852-3.5-1.536-1.925-3.673-3.5-4.75-3.5A1.739,1.739,0,0,1,312,134.155a5.679,5.679,0,0,0-1.829-3.5c-3.553-3.215-6.25-2.075-13.938,5.892l-7.283,7.547-2.5-2.975c-7.557-8.981-22.878-6.434-26.453,4.4-1.787,5.416-5.2,7.482-12.379,7.487-7.717,0-10.825,1.822-17.129,10.015l-4.777,6.207L221,168.774c-5.482-.527-16.492-5.5-19.742-8.913C197.17,155.569,190,146.633,190,145.835c0-1.26-5.673-3.835-8.45-3.835-2.163,0-2.55.452-2.55,2.981,0,3.264-.027,3.277-11.5,5.578l-6,1.2,6.782.119c7.869.138,13.372-1.77,14.588-5.059.837-2.261.847-2.258,4.122,1.016l3.283,3.283-3.388,3.566c-3.972,4.181-9.51,6.873-16.137,7.844-5.132.752-6.127,1.907-2.439,2.832,5.041,1.265,15.658-3.286,20.481-8.779l3.1-3.534,2.052,2.61c2.463,3.131,2.617,6.576.458,10.231-7.056,11.946-41.309,16.172-47.772,5.9-1.782-2.835,2.281-7.371,6.246-6.972,3.753.378,4.16-1.468.621-2.814-5.156-1.96-2.233-8.3,4.442-9.638,3.23-.646,3.262-.7,1.3-2.262s-2.783-3.633-5.226-13.1c-2.38-9.228-3.289-14.835-2.667-16.457.874-2.278,2.655-.971,2.655,1.949a2.934,2.934,0,0,0,1.991,3c2.7.858,4.009-.137,4.009-3.056,0-1.631.564-2.441,1.7-2.441,1.322,0,1.433-.267.5-1.2a5.723,5.723,0,0,1-1.2-3.519c0-1.974-.372-2.226-2.5-1.692-2.249.565-2.5.328-2.5-2.358,0-4.364,2.068-5.468,12.829-6.847,8.141-1.043,9.794-1.02,10.447.147.908,1.621,3.77.856,3.233-.864-.2-.642,3.279-2.967,7.733-5.167,9.555-4.72,12.694-8.151,10.953-11.971-.634-1.391-1.862-2.529-2.73-2.529-1.431,0-1.433-.207-.022-2.223,5.036-7.189-1.881-14.154-8.716-8.777C186.6,75.463,186,75.5,186,73.2c0-6.138-5.82-5.458-15.5,1.81m1.75,35.652c-3.116,1.257,2.186,9.124,5.75,8.533,1.156-.192,1.1.069-.25,1.138-2.508,1.989-2.163,2.847,1,2.483,3.759-.432,4.137-6.119.442-6.643-1.862-.264-2.082-.6-1.138-1.737,2.53-3.05-1.349-5.572-5.8-3.774m13.1,6.455c-.611.761-1.316,3.989-1.568,7.174-.761,9.618-8.307,16.269-17.215,15.176-3.033-.372-3.562-.259-2.072.446,9.14,4.324,20.456-2.736,22.526-14.055.944-5.162-.111-10.683-1.671-8.741M168,125.5c-1,1.205-.922,1.981.4,4,1.991,3.04,6.074,3.348,7.56.571,1.534-2.867,1.267-4.066-.906-4.066a3.333,3.333,0,0,1-2.559-1c-.9-1.461-3.071-1.222-4.5.5m135.4,8.059c-1.6,1.306-2.43,2.39-1.853,2.41a4.109,4.109,0,0,0,2.335-1.214c1.038-1.01,1.22-.771.95,1.25-.268,2-.981,2.562-3.57,2.812a11.064,11.064,0,0,0-6.01,3.087,16.78,16.78,0,0,1-4.147,3.232c-1.7.568.752,5.906,4.628,10.051,2.922,3.125,4.531,8.993,4.667,17.023.123,7.226,1.667,7.9,11.847,5.135,3.17-.86,1.824-2.34-2.128-2.34-4.288,0-5.527-1.044-6.526-5.5l-1.121-5c-.246-1.1-.732-3.24-1.079-4.756a5.221,5.221,0,0,1,.692-4.351,7.7,7.7,0,0,0,1.543-3.082,8.884,8.884,0,0,1,2.043-3.506,10.657,10.657,0,0,0,2.013-5.662,68.722,68.722,0,0,1,.843-7.25c.848-4.67-1.157-5.584-5.127-2.339M267.187,141.5a18.821,18.821,0,0,0-4.47,6.25c-2.483,6.2-4.826,7.6-14.019,8.394-8.025.69-8.225.773-12.072,5.031l-6.85,7.579c-4.813,5.324-19.125,2.714-26.325-4.8-3.231-3.373-4.447-3.7-4.46-1.2-.059,10.944-22.27,27.157-47.83,34.915l-9.34,2.835.42,7.685c1.029,18.8,19.229,38.611,36.978,40.244,34.323,3.158,68.284-8.861,92.136-32.607,8.525-8.488,8.537-8.173-1.1-30.822-10.4-24.46-13.7-26.837-22.726-16.383-2.668,3.09-6.241,6.167-7.941,6.838s-5.181,1.988-7.735,2.925c-3.753,1.377-5.632,3.033-9.8,8.633-6.388,8.591-12.55,13.728-18.675,15.572-5.5,1.656-9.385,1.828-9.385.415,0-.55,1.125-1,2.5-1,3.144,0,3.13-.147-.477-5.127-3.345-4.618-4.866-10.43-3.171-12.125.8-.8,1.528-.036,2.67,2.825,5.472,13.707,7.543,14.621,15.851,6.993l4.845-4.449-6.109-7.9c-5.674-7.335-7.459-11.22-5.154-11.22.525,0,3.71,3.619,7.078,8.043l6.122,8.043,2.776-3.793c4.075-5.567,6.059-7.047,13.162-9.816,5.008-1.953,7.651-3.837,12.1-8.631,5.656-6.088,5.729-6.128,10.131-5.525l4.433.608,4.576-5.825c2.518-3.2,5.931-6.387,7.587-7.072s3.272-2.076,3.594-3.088a4.485,4.485,0,0,1,2.665-2.5c3.117-.989.278-2.408-4.856-2.427a9.921,9.921,0,0,0-7.14,2.481M85.257,150.75c1.029,20.464,4.962,30.612,9.837,25.38,1.609-1.727,1.721-2.442.727-4.623-3.029-6.649,5.04-6.765,23.179-.331a62.5,62.5,0,0,0,16.839,3.566l8.338.551-.338-2.39c-.249-1.752-1.124-2.525-3.282-2.9-3.536-.608-3.5-2.588.042-2.312,3.838.3,8.4-5.014,8.4-9.783,0-2.086.523-4.116,1.161-4.511.657-.406-1.03-1.278-3.887-2.009a40.46,40.46,0,0,1-9.654-4.213c-6.548-4.152-10.813-4.534-24.525-2.194-6.534,1.115-13.346,1.74-15.214,1.4-3.463-.636-9.862-4.285-9.874-5.631,0-.412-.521-.75-1.149-.75-.818,0-.988,3.045-.6,10.75m233.049-4.729c-4.534.652-13.042,4.576-12.058,5.561.2.194,4.02-.4,8.5-1.332s8.471-1.362,8.866-.967c1.188,1.188-.12,1.8-7.278,3.419C307.794,154.631,304,156.528,304,158.87c0,1.747.21,1.751,5.25.1a66.11,66.11,0,0,1,10.081-2.336c7.472-.952,5.367,1.52-2.908,3.414C308.883,161.772,305,163.491,305,165.1c0,.617.9.742,2.25.31,7.439-2.387,17.75-3.278,17.75-1.535,0,.484-3.452,1.392-7.671,2.02s-8.269,1.637-9,2.244c-1.679,1.394-1.729,3.843-.079,3.9.688.026,4.625.145,8.75.266s8.288.6,9.25,1.061c1.5.719,1.75.326,1.75-2.7a21.288,21.288,0,0,1,1.043-6.285c1.031-2.712.371-15.14-.91-17.133q-1.557-2.423-9.827-1.233m-44.663,4.492c.758,1.975-1.49,4.639-3.612,4.279-.914-.155-3.042,1.291-4.728,3.213l-3.066,3.495,2.335,3.4c1.284,1.872,4.679,9.3,7.544,16.5s5.257,13.179,5.315,13.281c.241.422,13.241-3.413,15.241-4.5,2.414-1.307,6.328-5.913,6.328-7.446,0-.543-.675-.428-1.5.257-1.229,1.02-1.5.951-1.5-.378,0-.892.361-1.622.8-1.622,1.479,0,3.032-10.308,1.958-13a26.605,26.605,0,0,1-1.364-5.287c-.782-5.942-5.431-9.754-7.854-6.441-.611.835-3.022,2.091-5.359,2.791-5.621,1.684-7,.488-5.4-4.7,1.382-4.505.934-5.36-2.81-5.36-2.186,0-2.765.376-2.329,1.513M270,152.059c0,.582.45.781,1,.441s1-.816,1-1.059-.45-.441-1-.441a1.034,1.034,0,0,0-1,1.059m-152.366.724c-.743,1.2,3.7,3.211,7.163,3.238,1.487.012,5.853,1.135,9.7,2.5,6.874,2.43,12.518,3.214,12.481,1.733-.053-2.1-28.233-9.269-29.347-7.467m175.975,6.041a1.251,1.251,0,0,0,.441,1.707c1.486.918,2.012.188,1.021-1.417-.532-.859-1.047-.962-1.462-.29M296,170.5c0,.825.45,1.5,1,1.5s1-.675,1-1.5-.45-1.5-1-1.5-1,.675-1,1.5m-190,1.927c0,.786,1.034,2.248,2.3,3.25,3.38,2.682,3.712,3.539,4.664,12.024,1.239,11.049,2.269,11.748,16.077,10.921,16.421-.984,36.648-7.794,51.295-17.269,7.676-4.965,8.187-6.185,1.573-3.756-5.872,2.157-22.267,3-28.643,1.466a99.84,99.84,0,0,0-15.368-1.483c-8.757-.244-11.725-.786-18.836-3.435C109.833,170.708,106,170.2,106,172.427m203.5,8.337c-2.75.7-6.012,1.025-7.25.732-1.945-.462-2.25-.135-2.25,2.412,0,2.183-.962,3.739-3.713,6.007-5.5,4.535-3.325,5.609,5.243,2.586,3.834-1.352,7.927-2.468,9.1-2.48,3.093-.031,4.537-2.343,4.183-6.7L314.5,179.5l-5,1.265M125.458,205.936C117,211.179,107,219.456,107,221.207q0,1.052,7,.362a86.52,86.52,0,0,1,14.052.005l7.053.7-.685,11.706-.685,11.706,9.883.654c5.435.36,12.065.657,14.733.66L163.2,247l-7.723-7.212c-11.3-10.549-15.548-18.568-16.991-32.043-.911-8.507-1.99-8.657-13.031-1.809m166.171.916c-1.515.615-1.067,1,2.354,2.025,2.324.7,4.793,1.484,5.487,1.75.808.31,1.22-.346,1.146-1.821-.125-2.49-5.036-3.557-8.987-1.954m-12.1,4.718c-1.889,3.508-8.345,9.546-17.835,16.68-2.642,1.986-4.794,3.98-4.782,4.431s11.313,2.189,25.115,3.863c24.84,3.013,25.089,3.023,24.513,1-.484-1.7-2.945-12.048-5.043-21.211-.394-1.719-2.408-2.8-9.751-5.25-11.227-3.74-9.912-3.793-12.217.487M315,220.288a101.972,101.972,0,0,0,3.337,11.25l3.337,9.962,12.913,1.7c7.1.932,35.638,4.651,63.413,8.265s57.25,7.474,65.5,8.579,15.675,1.825,16.5,1.6.4-.46-.951-.524-21.822-5.1-45.5-11.185q-32.253-8.287-64.537-16.564c-11.837-3.031-28.6-7.5-37.274-9.937C313.73,218.369,315,218.607,315,220.288m-77.234,22.279c-.335.335-5.707,2.354-11.937,4.486L214.5,250.931l7.1.034c3.9.019,10.523.324,14.708.678l7.608.643-1.842-4.855c-1.786-4.7-3.045-6.126-4.307-4.864m-162.55,4.85C58.8,252.751,17.73,299.885,14.51,317.088a12.1,12.1,0,0,0,5.661,12.6c11.283,6.156,108.575-2.148,230.151-19.646,22.648-3.259,55.8-7.776,73.678-10.037,65.825-8.326,153.082-22.759,164.288-27.176,4.435-1.748,2.6-3.267-4.87-4.042L461.5,266.517c-8.25-.853-49.65-3.334-92-5.514s-81.95-4.422-88-4.983-18.2-1.235-27-1.5c-29.205-.875-44.527-1.592-100-4.678-72.978-4.059-74.145-4.1-79.284-2.426M459.5,281.58c-35.633,7.017-83.793,14.585-130,20.429-13.2,1.67-50.775,6.828-83.5,11.463-54.2,7.677-99.054,13.367-119.25,15.128a62.709,62.709,0,0,0-7.75.923c0,2.357,32.1,63.549,34.856,66.446,9.136,9.6,20.713,6.675,100.644-25.466,51.549-20.728,104.08-42.232,149-60.995,15.4-6.433,34.075-14.084,41.5-17q16.381-6.427,32.5-13.492c3.291-1.446-.023-.973-18,2.566M490,285.5c-4.263,4.4-8.758,6.5-13.9,6.5-4.125,0-5.456,1.265-2.517,2.393,5.678,2.179,17.039-3.08,20.459-9.469,1.743-3.257-.658-2.914-4.041.576M13,340.655c0,5.72,14.264,12.645,21.932,10.647,5.76-1.5,4.957-3.249-1.2-2.614-6.638.685-13.4-1.961-16.814-6.585C14.371,338.658,13,338.151,13,340.655m75.5,21.507c-6.792,3.74-11.242,11.184-10.018,16.758,1.017,4.629,3.421,4.776,2.8.171-.645-4.812,1.49-9.012,6.717-13.213,5.159-4.146,5.468-6.453.5-3.716M279,377.113q-58.349,26.829-115,40.907c-9.075,2.256-18.075,4.588-20,5.182q-2.439.757-4.893,1.463c-.766.21-1.176.6-.911.864.932.933,23.469-3.527,38.1-7.541,26.755-7.337,65.95-21.367,88.7-31.75,14.85-6.778,20-9.433,20-10.31,0-1.329-.934-1.144-6,1.185m-157.385,3.975c-3.213,2.528-5.615,6.929-5.615,10.29,0,2.4-.174,2.46-5.356,1.925-20.54-2.12-29.747,21.022-13.821,34.74,4.637,3.995,4.906,4.459,3.254,5.616-4.78,3.348-5.034,11.862-.514,17.234,7.221,8.581,27.185,12.181,34.538,6.227,2.049-1.66,2.633-1.711,5.562-.487,11.155,4.66,25.758-.7,31.252-11.467,3.037-5.953,2.55-7.281-.774-2.112-7.249,11.271-19.449,15.165-31.04,9.906-2.419-1.1-4.5-1.875-4.614-1.728s-.735,1.265-1.369,2.484c-3.762,7.235-27.978,2.256-32.612-6.7-3.608-6.976-.532-12.45,6.839-12.171,5.883.223,5.836.017-.863-3.763-14.969-8.448-19.305-19-11.846-28.828,4.643-6.117,14.554-8.271,21.51-4.674l3.046,1.576-.675-3.072c-.938-4.27,1.037-9.526,4.754-12.653,3.8-3.2,9.718-2.994,14.638.509,2.918,2.078,3.958,1.858,2.326-.493-3.31-4.766-13.858-6.1-18.62-2.354M136.5,408.549a47.29,47.29,0,0,1-10.333,2.4q-3.332.049-2.892,1.3c1.05,2.976,20.348-1.515,21.484-5,.517-1.586.179-1.533-8.259,1.3m96.5,8.089c-23.958,10.008-42.673,15.311-59.75,16.932-3.988.379-7.25,1.145-7.25,1.7,0,1.783,19.793.017,30.166-2.692,14.658-3.828,47.834-16.8,47.834-18.7,0-1.48-2.146-.942-11,2.757" fill="#c4c4c4" stroke="#c4c4c4" stroke-width="1" fill-rule="evenodd"/>
      <path id="Path_12" data-name="Path 12" d="M170.326,75.294a159.827,159.827,0,0,1-18.178,11.491c-14.822,7.832-19.06,13.8-17.746,24.975a46.507,46.507,0,0,0,13.158,26.614c3.542,3.6,6.44,6.97,6.44,7.5a9.2,9.2,0,0,0,.607,2.545c1.247,3.249-6.826,1.906-15.195-2.529-9.473-5.019-15.609-5.822-26.8-3.508-10.189,2.107-16.438,2.064-19.7-.136-1.424-.96-5.453-3.672-8.955-6.027-9.632-6.479-14.911-6.8-12.151-.745.923,2.026.882,2.527-.205,2.527-2.84,0-3.96,2.8-2.2,5.495.9,1.378,1.181,2.505.618,2.505-1.353,0-1.322,4.7.037,5.537.671.415.41,1.13-.711,1.949-1.533,1.122-1.6,1.665-.512,4.057.878,1.925.941,3.079.211,3.809C63.338,167.062,78.912,180,91.5,180c4.922,0,5.2.135,4.785,2.311a3.942,3.942,0,0,0,1.094,3.585c1.242,1.031,1.306,1.643.332,3.2-4.262,6.825,12.437,14.522,26.793,12.349l4-.6-6.959,4.74C114.017,210.708,105,219.169,105,221.1c0,.66,2.587-1.255,5.75-4.256,9.272-8.8,20.713-15.849,25.71-15.849,2.36,0,2.542.337,2.564,4.75.075,14.552,7.179,27.193,21.257,37.823l6.219,4.7-9.5-.652c-5.225-.358-12.8-.925-16.839-1.26l-7.339-.61.623-7.124c.343-3.918.875-9.261,1.183-11.874l.56-4.75-13.344.014c-7.339.007-14.375.289-15.634.627-4.278,1.146-7.563,12.039-5.455,18.087l1.006,2.885-12.631-.057c-11.808-.052-12.988.122-18.13,2.676-14.58,7.241-45.842,41.121-55.505,60.152-6.773,13.34-3.931,24.314,7.005,27.05,6.194,1.55,44.265.207,80.5-2.84,8.829-.743,14.746-.857,15.129-.294s.78.514,1-.089c.2-.559,5.546-1.537,11.871-2.174,23.826-2.4,70.122-8.353,117-15.042,26.675-3.806,57.5-8.09,68.5-9.52,69.072-8.977,104.466-14.492,150-23.37,8.25-1.609,15.1-2.824,15.231-2.7s-3.249,1.63-7.5,3.348C447,291.757,422.5,301.817,386.5,316.766,225.051,383.813,179.992,401,165.668,401c-10.926,0-13.106-2.891-33.812-44.838-6.608-13.385-12.224-24.128-12.48-23.872-1.226,1.226,20.667,46.661,29.206,60.612,10.714,17.5,17.958,15.9,127.918-28.374,120.138-48.369,188.1-76.967,213.473-89.821,2.581-1.308,5.07-9.2,3.359-10.648-.458-.388-7.132-2.44-14.832-4.559q-14.759-4.072-29.5-8.222c-8.526-2.4-34.176-9.1-57-14.874-81.739-20.686-79.458-19.861-80.2-28.995-.3-3.663-.215-3.758,4.229-4.913,11.55-3,13.307-5.389,12.585-17.1-.293-4.761-.087-8.52.5-9.1,2.1-2.1,3.714-17.219,2.6-24.286-.218-1.375-.467-3.255-.553-4.179-.264-2.842-3.124-4.821-6.977-4.827-3.027-.006-3.977-.531-5.362-2.964a8.1,8.1,0,0,0-4-3.555c-1.281-.33-2.988-2.024-3.817-3.786-2.644-5.621-5.242-4.893-14.182,3.973l-7.9,7.838-1.74-2.287c-7.616-10.013-21.157-8.135-27.165,3.767-3.311,6.559-4.079,7.02-11.691,7.02-7.5,0-11.593,2.208-16.918,9.129-5.675,7.375-7.251,8.258-12.31,6.9-6.88-1.853-14.5-5.758-17.921-9.189-4.6-4.612-11.17-12.767-11.17-13.871,0-1.367-5.538-3.965-8.45-3.965-2.159,0-2.55.454-2.55,2.96,0,3.179-1.094,3.718-12,5.918l-4.5.908,5,.083c9.021.15,14.345-1.9,15.733-6.068.491-1.474,3.51.158,5.274,2.85,3.151,4.808-6.159,12.517-16.893,13.988-7.25.994-7.053,2.769.233,2.109,7.017-.637,13.889-4.12,17.342-8.79L191.374,153l2.313,2.173c4.968,4.667,1.536,13.333-6.955,17.562-14.332,7.136-37.536,6.574-40.158-.973-1.35-3.888,2.381-7.924,6.553-7.09,3.534.707,3.781-.94.373-2.493-5.142-2.343-2.938-8.544,3.494-9.831,2.831-.566,3.073-.829,1.7-1.835-.883-.647-2.117-3.39-2.742-6.1s-2.023-7.679-3.109-11.05a32.525,32.525,0,0,1-1.657-9.923c.365-4.359,2.818-6.1,2.818-2a3.278,3.278,0,0,0,2.25,3.466c2.9,1.1,3.75.536,3.75-2.474,0-1.343.427-2.441.948-2.441.57,0,.519-1.23-.127-3.083-.8-2.3-1.549-2.96-2.948-2.594-2.953.772-2.619-5.788.4-7.763,2.876-1.885,19.778-3.914,21.152-2.54,1.467,1.467,3.594,1.181,2.987-.4-.344-.9.63-1.784,2.782-2.532,5.773-2.008,13.946-7.486,15.435-10.346,1.641-3.151.429-6.741-2.274-6.741-1.415,0-1.4-.267.1-2.558,2.326-3.55,1.644-7.549-1.6-9.36-2.47-1.379-2.929-1.3-6.75,1.233L186,76.028V73.714c0-6.707-5.489-6.154-15.674,1.58m1.779,36.079C170.758,113,171.663,116,173.5,116a2.306,2.306,0,0,1,1.862,1.5,3.1,3.1,0,0,0,2.8,1.5c2.163,0,2.171.038.283,1.418-2.357,1.724-1.4,3.021,1.54,2.087,3.016-.957,2.447-5.873-.733-6.325-2.33-.33-3.045-1.748-1.193-2.366.582-.194.759-1.131.393-2.083-.793-2.067-4.741-2.29-6.345-.358m13.359,5.676a6.466,6.466,0,0,0-.622,3.619c1.3,10.037-9.177,20.675-18.555,18.845-2.288-.446-2.429-.375-.787.4,9.233,4.363,20.409-4.069,21.305-16.073.495-6.632.029-8.994-1.341-6.792M168.7,124.636a5,5,0,0,0-.7,2.831c0,4.826,5.868,6.313,7.839,1.986,1.495-3.279,1.536-3.139-1.089-3.708a25.928,25.928,0,0,1-3.8-1.148,2.334,2.334,0,0,0-2.25.039m134.937,8.437c-1.449,1.139-2.635,2.559-2.635,3.155s.946.226,2.1-.82c2.085-1.887,2.1-1.882,1.75.6-.292,2.07-.914,2.507-3.636,2.555a8.235,8.235,0,0,0-5.5,2.295,34.752,34.752,0,0,1-4.047,3.489c-2.254,1.539-.11,7.036,4.581,11.744a8.168,8.168,0,0,1,2.75,6.278c0,1.935.507,3.831,1.126,4.214.726.449.929,2.6.572,6.058-.651,6.313,1.116,7.43,8.927,5.643,2.455-.562,4.375-.613,4.375-.116,0,1.546-5.344,3-9.75,2.656-3.876-.3-4.25-.129-4.25,1.99q0,5.009-5.091,8.1c-5.37,3.266-1.318,4.841,5.841,2.269a81.322,81.322,0,0,1,9.034-2.709c4.827-.945,6.648-4.286,5.567-10.211-.855-4.68-.94-4.767-5.2-5.337-4.96-.663-5.723-1.55-6.651-7.733a21.794,21.794,0,0,0-1.838-6.358c-.929-1.494-.811-2.5.583-4.934a13.424,13.424,0,0,0,1.75-4.322,5.775,5.775,0,0,1,1.965-3.042,6.344,6.344,0,0,0,1.841-5.065,18.128,18.128,0,0,1,1.157-6.378c2.2-5.313-.8-7.577-5.328-4.016m-35.354,6.9c-2,1.219-4.35,4.205-6.207,7.884C258.7,154.532,256.13,156,247.8,156c-6.45,0-9.8,1.873-14.284,7.976-4.461,6.077-7.064,8.024-10.729,8.024-4.308,0-15.146-4.759-19.683-8.642-2.988-2.557-4.1-3.075-4.1-1.9,0,3.306-5.279,11.858-10.305,16.693-6.336,6.1-22.422,14.311-37.3,19.048l-10.379,3.3.007,4c.023,11.831,5.586,23.11,16.317,33.084,10.19,9.471,14.4,11.135,30.16,11.924,28.624,1.433,61.41-11.375,83.616-32.665,8.124-7.789,9.027-10.6,5.613-17.507-1.316-2.66-4.606-10.426-7.311-17.259q-10.782-27.237-18.744-17.391c-5.618,6.941-9.428,9.875-15.175,11.685-6.16,1.94-7.276,2.873-17.39,14.559a60.267,60.267,0,0,1-9.034,8.639c-3.773,2.5-13.075,4.846-13.075,3.3,0-.479.922-.871,2.048-.871,1.94,0,1.9-.225-.793-4.25-5.1-7.627-6.608-12.75-3.755-12.75a1.521,1.521,0,0,1,1.5,1.533c0,2.25,4.47,10.683,6.759,12.751,1.913,1.729,2.127,1.664,6.858-2.084,8.914-7.061,8.91-6.836.363-17.2-3.75-4.548-5.848-9-4.24-9,.482,0,3.523,3.6,6.76,8s6.172,8,6.523,8,2.1-2.03,3.877-4.51c3.444-4.795,5.6-6.207,14.591-9.573,4.474-1.673,6.364-3.1,9.05-6.841,3.969-5.525,7.012-7.185,11.756-6.415,3.214.521,3.711.2,7.818-5.009,2.5-3.174,5.78-6.1,7.631-6.808,1.785-.684,3.5-2.055,3.819-3.047a7.031,7.031,0,0,1,3.146-3.154l2.574-1.348-3.292-1.148c-4.632-1.614-7.014-1.432-10.712.823M85.309,152.25c.6,12.295,2.884,23.613,5.037,24.985,3.578,2.278,7.309-1.382,5.706-5.6-2.51-6.6,6.485-6.638,23.517-.092,6.717,2.581,25.431,4.808,25.431,3.026A5.076,5.076,0,0,0,140.465,170c-1.538,0-2.465-.571-2.465-1.519,0-1.131.655-1.355,2.565-.875,3.71.931,8.435-3.751,8.435-8.359a13.612,13.612,0,0,1,.978-5.206c.845-1.578.471-1.922-2.75-2.525a42.817,42.817,0,0,1-9.819-4.1c-7.821-4.373-12.831-5.015-23.5-3.015-14.386,2.7-21.95,1.868-25.849-2.83-2.877-3.467-3.349-1.631-2.746,10.684M316,146.2c-4.007.879-11.7,5.427-10.769,6.363.2.2,2.366-.234,4.816-.963,6.224-1.853,13.953-2.889,13.953-1.871,0,.469-3.129,1.587-6.954,2.485-9.319,2.187-12.476,3.811-12.876,6.622-.283,1.99-.064,2.177,1.544,1.316,2.2-1.177,17.572-4.2,18.194-3.578.871.871-.866,1.566-8.389,3.359-7.054,1.68-11.726,4.193-10.352,5.567.3.3,3.182-.138,6.4-.977,6.341-1.651,14.437-2.07,12.882-.666-.522.472-4.065,1.353-7.872,1.958-7.277,1.156-10.259,2.968-9.242,5.616.51,1.33,1.741,1.482,7.6.938,5.634-.524,7.485-.325,9.546,1.025,1.958,1.283,2.639,1.374,2.911.39.757-2.737,2.863-14.337,2.775-15.285-1.3-14.039-2.3-14.9-14.166-12.3m-41.2,2.478c-.932.245-1.468,1.035-1.192,1.755.658,1.713-2.29,4.627-4.013,3.966-.769-.295-2.728,1.237-4.6,3.6l-3.255,4.109,2.146,2.284c1.18,1.256,4.655,8.545,7.722,16.2s5.728,14.072,5.913,14.264c.995,1.034,15.981-4.525,18.472-6.852,2.889-2.7,3.213-4.392,3.2-16.748,0-4.657-2.12-12.5-3.9-14.471-1.921-2.122-6.968-2.087-6.525.045.151.729-.206,1.027-.794.664a2.177,2.177,0,0,0-2.275.288c-2.058,1.618-6.536,2.308-7.27,1.121-.377-.611-.1-2.9.624-5.08,1.241-3.76.367-6.174-2.06-5.686q-1.1.255-2.2.548m-4.785,2.8c-.789.95-.865,1.524-.2,1.524,1.208,0,2.617-1.9,1.924-2.591-.252-.251-1.027.229-1.723,1.067m-152.545,1.565c-.523.845,5.586,2.943,8.6,2.953A57.321,57.321,0,0,1,135,158.5c7.744,2.634,12,3.166,12,1.5,0-.55-.734-1-1.631-1s-5.51-1.3-10.25-2.894c-9.305-3.125-16.8-4.427-17.644-3.065m176.6,6.542c.048,1.165.285,1.4.6.6a2.013,2.013,0,0,0-.079-1.917c-.332-.332-.568.258-.525,1.312M296,170.5c0,.825.45,1.5,1,1.5s1-.675,1-1.5-.45-1.5-1-1.5-1,.675-1,1.5m-190,1.813c0,.722,1.35,2.606,3,4.187,2.356,2.257,3,3.746,3.024,6.937.038,6.419,1.68,11.9,4.177,13.94,8.2,6.7,53.767-5.82,68.3-18.764l4-3.563-6,2.064c-7.676,2.64-21.741,3.584-28.185,1.891-2.648-.7-9.54-1.386-15.315-1.533-8.709-.223-12.024-.8-19.438-3.37-9.638-3.345-13.562-3.863-13.562-1.789m190.079,10.27c.048,1.165.285,1.4.6.6a2.013,2.013,0,0,0-.079-1.917c-.332-.332-.568.258-.525,1.312m-7.529,24.284c.963.879,10.118,4.133,11.628,4.133.452,0,.822-1.125.822-2.5,0-2.418-.22-2.5-6.7-2.5-3.846,0-6.3.369-5.75.867m-8.586,3.22c-1.428,3.447-12.439,14.008-19.718,18.913-2.857,1.925-5.206,3.741-5.22,4.035-.027.564,51.246,6.956,51.79,6.457.426-.392-4.764-22.619-5.7-24.425-.41-.787-5.067-2.881-10.349-4.651l-9.6-3.22-1.2,2.891M314,218.443c0,1.2,7.166,22.122,7.785,22.734.393.388,16.465,2.745,35.715,5.237,51,6.6,87.009,11.322,103.5,13.568,12.364,1.684,27.177,2.713,19,1.32-8.457-1.441-153.035-38.958-160.876-41.746-4.764-1.694-5.124-1.772-5.124-1.113m-80.316,25.221c-3.2,1.314-9.441,3.435-13.87,4.714l-8.052,2.325,12.369.674c6.8.371,14.278.939,16.61,1.261l4.241.586-2.159-5.362c-2.857-7.1-2.492-6.928-9.139-4.2M74.7,247.4c-15.6,5.738-53.663,48.122-59.315,66.053-3.141,9.965.686,16.683,10.328,18.129C46.346,334.678,142.2,325.756,241.5,311.5c24.75-3.554,62.775-8.729,84.5-11.5,70.388-8.978,160.706-24.3,164.277-27.874,2.213-2.213-1.173-3.455-11.495-4.216-5.655-.417-14.332-1.241-19.282-1.832s-47.9-3.121-95.454-5.622c-53.55-2.816-86.948-4.957-87.752-5.624-.782-.649-3.577-.856-7.046-.521-6.724.65-28.018-.23-109.248-4.518-76.058-4.015-80.539-4.14-85.3-2.388m416.517,37.521c-2.678,3.622-9.772,7.077-14.531,7.077-3.936,0-4.956,1.461-1.733,2.484,4.68,1.486,14.093-2.929,18.027-8.454,2.683-3.767.99-4.83-1.763-1.107M13.483,341.036c2.258,7.383,15.544,12.577,23.935,9.357,3.124-1.2,1.5-2.138-2.856-1.647-7.246.817-10.98-.417-16.624-5.492-4.455-4.005-5.1-4.326-4.455-2.218m72.266,23.43c-2.473,1.888-4.825,4.243-5.227,5.233-1.913,4.717-2.353,7.615-1.5,9.869,1.415,3.722,2.571,2.9,2.149-1.535-.355-3.716,2.694-10.963,4.657-11.069a14.606,14.606,0,0,0,3.526-2.374c4.614-3.774,1.319-3.887-3.609-.124M276.5,378.574c-42.924,19.047-76.2,30.668-117.5,41.032-20.354,5.108-22.8,7.065-4.258,3.411,34.689-6.838,125.184-39.616,129.744-46.995.862-1.394,1.023-1.445-7.986,2.552m-154.08,2.312c-3.165,1.929-6.42,7.427-6.42,10.842,0,1.718-.727,1.917-6.75,1.849-22.067-.251-28.177,26.291-8.578,37.26,1.662.929,1.6,1.181-.827,3.43-5.909,5.477-3.786,15.368,4.3,20.046,10.262,5.934,22.925,7.388,28.868,3.316,3.235-2.217,3.714-2.282,7.348-1,11.894,4.2,25.688-1.338,30.715-12.324,2.53-5.529,2.438-6.683-.183-2.3-7.3,12.189-20.481,16.878-31.76,11.3-4.07-2.014-4.216-2.02-5.192-.2C128.345,463.567,99,454.435,99,442.227c0-5.643,3.633-8.607,9.453-7.712l4.047.622-6.548-4c-7.818-4.779-11.753-8.5-13.592-12.852-5.695-13.474,8.486-27.425,21.862-21.508l4.56,2.017-.5-3.756c-1.418-10.571,9.376-17.592,18.5-12.031,3.94,2.4,4.918,2.534,3.171.43-3.76-4.53-12.25-5.765-17.525-2.548M137,408.571c-3.575,1.307-7.936,2.388-9.691,2.4-3.629.031-5.245,1.6-2.535,2.455C128.138,414.5,145,409.179,145,407.051c0-1.356-.283-1.3-8,1.52m94.5,8.843c-20.928,8.9-36.947,13.622-53.092,15.648-13.01,1.634-14.873,3.342-2.908,2.668,16.043-.9,60.512-15,67.464-21.385,2.593-2.382-.758-1.484-11.464,3.069" fill="#070606" stroke="#070606" stroke-width="1" fill-rule="evenodd"/>
    </g>
  </g>
</svg>
