<svg xmlns="http://www.w3.org/2000/svg" xmlns:xlink="http://www.w3.org/1999/xlink" width="512" height="512" viewBox="0 0 512 512">
  <defs>
    <clipPath id="clip-illustration3">
      <rect width="512" height="512"/>
    </clipPath>
  </defs>
  <g id="illustration3" clip-path="url(#clip-illustration3)">
    <g id="Group_444-vectormaker-co" data-name="Group 444-vectormaker-co" transform="translate(13.866 -216.54)">
      <g id="Group_444-vectormaker-co_1_" data-name="Group 444-vectormaker-co (1)" transform="translate(-26 218)">
        <path id="Path_20" data-name="Path 20" d="M364.333,22.462c-17.365,3.881-25.753,15.7-26.991,38.038-1.1,19.8,5.425,34.855,17.987,41.518l4.364,2.316-.09,14.583c-.126,20.233,4.253,30.4,15.587,36.18l3.827,1.952-.408,6.726c-.224,3.7-.452,7.857-.508,9.24-.084,2.09-.963,2.822-5.194,4.324-2.8.995-5.242,1.659-5.426,1.476s-3.275-7.865-6.871-17.07c-9.994-25.586-27.131-57.912-39.662-74.815C304.584,64.856,277.2,47.52,247.56,40.48c-39.675-9.426-66.879-2.577-72.487,18.248a21.834,21.834,0,0,1-3.063,6.532c-4.876,6.2-12.835,32.768-11.634,38.839.5,2.526.324,2.625-6.144,3.5-7.677,1.039-7.963,1.471-8.132,12.268-.1,6.1-.2,6.341-2.35,5.763a18.952,18.952,0,0,0-3.76-.616c-1.035-.01-1.506-1.034-1.5-3.264.009-2.805-.367-3.293-2.74-3.566-2.682-.309-2.75-.475-2.75-6.75,0-5.747-.212-6.434-1.981-6.434-2.431,0-3.428,3.345-2.652,8.894.471,3.369.251,4.093-1.4,4.618-2.308.733-4.333,4.079-3.609,5.965.344.9-.594,1.449-2.923,1.721l-3.43.4v-4.865c0-6.79-.525-7.516-16.9-23.34L85.5,84.286,85,76.472c-.541-8.463-2.309-10.95-3.383-4.76-.787,4.535.026,96.676,1,112.9L83.294,196l-5.4,0c-6.607,0-11.9,2.8-11.9,6.278,0,2.066-.7,2.431-6.552,3.434-7.721,1.323-11.166,3.311-12.086,6.977-1.5,5.975,5.573,11.778,13.388,10.984,3.949-.4,4.25-.26,4.25,1.991,0,3.247,3.9,6.96,8.635,8.226,4.768,1.275,65.7,3.173,92.865,2.893,27.986-.288,37.5,2.446,41.724,11.987,2.159,4.881,2.166,4.555-.8,39.226-1.834,21.436-1.809,55.385.052,69,5.139,37.589,21.024,58.5,51.039,67.188,11.092,3.211,40.912,3.31,52.237.174A60.86,60.86,0,0,1,318,422.59c0,.544-9.928,42.4-11.31,47.676-1.685,6.439-1.61,9.234.248,9.234,2.007,0,3.931-6.445,9.9-33.163l5.623-25.164,7.9-3.262a152.681,152.681,0,0,0,29.322-16.963l5.371-4.055,18.222,1.151c10.022.632,31.921.994,48.665.8l30.442-.347,1.772,3.032c7.015,12,5.51,38.686-2.764,49.016q-2.444,3.052-4.892,6.1c-1.689,2.1-2.08,4.462-2.511,15.169-.572,14.236-.577,14.2,1.731,11.89,1.233-1.232,1.834-4.247,2.282-11.44.653-10.478,1.453-12.718,6.6-18.473,8.376-9.369,11.117-37.873,4.857-50.5l-3.042-6.137,2.542-.585c1.4-.321,8.841-.865,16.541-1.208s14.769-1.021,15.708-1.505c5.256-2.71,7.144,25.84,2.866,43.352l-1.883,7.708,2.887,13.619C508.813,476.151,510.006,480,511.73,480c1.85,0,1.1-7.219-2.427-23.428l-2.6-11.928,1.9-7.072c3.807-14.2,1.764-43.343-3.17-45.236-1.217-.467-1.255-.846-.209-2.108,1.912-2.3,1.448-14.36-.951-24.728a139.225,139.225,0,0,1-2.706-18c-1.532-22.163-14.727-85.21-23.717-113.327-5.713-17.869-14.9-33.525-25.056-42.685-4.7-4.237-19.105-12.29-24.524-13.707-2.623-.686-3.032-3.326-3.867-24.961-.664-17.2-.621-17.784,1.584-21.5A136.6,136.6,0,0,0,432.11,118l3.855-9.5.017,10.526c.06,35.924,7.541,48.771,27.83,47.8,25.9-1.245,32.453-17.247,22.3-54.421-5.078-18.591-6.549-24.754-10.12-42.4-1.168-5.775-2.929-12.323-3.913-14.551-5.953-13.483-22.365-20.787-35.942-16-3.951,1.394-4.161,1.364-5.248-.75-4.124-8.024-9.993-11.091-20.81-10.874-6.532.131-10.911-.491-19.5-2.768-14.451-3.832-18.8-4.262-26.244-2.6M160.614,31.75c-3.757,12.624-3.8,19.864-.1,16.16,1.538-1.538,4.722-15.711,3.847-17.127s-3.222-.816-3.752.967m-39.129,3.274C120.458,36.686,124.975,49,126.613,49c2.6,0,2.689-3,.283-9.056-2.235-5.626-3.989-7.221-5.411-4.92m77.444,7.343c-8.347,2.251-14.486,6.717-18.264,13.286-.365.635,1.867-.217,4.96-1.892C191.476,50.592,205,48.489,205,50.749c0,1.128-3.283,2.216-6.747,2.237-4.045.025-14.953,5.939-18.793,10.189-9.058,10.027-17.261,38.381-12.9,44.6,3.98,5.683,9.158,1.19,14.573-12.644,6.412-16.383,18.946-25.344,30.935-22.115,7.981,2.149,10.2,9.19,5.822,18.5-2.32,4.937-5.543,7.737-17.032,14.8-10.379,6.378-11.275,10.282-2.935,12.781,4.153,1.245,11.531.444,10.549-1.145-.762-1.232-4.792-1.226-6.027.009-1.7,1.7-4.134-.594-2.838-2.672,2.652-4.252,13.7-3.125,12.029,1.227-.694,1.81,14.021-4.491,19.843-8.5,7.361-5.065,13.423-13.7,16.512-23.517,1.387-4.409,4.615-8.5,6.707-8.5,1.032,0,.907.873-.538,3.75a78.486,78.486,0,0,0-3.552,8.855,52.568,52.568,0,0,1-4.637,9.785c-3.684,5.808-3.7,5.508.6,9.664a145.762,145.762,0,0,1,9.639,11.142c3.339,4.234,6.684,7.932,7.432,8.219A2.347,2.347,0,0,1,265,129.469c0,.941.907,1.531,2.354,1.531,5.318,0,10.3,8.971,7.935,14.279-.764,1.711.041,4.283,3.952,12.637,8.321,17.776,26.739,78.141,31.366,102.8,1.032,5.5,1.864,4.656,6.89-7.01,17.341-40.245,32.634-64.594,44.815-71.351,4.979-2.762-28.512-70.8-46.876-95.229-20.458-27.215-62.006-46.283-100.362-46.06-6.366.038-13.631.623-16.145,1.3M92.639,54.5c-.611,1.593,8.982,7.854,10.549,6.886,2.175-1.344.5-4.139-3.715-6.185-5.358-2.6-6.076-2.676-6.834-.7M366.991,75.667c0,2.658-.3,7.266-.658,10.24-.47,3.921-.336,5.213.488,4.7,1.516-.937,5.406,1.209,4.907,2.708-.216.65-1.706,1.409-3.31,1.687-2.64.456-2.948.922-3.232,4.885-.291,4.054-.192,4.259,1.319,2.748,2.4-2.4,5.72-.417,5.3,3.179-.28,2.42-.689,2.671-4.172,2.559l-3.862-.124.431,13.124c.483,14.711,2.168,19.933,8.464,26.228,5.661,5.661,18.938,8.034,29.736,5.315a24.092,24.092,0,0,1,7.193-.706l2.9.375-3,1.33c-1.65.732-3.9,1.717-5,2.189-3.451,1.481-15.115,2.92-18.377,2.268L383,157.75v17.037l4.25-.995c4.54-1.063,23.833-.375,29.836,1.064l3.585.859-.411-25.607c-.851-52.961-2.191-63.976-5.835-47.96s-8.713,14.421-10.034-3.136c-.893-11.866-1.983-13.133-15.891-18.465-5.5-2.109-12.25-5-15-6.435s-5.337-2.753-5.75-2.94-.754,1.836-.759,4.5m-166.3,2.6c-3.107,1.039-3.1,3.069.037,10.984,3.271,8.249,7.346,3.344,4.662-5.61-1.871-6.243-1.923-6.3-4.7-5.374m8.568,2.234c1.25,4.071,1.761,4.238,4.321,1.41,1.856-2.052,1.855-2.117-.036-3.5-3.731-2.728-5.5-1.866-4.285,2.09m-148.552.124c-1.923,1.923-.666,4.5,2.041,4.192,1.978-.227,2.75-.878,2.75-2.316,0-2.009-3.347-3.319-4.791-1.876m131.556,3.654C189.778,87,187,92.358,187,94.435c0,3.2,5.447,7.921,8.314,7.2,3.822-.959,4.179-4.144,1.394-12.416l-2.413-7.163-2.03,2.221m20.485,3.411A2.464,2.464,0,0,0,211,89.938c0,2.609-3.83,7.062-6.073,7.062A1.742,1.742,0,0,0,203,98.619c0,3.086,9.3-5.065,11.218-9.837.4-.98.62-1.73.5-1.666s-1.005.322-1.968.573m175.5,5.1c-3.5.547-3.024,4.212.55,4.212a6.568,6.568,0,0,1,3.842,1.042c.724.724,1.435.57,2.323-.5,2.3-2.778-1.611-5.551-6.715-4.754M168.537,94.25a37.25,37.25,0,0,0-.816,4.75,24.139,24.139,0,0,1-1.176,5.25c-.6,1.373-.275,1.75,1.488,1.75,2.821,0,4.894-2.653,4.935-6.316.054-4.8-3.312-8.93-4.431-5.434m13.87,9.274-2.044,4.408,4.2.63c5.219.783,10.011-1.162,6.843-2.777a20.185,20.185,0,0,1-4.434-3.822l-2.525-2.847-2.044,4.408M376.656,99.75a29.808,29.808,0,0,0-1.172,5.5c-.613,4.094-1.031,4.75-3.026,4.75-3.147,0-5.458,2.547-5.458,6.015,0,3.533,3.163,5.985,7.723,5.985,4.384,0,4.246-2.168-.276-4.324-3.841-1.831-3.817-4.058.032-3.092,3.065.769,4.343-1.587,5.174-9.538.535-5.115.388-6.046-.952-6.046a2.7,2.7,0,0,0-2.045.75M86,102.385c0,.931,1.83,1.613,5.584,2.082,6.035.754,6.983.454,6.071-1.924-.8-2.1-11.655-2.243-11.655-.158m299.12,2.391A3.536,3.536,0,0,0,388.491,110c2.953,0,3.883-1.374,3.084-4.557a3.522,3.522,0,0,0-6.455-.667m-150.91,6.218c-7.892,5.7-23.558,12.294-30.46,12.813l-5.75.433v17.912c0,13.453.311,18.008,1.25,18.3.688.215,2.825.651,4.75.968l3.5.577-.344-8.849-.344-8.849,3.647-3.005c4.8-3.954,13.98-7.137,16.33-5.66,1.855,1.165,2.832,14.411,3.089,41.9L230,190.577l14.769-.038c14.758-.039,14.775-.036,21.556,3.3,15.7,7.729,21.713,29.295,14.742,52.9-2.7,9.13-2.825,6.622,1.928,37.761,1.091,7.15,2.468,19.975,3.061,28.5s1.313,17.5,1.6,19.954l.526,4.454,1.924-2.454c9.183-11.708,12.063-18,9.522-20.81-3.5-3.871-3.072-7.063,3.244-24.051l6.05-16.273L302.9,249.16c-10.718-43.887-18.372-68.882-27.169-88.73-4.928-11.118-5.606-11.491-12.436-6.856a13,13,0,0,1-13.6.822c-3.873-1.941-13.7-12.045-13.7-14.087,0-2.938,5.506-7.112,10.337-7.837,2.83-.424,4.663-1.216,4.663-2.013,0-.723,1.107-2.185,2.461-3.249l2.46-1.936-7.576-9.137c-4.167-5.025-7.862-9.1-8.211-9.051a48.443,48.443,0,0,0-5.924,3.908M86,116.376c0,.951,1.777,1.53,5.75,1.874,6.434.558,6.74.469,5.9-1.707C96.854,114.455,86,114.3,86,116.376m-39,4.747a17.534,17.534,0,0,0-4.581,2.953c-2.067,1.941-2.1,1.94-3.906-.06-2.418-2.673-8.4-2.7-11.244-.053-2.6,2.424-2.9,12.143-.488,15.827,3.279,5.005,13.413,6.921,19.582,3.7,1.576-.822,5.4-1.5,8.5-1.5,6.4,0,11.483-2.468,13.3-6.449C70.425,130.577,65.821,125,59.453,125,58.1,125,57,124.562,57,124.026c0-.987-5.229-4.079-6.7-3.963a18.776,18.776,0,0,0-3.3,1.06m117.666-.456c-1.218,1.218-.689,3.333.833,3.333.833,0,1.5-.889,1.5-2,0-1.992-1.066-2.6-2.333-1.333M172,121.5c0,.833.889,1.5,2,1.5s2-.667,2-1.5-.889-1.5-2-1.5-2,.667-2,1.5m-17,1c0,.833.889,1.5,2,1.5s2-.667,2-1.5-.889-1.5-2-1.5-2,.667-2,1.5m-26.25.189A2.307,2.307,0,0,0,127,124.68c0,.988.563,1.318,1.582.927a11.721,11.721,0,0,1,3.5-.607A1.753,1.753,0,0,0,134,123.5c0-1.465-1.726-1.732-5.25-.811m255.624,4.622a21.6,21.6,0,0,1-5.811,3.353c-3.513,1.149-4.519,3.273-1.879,3.964a5.146,5.146,0,0,1,2.855,2.684c2.555,5.819,12.954.367,12.275-6.436-.5-4.989-3.817-6.579-7.44-3.565m-197.707.356c-1.471,1.47-.462,2.241,3.762,2.875,5.2.78,7.253-.016,5.5-2.131-1.183-1.426-8.028-1.976-9.259-.744m-13.417,4.051c-2.017.724-1.433,3.282.75,3.282,1.1,0,2-.648,2-1.441,0-1.739-1.058-2.448-2.75-1.841M86,133.428c0,.979,1.707,1.641,5.424,2.106,6.171.771,8.321.069,6.5-2.123C96.284,131.433,86,131.447,86,133.428m69.688-.782A1.88,1.88,0,0,0,157.073,136c1.4,0,1.968-.543,1.75-1.667-.357-1.841-2.064-2.759-3.135-1.687M164,133.5a1.5,1.5,0,1,0,1.5-1.5,1.5,1.5,0,0,0-1.5,1.5m-46,4c0,1.345,1.64,1.524,11.75,1.282,15.355-.368,15.181-2.186-.246-2.564-9.887-.242-11.5-.062-11.5,1.282m68,2.9c0,.939,1.481,1.517,4.5,1.758,3.762.3,4.5.069,4.5-1.4,0-1.416-.874-1.757-4.5-1.757-3.189,0-4.5.408-4.5,1.4m36,3.1c0,.825.45,1.5,1,1.5s1-.675,1-1.5-.45-1.5-1-1.5-1,.675-1,1.5m-56.75.162c-1.758.71-1.562,3.338.25,3.338.833,0,1.5-.889,1.5-2s-.113-1.964-.25-1.921-.812.306-1.5.583m7.417.005A1.871,1.871,0,0,0,174,147a1.768,1.768,0,0,0,2-2,1.871,1.871,0,0,0-3.333-1.333M214,145c0,1.111.667,2,1.5,2s1.5-.889,1.5-2-.667-2-1.5-2-1.5.889-1.5,2m-59,.865c0,1.4.612,1.965,2.032,1.858,2.468-.186,2.23-3.049-.293-3.535-1.187-.228-1.739.3-1.739,1.677m-37,.488c0,.964,2.2,1.54,7.651,2,15.639,1.322,20.828.553,14.8-2.192-3.766-1.716-22.453-1.556-22.453.192m70,3.754c0,1.51.448,1.935,1.582,1.5a11.721,11.721,0,0,1,3.5-.607A1.753,1.753,0,0,0,195,149.5c0-1.048-1.056-1.5-3.5-1.5-2.893,0-3.5.366-3.5,2.107M86,150.45c0,1.23,1.256,1.55,6.083,1.55,8.078,0,7.729-2.369-.412-2.8-4.584-.242-5.671,0-5.671,1.25m129.531,1.843c-.428.986-.5,2.074-.155,2.417,1.016,1.015,1.835-.411,1.367-2.382-.414-1.747-.468-1.748-1.212-.035M223,154.441a2.645,2.645,0,0,0,1,2.059c.55.34,1-.309,1-1.441S224.55,153,224,153s-1,.648-1,1.441m-58.333,1.226c-1.218,1.218-.689,3.333.833,3.333.833,0,1.5-.889,1.5-2,0-1.992-1.066-2.6-2.333-1.333M172,156.5c0,.833.889,1.5,2,1.5s2-.667,2-1.5-.889-1.5-2-1.5-2,.667-2,1.5m-52,1.136c0,1.7,1.977,2.12,13.75,2.9,8.984.6,10.25.484,10.25-.909,0-2.014-2.191-2.456-14.25-2.878-7.229-.253-9.75-.024-9.75.887m35-.209c0,.927.855,1.573,2.083,1.573,2.437,0,2.093-2.337-.416-2.823a1.249,1.249,0,0,0-1.667,1.25m60,6.073c0,.825.45,1.5,1,1.5s1-.675,1-1.5-.45-1.5-1-1.5-1,.675-1,1.5m-129,.911c0,1.023,1.72,1.519,6.25,1.8,6.4.4,8.489-.207,7.3-2.125-1.06-1.714-13.554-1.415-13.554.324m87.25,2.307c-2.017.724-1.433,3.282.75,3.282,1.1,0,2-.648,2-1.441,0-1.739-1.058-2.448-2.75-1.841m-17.562.928A1.88,1.88,0,0,0,157.073,171c1.4,0,1.968-.543,1.75-1.667-.357-1.841-2.064-2.759-3.135-1.687M164,168.5a1.5,1.5,0,1,0,1.5-1.5,1.5,1.5,0,0,0-1.5,1.5m59.638,0c-.316.825-.139,1.5.393,1.5s.969-.675.969-1.5-.177-1.5-.393-1.5-.652.675-.969,1.5m-20.955,1.15c-1.054,1.055-.808,22.155.267,22.819,2.15,1.329,3.3-3.909,2.8-12.723-.477-8.362-1.484-11.678-3.067-10.1m-82.224,1.417c-1.04,1.682-.56,1.786,11.676,2.517,11.871.71,16.192-.369,10.36-2.586-3.552-1.35-21.193-1.3-22.036.069M195,171.5c0,.833.889,1.5,2,1.5s2-.667,2-1.5-.889-1.5-2-1.5-2,.667-2,1.5m21,3.083c0,1.766,2.153,1.459,2.771-.4.218-.654-.317-1.188-1.188-1.188A1.588,1.588,0,0,0,216,174.583M98.688,177.646A1.88,1.88,0,0,0,100.073,181c1.4,0,1.968-.543,1.75-1.667-.357-1.841-2.064-2.759-3.135-1.687M107,178.5a1.5,1.5,0,1,0,1.5-1.5,1.5,1.5,0,0,0-1.5,1.5m-18,1c0,.833.889,1.5,2,1.5s2-.667,2-1.5-.889-1.5-2-1.5-2,.667-2,1.5m76.25-.838c-1.758.71-1.562,3.338.25,3.338.833,0,1.5-.889,1.5-2s-.113-1.964-.25-1.921-.812.306-1.5.583m7.25.338c-.837,1.354.292,3,2.059,3,.793,0,1.441-.9,1.441-2a1.856,1.856,0,0,0-3.5-1m23.5.5c0,.825.45,1.5,1,1.5s1-.675,1-1.5-.45-1.5-1-1.5-1,.675-1,1.5M155,181c0,2.171.738,2.452,2.878,1.1,1.614-1.021.651-3.1-1.437-3.1-.793,0-1.441.9-1.441,2m69.531.293c-.428.986-.5,2.074-.155,2.417,1.016,1.015,1.835-.411,1.367-2.382-.414-1.747-.468-1.748-1.212-.035M122.7,183.634c-1.892,1.892.189,2.366,10.384,2.366,8.421,0,10.984-.3,10.669-1.25-.453-1.366-19.778-2.391-21.053-1.116m94.785,1.659c-.789,1.936-.173,3.131,1.319,2.561.511-.2.587-1.254.17-2.354-.707-1.865-.808-1.879-1.489-.207m-118.8,1.353A1.88,1.88,0,0,0,100.073,190c1.4,0,1.968-.543,1.75-1.667-.357-1.841-2.064-2.759-3.135-1.687M107,187.969c0,1.339.48,1.784,1.5,1.393a2.371,2.371,0,0,0,1.5-1.969A1.454,1.454,0,0,0,108.5,186a1.788,1.788,0,0,0-1.5,1.969M89,188.5c0,.833.889,1.5,2,1.5s2-.667,2-1.5-.889-1.5-2-1.5-2,.667-2,1.5m108.079,1.083c.048,1.165.285,1.4.6.6a2.013,2.013,0,0,0-.079-1.917c-.332-.332-.568.258-.525,1.312m-32.412,1.084c-1.218,1.218-.689,3.333.833,3.333.833,0,1.5-.889,1.5-2,0-1.992-1.066-2.6-2.333-1.333M172,191.5c0,.833.889,1.5,2,1.5s2-.667,2-1.5-.889-1.5-2-1.5-2,.667-2,1.5m-17,1c0,.833.889,1.5,2,1.5s2-.667,2-1.5-.889-1.5-2-1.5-2,.667-2,1.5m76.83,3.174c-1.31.346-1.742,1.913-2,7.248l-.33,6.806,3-2.246c4.51-3.376,9.1-5.482,11.95-5.482,4.112,0,2.961,1.762-3.2,4.9-5.775,2.941-12.844,9.025-15.893,13.678-1.954,2.983-3.823,2.817-13.357-1.187-8.557-3.594-27.686-3.928-25.535-.447.3.487-.018,1.091-.709,1.342-6.915,2.515,29.988,23.838,42.494,24.554,7.772.444,8.553,1.4,2.5,3.07-4.489,1.237-12.685.265-16.929-2.006-1.878-1.005-2.034-.921-1.342.73,1.677,4,1.666,12.8-.043,33.414-5.718,68.965-.028,104.262,20.064,124.48,31.355,31.552,104.8,20.211,139.1-21.477,6.641-8.072,6.643-8.107.725-10.123-19.967-6.8-49.018-27.667-61.854-44.425l-5.658-7.388-4.827,7.193a82.1,82.1,0,0,1-8.4,10.638L288,342.392l-.015,18.054c-.014,16.631-.724,22.148-2.607,20.266-.4-.4-1.086-13.391-1.522-28.864-.829-29.481-3.638-61.831-6.917-79.682-2.424-13.19-2.431-19-.034-26.881,6.846-22.509.027-44.258-15.3-48.81-4.667-1.386-25.449-1.945-29.773-.8m-12.58.988c-2.869,1.158-1.322,3.6,1.875,2.963a34.707,34.707,0,0,1,4-.625c.481,0,.875-.675.875-1.5,0-1.481-3.944-1.97-6.75-.838m-109.791,3.4c-.852,1.378.079,2.27,2.561,2.453,1.306.1,1.98-.478,1.98-1.687,0-2.009-3.417-2.586-4.541-.766M72.5,200.71c-1.952.509-3.454,2.034-3.485,3.54-.008.412,3.135.75,6.985.75,6.333,0,7-.19,7-2,0-1.4-.671-2-2.25-2.014a27.639,27.639,0,0,1-4.25-.4,10.756,10.756,0,0,0-4,.129m-8.032,9.272c-9.011.8-12.468,2.187-12.468,5,0,4.644,9.889,6.578,18.5,3.618,4.789-1.646,90.128-3.174,102.646-1.837,7.042.751,7.846.645,10.163-1.348l2.516-2.165-48.162-.478c-28.738-.286-49.171-.884-50.663-1.484-3.809-1.531-13.6-2.1-22.532-1.3m152.226,2.951-7.807.567,5.976,2.63,5.977,2.631,3.276-3.381c1.808-1.865,2.628-3.3,1.83-3.2s-4.959.439-9.252.75M99.5,220.982c-27.892.591-30.5.942-30.5,4.1,0,4.075,3.6,4.893,26.1,5.924,16.782.768,94.907,1.9,94.9,1.375,0-.065-1.792-1.3-3.981-2.752-2.252-1.49-4.262-3.752-4.627-5.206a5.579,5.579,0,0,0-3.084-3.5c-2.522-.959-31.966-.938-78.808.055m93.969,1.518c-.258.825-.667,2.142-.91,2.927a2.923,2.923,0,0,0,1.109,2.712c1.815,1.507,4.781-1.527,3.854-3.942a8.048,8.048,0,0,1-.522-2.279c0-1.527-3.028-1.028-3.531.582M423.743,255c-.359,1.375-.934,10.375-1.28,20-1.376,38.345-6.88,66.036-17.579,88.433-4.15,8.689-7.4,11.584-14.041,12.5-6.657.92-4.1,2.581,2.779,1.8,6.035-.68,9.728-4.261,14.169-13.739,10.857-23.172,16.546-50.613,17.764-85.693.576-16.559-.377-28.812-1.812-23.307m71.646,158.751c-.086,8.386-.8,13.569-3.25,23.576-1.726,7.054-3.139,14.6-3.139,16.767,0,4.514,3.564,22.054,5.315,26.156,3.335,7.816,3.419-3.246.139-18.55l-1.885-8.8,2.26-8.7c4.562-17.562,6-30.663,4.118-37.45-2.013-7.249-3.44-4.44-3.558,7m-45.706,1.5c-.918,13.725-5.759,27.538-12.724,36.3-1.652,2.08-3.18,4.719-3.394,5.865-1.977,10.577-4.067,26.774-3.5,27.124,2.082,1.287,5.713-9.19,6.588-19.007.513-5.758,1.213-7.849,3.863-11.533,8.806-12.241,14.987-33.469,12.934-44.415-1.288-6.868-3.112-4.125-3.767,5.665m31.257-8c-.033.688-.016,5.75.037,11.25.11,11.213-1.811,20.3-7.019,33.2-3.879,9.608-4.22,26.276-.721,35.3l.969,2.5.915-2.387c.5-1.313.662-7.662.352-14.109-.549-11.4-.479-11.937,2.535-19.523,6.189-15.581,9.05-36.938,6.017-44.916-1.012-2.661-2.98-3.5-3.085-1.315m-86.975,6.5c-2.794,7.376-5.49,20.5-7.409,36.071-.836,6.776-2.253,16.451-3.149,21.5-2.027,11.407-2.169,13.592-.907,13.9,2.212.531,5.472-12.64,7.9-31.921,2.639-20.939,4.5-31.011,7.042-38.172,3.215-9.043-.08-10.345-3.479-1.374m26.7-4.083c-.367.366-.667,2.137-.667,3.934,0,4.316-2.16,14.4-5.977,27.912C408.657,460.5,405.253,485,407.981,485c.539,0,1.252-1.238,1.583-2.75s.827-3.425,1.1-4.25,1.37-6.644,2.436-12.932,3.532-17.311,5.479-24.5c5.99-22.108,6.91-35.726,2.088-30.9m-77.4,6.594c-7.49,9.707-20.559,72.2-13.425,64.189.466-.523,1.616-5.45,2.557-10.95a343.937,343.937,0,0,1,9.587-40c1.536-4.95,3.024-10.012,3.307-11.249.6-2.6-.627-3.8-2.026-1.99M359,418.511c0,9.274,13.766,25.328,19.75,23.032,1.182-.454-.294-2.383-5.991-7.827-6.514-6.224-7.792-8.02-9.231-12.97-1.93-6.639-4.528-7.921-4.528-2.235m.522,18.739c-.284,1.238-1.416,8.171-2.515,15.408s-2.583,16.012-3.3,19.5c-1.995,9.747-.492,13.246,2.617,6.092,2.474-5.691,7.457-38.768,6.3-41.793-.838-2.184-2.515-1.755-3.1.793" fill="#d3cfce" stroke="#d3cfce" stroke-width="1" fill-rule="evenodd"/>
        <path id="Path_21" data-name="Path 21" d="M361.5,23.4c-16.227,5.132-23.856,17.934-23.9,40.1-.038,20.039,5.892,32.016,19.277,38.938l3.38,1.748-.69,10.315c-1.391,20.757,5.935,38.329,17.153,41.144,2.151.54,2.276,1.05,2.262,9.213-.019,10.3-.086,10.429-6.609,12.907l-5.116,1.944-2.745-7.1q-3.373-8.72-6.765-17.432c-7.871-20.213-26.137-53.6-37.777-69.048-21.851-29-59.132-47.39-98.973-48.823-26.262-.945-39.69,4.638-44.51,18.506A55.106,55.106,0,0,1,173.439,63c-7.145,12.575-11.409,25.454-12.167,36.75l-.554,8.25-5.609.015c-7.579.021-7.824.3-8.648,9.738L145.742,126h-3.735c-3.67,0-3.733-.066-3.621-3.75.1-3.381-.157-3.781-2.636-4.066-2.857-.329-3.28-1.744-2.791-9.335.094-1.458-.348-2.971-.981-3.363-2.155-1.331-3.309,1.431-3.094,7.4.2,5.531.05,5.982-2.084,6.285-1.778.252-2.413,1.12-2.8,3.826-.462,3.232-.793,3.524-4.332,3.815-3.647.3-3.823.179-3.644-2.5.612-9.159.967-8.591-15.524-24.8L85,84.282l-.118-5.391c-.171-7.758-1.154-11.806-2.4-9.891-1.14,1.747-1.175,59.941-.06,100.25L83.158,196l-3.829.006c-8.383.012-14.481,3.55-12.958,7.519.381.992-.765,1.537-4.173,1.982-11.954,1.563-16.679,5.5-14.09,11.754,1.749,4.222,4.946,5.882,11.325,5.882,5.043,0,5.57.205,5.6,2.178.134,9.165,10.588,10.559,79.968,10.665,45.479.069,55.018,1.493,61.483,9.177,3.735,4.438,4.016,8.633,2.1,31.337-8.111,96.314,4.237,133.435,48.94,147.128,11.986,3.671,39.857,4.025,52.723.669,5.134-1.34,7.745-1.647,7.734-.909-.008.611-2.708,12.347-6,26.08C306.127,473.907,305.108,480,306.878,480c2.076,0,7.044-18.957,14.632-55.836.517-2.512,1.424-3.594,3.671-4.377,9.58-3.34,25.074-12.18,37.9-21.623,1.506-1.109,6.037-1.127,26.618-.106,23.464,1.164,64.8.766,70.052-.674,1.988-.545,2.625.179,5.5,6.25,6.543,13.814,3.864,38.338-5.349,48.983a35.37,35.37,0,0,0-4.929,6.962c-.95,2.5-1.532,24.192-.673,25.052,1.22,1.219,2.858-4.18,3.318-10.932.8-11.817,1.29-13.468,5.342-18.149,10.767-12.44,13.267-38.474,5.208-54.236-1.985-3.882-2.014-4.224-.4-4.7,2.276-.669,23.495-2.319,29.12-2.266,9.141.088,11.438-8.9,7.181-28.112a152.015,152.015,0,0,1-2.616-17.739c-1.549-20.52-12.479-74.694-21.562-106.869-9.647-34.176-23.726-52.565-47.238-61.7l-7.147-2.776-.638-9.328c-1.65-24.128-1.142-32.957,2.26-39.238a128,128,0,0,0,6.25-14.52l3.128-8.755.246,16.592c.5,34.073,6.8,45.065,25.822,45.086,12.533.014,22.525-6.335,26.5-16.837,3.2-8.442,2.286-18.42-3.566-39.157-2.562-9.075-6.219-24.15-8.129-33.5-4.187-20.5-7.323-27.845-14.088-33.01-7.909-6.039-17.942-7.933-26.338-4.971-2.368.836-4.587,1.174-4.931.75s-1.867-2.466-3.386-4.54c-4.646-6.344-6.639-7.121-20.056-7.825a84.235,84.235,0,0,1-20.934-3.269c-9.792-2.912-19.4-3.366-26.138-1.236M159.242,38.25c-1.954,8.455-1.474,12.017,1.31,9.707,1.481-1.229,3.917-14.291,3.075-16.487-1.221-3.182-2.559-1.113-4.385,6.78m-36.977-3.414C120.732,35.784,124.774,49,126.6,49c2.242,0,2.355-3.047.308-8.272-2.4-6.136-3.007-6.9-4.64-5.892m82.611,6.229c-11.075,1.5-20.05,6.5-23.442,13.062l-1.494,2.889,5.9-3.091a32.076,32.076,0,0,1,11.892-3.634c7.545-.684,9.478,1.218,2.249,2.212-12.606,1.734-23.354,10.615-28.394,23.461-6.5,16.557-8.271,29.349-4.584,33.036,4.733,4.733,9.1.029,15.916-17.166,4.7-11.844,14.1-18.805,25.411-18.824,17.612-.03,15.169,19.542-3.827,30.667-8.926,5.227-12.5,8.2-12.5,10.389,0,4.279,10.339,7.42,16.5,5.012,3.119-1.219-1.406-2.374-5.956-1.52-1.949.365-3.537.277-3.529-.2.089-4.978,11.094-6.48,11.8-1.61l.315,2.169,4.955-1.953c17.685-6.971,28.26-17.133,31.83-30.586,1.094-4.125,4.495-9.381,6.069-9.381,1.42,0-5.846,18.941-9.056,23.606l-3.029,4.4,5.175,5.245a145.314,145.314,0,0,1,9.61,11c4.283,5.555,4.351,5.75,1.99,5.75a5.144,5.144,0,0,1-4.084-2.5c-2.97-4.532-13.661-16.5-14.741-16.5-.583,0-2.433,1.156-4.111,2.568-7.723,6.5-28.7,14.965-34.987,14.124-3.329-.445-3.75-.26-3.749,1.653,0,1.987-.427,2.128-5.5,1.812-5.025-.312-5.5-.161-5.5,1.75,0,2.02,2.52,2.63,9.75,2.362.944-.035,1.25,3.457,1.25,14.265v14.311l3.25.982c8.177,2.472,7.633,3.024,7.1-7.193l-.478-9.134,4.315-3.146c4.807-3.5,12.991-6.607,15.2-5.761,1.723.661,2.215,5.641,2.456,24.907.1,7.7.459,17.7.8,22.224l.629,8.224,14.114-.079c12.124-.068,14.913.223,19.772,2.063,16.8,6.362,24.071,29.272,16.8,52.923-2.345,7.626-2.454,13.356-.454,23.806,2.583,13.505,4.639,31.157,5.862,50.339l1.179,18.5,5.579-7.5c8.812-11.847,9.41-13.364,6.707-17.02-3.265-4.416-2.776-7.783,3.611-24.856l5.752-15.376-6.536-26.624c-11-44.8-20.476-74.877-28.8-91.412-2.616-5.193-2.759-5.945-1.388-7.316,4.191-4.191,21.214,44.383,34.112,97.334,2.71,11.127,5.17,20.24,5.467,20.25s2.27-4.142,4.385-9.23c6.019-14.476,21.973-46.593,26.6-53.537,4.46-6.7,13.573-16.558,18.418-19.922l2.937-2.04-4.8-11.875c-15.659-38.723-37.916-77.566-52.737-92.039-25.741-25.134-69.442-40.68-101.96-36.272M93.667,53.667c-1.315,1.315-.606,2.346,3.313,4.82,4.68,2.954,7.31,3.258,6.835.79-.491-2.551-8.68-7.078-10.148-5.61M366.635,76.933c-1.185,12.543-.985,13.894,2.115,14.251,3.973.457,3.59,3.235-.5,3.629-3.132.3-3.25.475-3.25,4.759,0,4.09.149,4.352,1.868,3.279,2.379-1.487,5.132-.458,5.132,1.918,0,4.225-5.022,5.737-6.684,2.013-1.525-3.418-2.547,15.221-1.266,23.1,3.362,20.7,15.891,27.354,42.7,22.682,2.337-.407,4.25-.357,4.25.112,0,1.857-10.8,4.687-19.5,5.108l-9,.436-.143,8.455c-.127,7.47.048,8.381,1.5,7.817,4.046-1.575,19-1.659,27.609-.156a79.42,79.42,0,0,0,9.213,1.317c.561-.561-1.6-77.293-2.217-78.9-1.113-2.882-2.323-2-3.435,2.5-3.081,12.462-3.893,14.122-6.434,13.147-2.486-.954-3.38-3.985-4.146-14.055-.9-11.807-1.368-12.383-14.161-17.35-5.932-2.3-13.541-5.637-16.908-7.407l-6.123-3.219-.62,6.567M200.66,78.266c-2.594.878-2.783,1.263-2.186,4.448,1.144,6.1,3.7,10.4,5.982,10.079,2.765-.4,3.054-4.027.828-10.39-1.735-4.958-1.862-5.071-4.624-4.137m7.34-.915c0,1.981,2.5,6.649,3.563,6.649,2.171,0,3.816-3.839,2.384-5.564C212.933,77.214,208,76.314,208,77.351M61.25,80.662c-2.171.876-1.355,3.085,1.329,3.6,1.6.306,2.771-.01,3.088-.836,1.025-2.67-1.2-4.061-4.417-2.762m129.96,4.752c-5.56,6.332-4.732,14.664,1.615,16.257,5.846,1.467,7.213-4.214,3.5-14.525l-1.931-5.355-3.18,3.623m21.277,2.351a9.743,9.743,0,0,0-2.013,3.7,9.037,9.037,0,0,1-3.987,4.5c-3.093,1.585-4.691,3.161-3.953,3.9.9.9,8.642-5.107,10.5-8.157,2.641-4.331,2.4-6.081-.548-3.945M169.143,93.9c-.926.58-1.145,1.815-.689,3.891a7.2,7.2,0,0,1-.6,5.079c-1.548,2.479-.389,3.959,1.949,2.491,2.827-1.774,3.778-5.917,2.14-9.322-1.021-2.124-1.831-2.743-2.795-2.139m217.039.806c.373,1.935,7.617,3.895,9.061,2.451,1.527-1.527-2.2-4.157-5.888-4.157-2.762,0-3.432.36-3.173,1.706m-203.949,8.751c-2.427,5-2.465,4.936,3.849,5.979,4.945.817,8.5-2.542,4.751-4.485a17.048,17.048,0,0,1-4.348-3.653l-2.015-2.446-2.237,4.605m193.837-.769a29.544,29.544,0,0,0-1.064,5.355c0,.862-1.4,1.966-3.171,2.5-7.778,2.351-5.272,11.457,3.153,11.457,3.34,0,3.125-1.767-.488-4-3.818-2.36-3.742-4.529.125-3.558,2.939.738,4.171-1.829,4.593-9.567.347-6.351-1.614-7.713-3.148-2.187M85.4,101.413c-1.047,2.73.665,3.587,7.164,3.587,4.924,0,6.441-.337,6.441-1.433,0-2.68-12.635-4.681-13.605-2.154m299.989,3.029c-1.065,2.775.072,5.058,2.521,5.058,3.154,0,4.941-2.776,3.165-4.916-1.642-1.978-4.95-2.061-5.686-.142M85.446,115.087c-1.217,1.969,1.434,3.277,7.539,3.718,5.006.362,6.015.17,6.015-1.15,0-3.183-11.793-5.418-13.554-2.568m87.8,4.575c-2.06.831-1.5,4.338.691,4.338,2.356,0,3.274-1.275,2.455-3.41-.634-1.651-1.049-1.774-3.146-.928m-18.034,1.183c-1.785,1.133-.41,4.155,1.891,4.155,1.353,0,1.893-.714,1.893-2.5,0-2.525-1.428-3.15-3.784-1.655M163,121.93c0,1.557.638,2.07,2.573,2.07,3.283,0,2.991-3.345-.333-3.82-1.7-.242-2.24.179-2.24,1.75m-35.333.737c-1.781,1.78-.461,3.333,2.833,3.333,2.833,0,3.5-.381,3.5-2,0-1.994-4.686-2.981-6.333-1.333m255.027,5.865c-1.543,1.357-3.68,2.468-4.75,2.468-2.792,0-2.418,1.372,1.551,5.694l3.494,3.806,3.736-2c4.445-2.38,6.175-6.23,4.475-9.96-1.489-3.268-4.8-3.272-8.506-.008M86,133.488c0,2.378.293,2.512,5.5,2.512,3.025,0,5.838.024,6.25.053,2,.141,1.145-3.03-.934-3.454C87.665,130.731,86,130.868,86,133.488m78.25-1.821c-2.45.979-1.428,4.333,1.32,4.333,2.068,0,2.507-.423,2.25-2.172-.337-2.289-1.5-2.991-3.57-2.161m8.13.785c-.833,2.171.36,3.429,2.678,2.823,1.284-.336,1.846-1.082,1.5-1.988a9.066,9.066,0,0,1-.557-1.869c0-1.126-3.135-.231-3.62,1.034M154.5,133c-.923,1.494.361,3,2.559,3A1.759,1.759,0,0,0,159,134c0-2.121-3.347-2.865-4.5-1M122,135.9c-3.067.409-4.5,1.078-4.5,2.1,0,1.9,22.121,2.79,23.916.967,3.182-3.233-6.588-4.777-19.416-3.067m63.651,3.568c-.7,1.822-.184,2.13,5,2.987,4.534.75,6.369-.525,4.317-3-1.608-1.937-8.569-1.928-9.313.012m36.453,2.446c-1.675,1.061-.667,4.438,1.147,3.841,1.39-.458,2.362-4.764,1.069-4.74a5.838,5.838,0,0,0-2.216.9m-7.354.835c-2.844.646-2.208,4.251.75,4.251,1.808,0,2.5-.537,2.5-1.941,0-2.268-.831-2.859-3.25-2.31m-58.98,1.36c-2.121,1.187-1.192,3.891,1.337,3.891A1.742,1.742,0,0,0,159,146.059c0-2.481-1.1-3.144-3.23-1.95m7.594.384a2.759,2.759,0,0,0,.436,2.707c1.524,1.524,4.41.131,4.012-1.935-.443-2.3-3.647-2.858-4.448-.772M172,145c0,1.489.667,2,2.607,2,1.966,0,2.458-.389,2-1.582a10.211,10.211,0,0,1-.607-2c0-.23-.9-.418-2-.418a1.768,1.768,0,0,0-2,2m-54.43.887c-1.232,1.993,2.52,2.9,13.41,3.248,9.971.317,11.522.152,11.8-1.256.2-1-.564-1.857-1.981-2.236-3.557-.953-22.612-.753-23.228.244m71.6,2.156c-3.505,1.433-2.063,3.417,2.739,3.768,3.941.289,4.226.143,3.923-2-.368-2.59-2.964-3.28-6.662-1.768M86,150.5c0,2.386.271,2.5,5.941,2.5,6.211,0,8.06-1.088,6.023-3.544-.784-.944-3.1-1.456-6.586-1.456-5.07,0-5.378.143-5.378,2.5m128.688,1.146A1.88,1.88,0,0,0,216.073,155c1.4,0,1.968-.543,1.75-1.667-.357-1.841-2.064-2.759-3.135-1.687M222.5,154a2.046,2.046,0,0,0,1.559,3c.518,0,.941-.9.941-2,0-2.109-1.455-2.691-2.5-1m-49.25.662c-2.06.831-1.5,4.338.691,4.338,2.356,0,3.274-1.275,2.455-3.41-.634-1.651-1.049-1.774-3.146-.928m-17.959,1.447c-1.585,1.585-.467,3.891,1.886,3.891,1.445,0,1.878-.572,1.643-2.172-.377-2.556-1.934-3.314-3.529-1.719m7.709.821c0,1.557.638,2.07,2.573,2.07,3.283,0,2.991-3.345-.333-3.82-1.7-.242-2.24.179-2.24,1.75m-43.469.019c-1.468,2.376,1.339,3.209,12.7,3.769,11.484.565,15.226-.333,10.94-2.627-3.084-1.651-22.737-2.6-23.639-1.142m95.649,6.223c.472,3.2,2.82,3.544,2.82.411,0-1.68-.549-2.583-1.57-2.583-1.042,0-1.462.729-1.25,2.172m-126.93-.466A2.438,2.438,0,0,0,86,165.07c0,1.723.751,1.93,7,1.93,6.2,0,7-.216,7-1.893,0-2.882-4.489-3.8-11.75-2.4m76,3.961c-2.45.979-1.428,4.333,1.32,4.333,2.068,0,2.507-.423,2.25-2.172-.337-2.289-1.5-2.991-3.57-2.161m8.13.785c-.833,2.171.36,3.429,2.678,2.823,1.284-.336,1.846-1.082,1.5-1.988a9.066,9.066,0,0,1-.557-1.869c0-1.126-3.135-.231-3.62,1.034m51.227.13c-.858,2.235-.79,2.418.893,2.418.833,0,1.5-.889,1.5-2,0-2.384-1.536-2.653-2.393-.418M154.5,168c-.923,1.494.361,3,2.559,3A1.759,1.759,0,0,0,159,169c0-2.121-3.347-2.865-4.5-1m40.5,2.893c0,1.9,2.283,3.491,3.4,2.371,1.435-1.434.505-4.264-1.4-4.264a1.752,1.752,0,0,0-2,1.893m6.938-.643c-.361,7.273.4,21.467,1.187,22.25,3.052,3.023,4.505-10.422,2.3-21.25-.479-2.347-3.375-3.179-3.483-1M120,171.441c0,2.2.658,2.336,12.988,2.7,9.935.292,11.531.12,11.8-1.272.433-2.251-2.558-2.838-14.537-2.854-8.264-.011-10.25.265-10.25,1.427M215.5,174c-.837,1.354.292,3,2.059,3,.793,0,1.441-.9,1.441-2a1.856,1.856,0,0,0-3.5-1m-108.25,2.667c-2.45.979-1.428,4.333,1.32,4.333,2.068,0,2.507-.423,2.25-2.172-.337-2.289-1.5-2.991-3.57-2.161m-17.583,1C88.2,179.132,89.045,182,90.941,182c2.356,0,3.274-1.275,2.455-3.41a2.252,2.252,0,0,0-3.729-.923M97.5,178c-.923,1.494.361,3,2.559,3A1.759,1.759,0,0,0,102,179c0-2.121-3.347-2.865-4.5-1m98.66.24c-1.8,1.8-1.368,3.76.84,3.76a1.759,1.759,0,0,0,2-1.941c0-2.463-1.339-3.32-2.84-1.819m-40.39.869c-2.121,1.187-1.192,3.891,1.337,3.891A1.742,1.742,0,0,0,159,181.059c0-2.481-1.1-3.144-3.23-1.95m7.594.384a2.759,2.759,0,0,0,.436,2.707c1.524,1.524,4.41.131,4.012-1.935-.443-2.3-3.647-2.858-4.448-.772M172,180c0,1.489.667,2,2.607,2,1.966,0,2.458-.389,2-1.582a10.211,10.211,0,0,1-.607-2c0-.23-.9-.418-2-.418a1.768,1.768,0,0,0-2,2m52,2c0,1.111.667,2,1.5,2,1.683,0,1.751-.183.893-2.418S224,179.616,224,182m-97.25.735c-3.91.308-4.75.718-4.75,2.32,0,2.7,20.648,3.026,21.677.344,1.22-3.179-2.655-3.789-16.927-2.664M217,185.917c0,1.228.646,2.083,1.573,2.083a1.249,1.249,0,0,0,1.25-1.667c-.486-2.509-2.823-2.853-2.823-.416m-109.75-.25c-2.45.979-1.428,4.333,1.32,4.333,2.068,0,2.507-.423,2.25-2.172-.337-2.289-1.5-2.991-3.57-2.161m-17.583,1C88.2,188.132,89.045,191,90.941,191c2.356,0,3.274-1.275,2.455-3.41a2.252,2.252,0,0,0-3.729-.923M97.5,187c-.923,1.494.361,3,2.559,3A1.759,1.759,0,0,0,102,188c0-2.121-3.347-2.865-4.5-1m98.5,2c0,1.1.633,2,1.406,2,.914,0,1.224-.7.884-2-.288-1.1-.921-2-1.407-2s-.883.9-.883,2m-22.75.662c-2.06.831-1.5,4.338.691,4.338,2.356,0,3.274-1.275,2.455-3.41-.634-1.651-1.049-1.774-3.146-.928m-18.034,1.183c-1.785,1.133-.41,4.155,1.891,4.155,1.353,0,1.893-.714,1.893-2.5,0-2.525-1.428-3.15-3.784-1.655m8.485-.213c-1.571,1.571-.572,3.368,1.872,3.368,1.906,0,2.487-.451,2.239-1.739-.351-1.82-2.907-2.833-4.111-1.629m75,4.112c-8.7.381-8.279-.034-9.106,9.046l-.574,6.291,4.239-2.834c5.153-3.445,9.19-5.247,11.755-5.247,3.255,0,1.192,2.352-4.321,4.924-3.146,1.468-7.687,5.012-11.513,8.987-7.263,7.545-7.491,7.6-16.182,3.6-8.367-3.846-24.086-4.48-26.58-1.072-3.107,4.246-1.469,6,14.615,15.643C214.657,242.252,221.867,245,229.675,245c7.594,0,5.817,1.964-2.455,2.714a24.917,24.917,0,0,1-10.794-1.085c-2.63-.9-4.9-1.629-5.053-1.629a14.749,14.749,0,0,0,1.272,3.693c1.67,4,1.616,5.858-1.215,42.136-4.755,60.939,1.34,93.916,21.029,113.771,29.035,29.279,92.49,22.849,131.57-13.333,6.286-5.82,14.728-15.97,13.841-16.64-.2-.154-3.75-1.489-7.881-2.967-9.551-3.419-24.435-12.269-38.46-22.868-9.89-7.475-14.46-12.083-24.08-24.278l-3.051-3.868-2.81,4.794a99.9,99.9,0,0,1-8.2,11.147L288,342.94l-.1,16.78c-.1,17.6-1.015,25.036-2.237,18.28-.348-1.925-1.114-16.083-1.7-31.462-1.082-28.3-3.693-57.738-6.356-71.655-2.979-15.565-3.072-21.027-.495-29.054,6.123-19.073.972-41.665-10.878-47.711-3.954-2.017-14.092-4.265-17.666-3.917-1.136.111-5.575.355-9.864.543m-18.952.945a2.559,2.559,0,0,0-1.75,2.384c0,2.153,7.277,2.907,8.527.883,1.59-2.572-2.286-4.44-6.777-3.267M109,201c0,1.737.511,2.074,2.75,1.816,1.637-.188,2.75-.923,2.75-1.816s-1.113-1.628-2.75-1.816c-2.239-.258-2.75.079-2.75,1.816m-38.25.08C66.683,203.449,68.761,205,76,205c6.8,0,7-.071,7-2.5,0-2.353-.309-2.5-5.25-2.47-2.888.017-6.037.489-7,1.05m-8.25,8.63c-8.212,1.125-10.5,2.251-10.5,5.168,0,5.015,8.583,6.66,19.346,3.708,6.186-1.7,80.128-2.912,98.63-1.621,8.8.614,11.714.508,12.5-.458a11.059,11.059,0,0,1,2.9-2.24c1.26-.661-13.985-1.143-46.593-1.473-42.4-.43-48.879-.7-51.775-2.143-3.2-1.6-16.105-2.09-24.5-.941M216,212.763l-8.5.357,6.92,2.97c3.806,1.634,7.187,2.619,7.515,2.19s1.679-2.018,3-3.53c1.557-1.777,1.906-2.678.985-2.546-.783.111-5.249.363-9.924.559M94.4,220.948c-24.3.581-26.733,1.065-25.673,5.12,1.244,4.758,12.748,5.7,78.116,6.409,22.74.247,42.315.7,43.5,1.006,2.1.542,2.1.523.169-.713C186.3,230.08,181,224.141,181,222.118c0-2.306-24.917-2.642-86.6-1.17m99.68,1.455c-1.62,1.951-.995,6.1.919,6.1.909,0,1.629-1.132,1.828-2.872.407-3.556-1.052-5.268-2.747-3.225m228.9,35.847c-.119,43.3-6.826,81.7-18.281,104.683-4.969,9.966-7.992,12.607-14.278,12.471-4.712-.1-5.655.868-2.492,2.561,15.3,8.186,32.815-31.723,37.033-84.36,1.7-21.251,1.179-40.6-1.1-40.6-.478,0-.876,2.363-.884,5.25m81.409,137.978q.746,4.643,1.58,9.272a74.72,74.72,0,0,1-.981,28.313c-2.567,10.707-2.555,11,1.107,28.16,3.379,15.838,4.761,19.774,5.85,16.669.843-2.4-.1-9.7-3-23.3l-2.382-11.163,1.966-7.337c3.786-14.134,1.689-42.386-3.288-44.3-1.279-.491-1.417.1-.853,3.687m-8.6,18.835a100.779,100.779,0,0,1-3.814,25.408l-3.354,12.971,2.2,10.529C493.744,478,494.905,482,496.056,482c1.2,0,.287-8.656-2.071-19.662-1.2-5.607-1.494-9.363-.936-12,.447-2.111,1.964-9.238,3.371-15.838,2.886-13.532,3.426-26.961,1.207-30-1.2-1.639-1.432-.3-1.834,10.559m-45.154-8.369c-.351.352-.642,3.152-.647,6.223-.018,13.571-3.757,25.323-12.1,38.037-3.607,5.495-4.892,8.415-4.892,11.113a60.533,60.533,0,0,1-1.016,9.017c-2,10.541-2.172,13.549-.686,11.9,1.862-2.065,4.409-11.251,5.239-18.895.545-5.013,1.432-7.434,4.068-11.1C447.907,442.823,453,426.967,453,414.4c0-6.734-.781-9.284-2.361-7.7m30.768,11.525c.045,13.551-1.038,18.77-7.114,34.281-3.615,9.226-4.09,18.535-1.649,32.25,1.378,7.738,2.49,2.549,2.251-10.5-.25-13.635-.222-13.829,3.348-23.25,6.45-17.018,8.724-39.462,4.434-43.752-1.082-1.081-1.3.84-1.27,10.971m-86.473-5.8c-2.738,6.191-5.43,19.009-7.893,37.585-1.13,8.525-2.77,19.42-3.645,24.21-1.8,9.859-1.392,13.071.968,7.631s3.292-10.4,6.073-32.368c2.123-16.77,6.131-36.348,8.09-39.517a1.119,1.119,0,0,0-.534-1.461c-.586-.362-1.922,1.35-3.059,3.92M421,409.869c0,4.442-2.7,18.229-5.557,28.333-4.074,14.427-7.2,30.023-7.867,39.214-.477,6.592.832,9.114,1.988,3.834.332-1.512.8-3.371,1.038-4.13s1.09-5.709,1.889-11,3.492-17.615,5.982-27.388c4.394-17.244,5.68-27.9,3.527-29.232-.55-.34-1-.174-1,.369m-61.361,5.825c-3.767,3.767,4.6,18.166,14.334,24.657,6.6,4.4,6.751-.116.162-4.849a28.267,28.267,0,0,1-11.087-15.325c-1.118-4.153-2.25-5.641-3.409-4.483m-16.187,1.4C337.125,425.585,324.623,480,329,480c.55,0,1-.316,1-.7,0-3.757,7.9-37.863,11.063-47.753,3.9-12.2,4.811-17.7,2.389-14.45m17.2,18.655c-.314.508-1.7,8.139-3.079,16.958s-2.962,18.005-3.517,20.413c-1.786,7.746-.343,11.371,2.041,5.13,3.687-9.65,7.764-47.694,4.555-42.5" fill="#6dbf36" stroke="#fbfbfb" stroke-width="1" fill-rule="evenodd"/>
        <path id="Path_22" data-name="Path 22" d="M361.811,23.47C344.621,28.2,335.251,46.9,338,70.986c1.677,14.7,9.121,27.058,18.978,31.5,2.844,1.283,3.932,2.309,3.538,3.336-1.245,3.244-.563,25.726.932,30.72,2.287,7.641,7.111,14.213,12.689,17.289l4.836,2.666.015,9.656.014,9.656-4.25,1.488c-2.337.819-4.977,1.786-5.865,2.15-1.289.527-2.272-1.02-4.858-7.645-1.783-4.568-4.829-12.355-6.767-17.305-6.391-16.322-21.842-45.494-32.572-61.5C301.544,58.479,259.614,36.981,215.5,37.021c-22.037.019-34.114,6.314-39.443,20.557a49.245,49.245,0,0,1-3.944,8.332C166.883,73.456,161,93.288,161,103.37c0,4.782.39,5.866,3.077,8.553,5.762,5.762,12.249,3.221,17.141-6.716l3.1-6.292,3.139,3.042c1.727,1.674,3.994,3.043,5.038,3.043,1.6,0,1.4.514-1.3,3.3-6.206,6.4-2.325,13.383,8.429,15.155,7.027,1.159,28.645-7.361,36.763-14.489l3.484-3.059,4.02,4.362c2.211,2.4,5.835,6.641,8.054,9.428,3.413,4.286,8.054,7.488,8.054,5.556,0-1.116-5.528-7.886-11.717-14.35l-6.319-6.6,3.553-5.9A58.259,58.259,0,0,0,250.443,88c.755-2.475,2.1-6.212,3-8.305,1.558-3.64,1.55-3.762-.2-2.827-2.121,1.135-3.4,3.444-6.29,11.372-4.6,12.605-13.061,20.473-29.428,27.357-12.162,5.115-19.333,5.7-23.514,1.917-4.2-3.8-2.262-6.448,10.213-13.975,20.214-12.195,21.539-31.617,2.062-30.221-11.767.844-18.435,6.93-25.039,22.857-5.719,13.79-10.335,17.909-14.42,12.865C161.5,102.451,170.146,71.259,179.875,62c4.672-4.444,14.156-9.092,19.938-9.772,2.372-.278,3.943-.876,3.492-1.327-1.444-1.444-13.191.86-17.954,3.522-7,3.911-7.4,2.751-1.328-3.836,20.2-21.915,88.119-7.648,121.881,25.6,17.042,16.782,36.464,50.481,54.088,93.844l4.689,11.537L359.8,184.94c-12.277,8.465-28.237,35.331-44.292,74.56-3.3,8.065-4.506,9.846-4.506,6.66,0-2.713-7.326-32.137-14.011-56.273-8.3-29.977-21.61-63.666-24.147-61.129-.832.832.182,4.192,3.9,12.933,9.364,21.989,15.769,43.021,26.678,87.6C306.491,261.822,309,272.73,309,273.529s-2.475,8.046-5.5,16.105c-6,15.974-6.569,20.056-3.435,24.457l2.065,2.9-2.636,4.843a93.91,93.91,0,0,1-7.315,10.754L287.5,338.5l-.729-12c-1.018-16.763-3.616-40.073-5.852-52.5-2.3-12.8-2.42-21.328-.375-27.124,6-17.008,2.488-39.194-7.664-48.365-6.308-5.7-9.875-6.754-24.6-7.274-14.388-.508-18.276-.014-18.276,2.323,0,1.312,1.553,1.429,11.25.854,13.209-.784,22.066.943,27.75,5.412,9.712,7.635,13.858,27.73,8.936,43.321-2.87,9.092-2.881,16.125-.051,32.853,3.294,19.478,5.025,39.061,6.188,70,.589,15.675,1.337,30.075,1.662,32l.591,3.5.8-4c.439-2.2.774-10.855.745-19.233l-.053-15.233,4.473-5.267a129.645,129.645,0,0,0,8.422-11.409l3.949-6.143,6.748,8.883c12.608,16.594,42.08,37.325,61.785,43.459l5.693,1.773-3.093,4.307c-27.672,38.533-92.139,56.106-130.968,35.7-29.455-15.478-39.308-53.064-33.295-127.01,2.038-25.063,2.238-37.247.656-40.079-1.5-2.685-1.494-2.686,5.576-.63,5.816,1.69,14.642,1.375,16.61-.593.7-.7-.939-1.027-5.193-1.027-10.532,0-41.688-15.792-44.118-22.362-2.472-6.681,16.335-8.866,28.312-3.289,3.231,1.505,6.115,2.5,6.408,2.2s1.064-.094,1.711.443c.833.691,2.8-.862,6.732-5.31a44.263,44.263,0,0,1,11.63-9.526c3.343-1.782,6.344-3.671,6.67-4.2,1.637-2.649-7.422.369-13.525,4.506-4.442,3.011-22.712,2.707-21.435-.357,1.417-3.4,1.652-21.87.512-40.341-1.3-21.146-1.561-22.767-3.6-22.767-1.15,0-1.3,2.564-.88,14.75.282,8.113.6,22.483.71,31.934l.2,17.184-8,.316-8,.316.348-21c.353-21.368.682-23.141,4.4-23.69,3.043-.449,3.316-2.631.42-3.358-7.445-1.869-8.808,2.063-9.43,27.2L187.706,209H132.192l.135-5.869c.164-7.111-1.2-9.127-6.2-9.142a56.261,56.261,0,0,1-7.436-.64l-3.808-.629.308-4.61c.169-2.536-.067-14.96-.525-27.61-.7-19.336-.6-23.688.656-27.317,1.324-3.838,1.322-4.382-.018-4.9-4.543-1.744-5.643,6.735-4.862,37.463l.693,27.25h-2.945c-4.48,0-5.506,1.974-4.689,9.015l.7,6.066-8.541-.291-8.541-.29-.57-31c-.313-17.05-.79-46.075-1.059-64.5-.519-35.5-1.133-45.4-2.647-42.692-1.28,2.287-1.47,32.77-.517,82.794l.831,43.6-5.772.6c-6.54.675-10.932,3.36-10.808,6.607.087,2.274-.526,2.525-8.762,3.59-15.43,2-12.36,17.815,3.17,16.334,3.61-.345,4.01-.157,4.01,1.878,0,1.243,1.239,3.647,2.754,5.343,3.971,4.444,9.954,4.942,70.746,5.879,76.469,1.18,74.117-.361,69.856,45.77-2.044,22.122-2.348,63.335-.557,75.581,4.594,31.419,18.064,53,38.9,62.324,18.435,8.25,44.314,9.327,69.5,2.892l2.7-.69-1.4,5.346c-3.567,13.589-11.521,48.587-11.512,50.656.006,1.306.451,2.036,1.025,1.682,2.074-1.282,4.091-8.291,9.418-32.725,3.005-13.785,5.825-25.4,6.265-25.812a69.8,69.8,0,0,1,8.538-3.939,139.353,139.353,0,0,0,28.55-16.656l4.9-3.9,12.408.8c15.281.985,58.375,1.417,73.865.741l11.457-.5,3.043,5.928c6.485,12.634,3.553,39.6-5.415,49.786C454.58,459.42,454,461.443,454,474.288c0,10.463.1,11.017,1.583,8.9,1.041-1.485,1.837-5.812,2.323-12.617.735-10.3.762-10.383,4.845-15.021,10.328-11.734,13.139-38.031,5.692-53.253-1.458-2.98-2.492-5.552-2.3-5.715.794-.666,21.4-2.578,27.779-2.578,12.266,0,14.411-5.554,10.161-26.308-1.179-5.755-2.569-15.3-3.088-21.22-2.7-30.71-18.869-102.779-27.676-123.345-10.723-25.042-20.784-34.988-45.417-44.9-3.057-1.23-3.888-7.813-3.9-30.862L424,134.232l3.9-7.866a130.719,130.719,0,0,0,6.25-15.3l2.353-7.438.611,19.938c.981,32.013,5.752,41.409,21.88,43.1,23.187,2.423,36.661-15.737,30.168-40.657-1.075-4.125-3.807-14.548-6.071-23.162s-5.46-22.3-7.1-30.416c-3.274-16.167-5.337-20.8-11.906-26.733a27.1,27.1,0,0,0-26.549-6.241c-3.159.919-5.827,1.531-5.928,1.361C425.09,29.875,421.757,28,408.79,27.994c-7.18,0-11.789-.685-20.29-2.994-11.861-3.222-19.049-3.634-26.689-1.53M160.527,33.25c-1.8,7.942-2.481,11.462-2.5,13-.035,2.559,2.849,2.141,3.449-.5,1.8-7.942,2.481-11.462,2.5-13,.035-2.559-2.849-2.141-3.449.5m-37.33,8c2.414,7.306,3.465,8.8,4.43,6.279C128.705,44.721,125.039,35,122.9,35c-1.665,0-1.647.378.294,6.25M93.622,53.712c-1.287,1.286-.5,2.278,3.848,4.823,4.173,2.446,6.53,2.6,6.53.423,0-1.214-9.572-6.053-10.378-5.246m273.02,22.441C365.36,88.418,365.683,91,368.5,91c1.833,0,2.5.533,2.5,2,0,1.543-.667,2-2.915,2-2.9,0-2.918.034-3.7,7.75-1.418,14.083-1.04,28.266.9,33.859,5.052,14.546,17.652,20.474,36.2,17.033,8.272-1.534,12.2-1.543,7.9-.018-1.041.369-3.468,1.328-5.393,2.13s-7.663,1.7-12.75,1.989l-9.25.53v8.472c0,8.285.05,8.459,2.25,7.912,8.238-2.049,20.488-1.71,33.474.928l3.225.655-.6-34.37c-.331-18.9-.882-37.07-1.224-40.37-.892-8.593-2.973-8.047-5.292,1.389-1,4.064-2.3,7.975-2.9,8.69-2.88,3.471-5.931-2.424-5.94-11.478-.012-12.807-.882-13.777-18.866-21.049a164.094,164.094,0,0,1-15.523-6.987l-3.321-2.053-.642,6.141m-158.6,1.667a16.565,16.565,0,0,0,1.284,4.582l1.239,2.9,2.648-2.454c3.091-2.865,2.519-4.493-2.036-5.8-2.679-.769-3.173-.648-3.135.768m-7.921.258c-2.727,1.091-2.5,6.311.532,12.277,2.092,4.115,1.865,3.972,4.258,2.691,2.528-1.353,2.734-5.251.554-10.468-.842-2.016-1.266-4.1-.941-4.622.735-1.189-1.267-1.133-4.4.122M60,82.383c0,1.8,4.741,2.735,5.381,1.067.655-1.707-.27-2.45-3.048-2.45C61.013,81,60,81.6,60,82.383M191.858,84.13c-5.85,7.7-6.312,9.585-3.417,13.961,5.638,8.519,13.5,3.4,9.709-6.323-1.132-2.9-2.434-6.559-2.894-8.138l-.836-2.87-2.562,3.37m21.566,3.013c-1.142.554-2.643,2.575-3.336,4.49a7.3,7.3,0,0,1-3.9,4.487c-2.522.959-4.137,2.545-4.17,4.1-.031,1.458,7.115-3.55,9.918-6.951,2.219-2.691,4.788-7.658,3.723-7.2-.086.037-1.09.521-2.232,1.075m173.035,6.924c-.876,1.417.065,2.243,2.8,2.455a15.02,15.02,0,0,1,3.993.933c1.336.58,1.75.286,1.75-1.241,0-2.962-6.957-4.711-8.541-2.147m-217.932.889a4.665,4.665,0,0,0,.014,3.172,6.767,6.767,0,0,1-.6,4.49c-1.431,2.673-.8,3.926,1.535,3.031,2.255-.865,3.75-5.482,2.748-8.488-.934-2.8-2.679-3.845-3.693-2.205m208.523,5.95a10.927,10.927,0,0,0-1.065,4.278c-.021,3.085-.909,4.148-4.467,5.347-6.437,2.169-5.319,9.475,1.685,11.013,4.764,1.047,5.75-1.122,1.443-3.176-4.535-2.162-5.017-4.892-.711-4.031,2.635.527,3.035.258,3.91-2.625,2.548-8.389,1.987-16-.8-10.806m-10.383,1.761c-1.28,1.279-.654,5.4.911,6,2.28.875,4.771-1.993,3.957-4.556-.64-2.018-3.459-2.855-4.868-1.445m18.818,2.381c-.713,2.244.984,4.952,3.1,4.952,2.02,0,3.419-3.238,2.279-5.276a2.9,2.9,0,0,0-5.381.324m-255.8.6c-.379.378-.688,3.537-.688,7.021,0,5.646-.215,6.333-1.981,6.333-1.294,0-2.205.892-2.627,2.573-.868,3.461,1.04,5.357,2.551,2.534,1.8-3.37,8.057-3,8.057.476,0,1.623.465,2.429,1.25,2.167.716-.239,1.25-2.089,1.25-4.333,0-3.559-.259-3.947-2.838-4.242-2.814-.322-2.835-.376-2.5-6.416.315-5.667-.618-7.97-2.474-6.113m17.707,4.523c-2.226,3.6-1.326,85.233.965,87.525,2.262,2.261,2.384-1.59,1.89-59.444-.233-27.246-.676-31.606-2.855-28.081m53.1,4.837c-2.382,2.633-1.293,3.568,2.383,2.045,2.208-.915,3.466-.938,5.047-.092,1.713.917,2.223.821,2.737-.517,1.4-3.646-7.082-4.844-10.167-1.436M383.5,128.469c-1.65,1.352-4.012,2.475-5.25,2.495-1.317.021-2.25.658-2.25,1.536a1.472,1.472,0,0,0,1.433,1.5,2.592,2.592,0,0,1,2.038,1.91c1.7,5.353,9,4.189,11.5-1.832,2.8-6.757-1.828-10.232-7.468-5.609m-276.2,74.59.2,5.923,10.5.01,10.5.009-.351-5.071c-.407-5.874.088-5.612-11.848-6.279l-9.2-.515.2,5.923M70.2,201.2c-2.867,2.867-1.32,3.8,6.3,3.8,7.416,0,8.079-.329,6.893-3.418-.746-1.945-11.324-2.251-13.193-.382m-11.7,8.967c-6.4,1.207-7.912,2.62-6.576,6.132,1.569,4.129,8.147,4.66,23.076,1.861,3.408-.638,24.8-.96,56.25-.845,27.912.1,50.75-.048,50.75-.333s1.238-1.286,2.75-2.224c2.636-1.634,1.649-1.708-23.75-1.79-38.626-.124-73.879-1.447-75.256-2.824s-19.881-1.366-27.244.023M215,212.751l-8.5.344,6,2.531c9.132,3.851,8.9,3.852,11.878-.055,2.306-3.023,2.448-3.54.923-3.367-.991.111-5.626.358-10.3.547m-87,7.372c-28.325.44-52.917,1.055-54.65,1.365-6.488,1.163-6.554,6.334-.108,8.392,3.659,1.168,55.01,3.019,93.812,3.381l25.553.239-4.174-2.646c-4.877-3.091-7.433-6.384-7.433-9.577,0-1.252-.338-2.205-.75-2.116s-23.925.521-52.25.962m66.334,2.085a7.119,7.119,0,0,0-.907,3.792c.1,3.573,2.986,3.257,3.4-.372.385-3.364-1.047-5.327-2.494-3.42m228.66,33.042c-.117,40.636-6.015,78.66-15.783,101.75-6.338,14.982-9.231,18-17.258,18-4.174,0-4.937.939-2.443,3.008,2.215,1.839,8.987.613,12.838-2.325,8.221-6.269,18.88-36.054,23.15-64.683,1.844-12.367,3.1-44.037,2.076-52.253-.693-5.55-2.567-8.089-2.58-3.5M504.069,393.5a53.94,53.94,0,0,0,1.451,8c2.146,8.888,1.868,22.933-.672,33.994l-2.153,9.37,3.241,15.3c3.939,18.6,6.5,24.493,5.563,12.839a169.028,169.028,0,0,0-2.863-17.952c-2.263-10.443-2.263-10.458-.39-18,3.53-14.218,2.259-37.834-2.333-43.336-1.776-2.127-1.846-2.135-1.844-.212m-144.6,26.2c1.614,8.605,9.991,19.379,16.3,20.962,3.6.9,3.913-.471.669-2.929q-10.44-7.914-13.054-16.175c-2.065-6.551-5.062-7.974-3.914-1.858" fill="#c5c5c5" stroke="#c5c5c5" stroke-width="1" fill-rule="evenodd"/>
        <path id="Path_23" data-name="Path 23" d="M362.639,23.45C346.436,28.115,338,41.774,338,63.344c0,18.971,6.222,32.188,17.951,38.131l4.727,2.4-.468,12.96c-.4,11.217-.182,13.9,1.655,19.95,2.366,7.79,8.719,15.976,14.142,18.222l3.06,1.267-.284,9.944-.283,9.944-5.453,1.918c-6.517,2.292-5.961,2.787-10.439-9.274C352.3,141.046,335.3,107.878,321.7,89c-20.673-28.7-55.9-47.589-95.46-51.194-29.055-2.649-45.672,4.418-50.649,21.538-.862,2.967-2.218,5.934-3.013,6.594C168.819,69.055,161,94.018,161,102.891c0,4.739,3.52,10.211,7.2,11.19,4.732,1.259,8.862-1.742,12.857-9.342l3.553-6.761,2.208,2.985a11.571,11.571,0,0,0,5.384,3.809l3.178.823-3.188,2.271C184.3,113.485,190.413,123,201.915,123c8.068,0,25.489-7.192,34.273-14.149l3.991-3.161,3.937,4.4c2.166,2.423,5.78,6.767,8.031,9.655,3.515,4.509,6.853,6.755,6.853,4.611,0-1.086-11.017-14.169-14.528-17.251l-3.323-2.918,3.139-4.269C248.225,94.57,254.984,75.8,252,78.5c-1.056.955-2.841,4.506-3.968,7.892-5.008,15.05-13.62,22.821-34.416,31.055-11.991,4.748-21.556,2.929-21.606-4.108-.011-1.665,2.432-3.725,10.585-8.922,11.322-7.218,14.888-11.186,16.5-18.365,1.965-8.747-3.774-14.05-13.729-12.685-10.666,1.461-17.421,7.86-23.781,22.527-6.373,14.7-10.48,18.212-15.186,13-5.6-6.206,3.8-38.421,13.869-47.519,4.513-4.076,13.279-8.416,19.226-9.518,3.341-.619,2.982-.7-2.176-.489-4.705.193-7.656,1.029-12.391,3.51l-6.214,3.258,2.5-4.316c16.847-29.066,98.39-10.58,132.335,30,11.97,14.309,33.387,53.443,45.8,83.683l5.746,14-2.3,1.486c-13.85,8.95-26.105,28.387-44.388,70.4-4.76,10.938-7.009,15.141-7.225,13.5-.572-4.36-13.98-56.2-17.686-68.382-6.726-22.112-17.924-49.5-20.238-49.5-1.879,0-1.636.914,2.806,10.528,8.216,17.783,16.587,44.954,27.34,88.735,6.776,27.59,6.769,24.311.091,42.1-6.165,16.424-6.409,18.159-3.309,23.545l2.191,3.807-4.677,7.391a130.281,130.281,0,0,1-7.58,10.843l-2.9,3.451-.66-11.951c-.931-16.836-3.333-39.043-5.617-51.917-2.375-13.388-2.493-23.791-.338-29.659,2.2-6,2.995-22.6,1.414-29.72-3.677-16.575-13-24.074-30.993-24.941-11.957-.575-21.028.4-21.028,2.251,0,1.054,2.5,1.215,12.277.793,19.844-.858,29.272,3.481,34.8,16.014,3.421,7.751,3.91,23.689,1.024,33.379-2.5,8.4-2.685,17.184-.581,28.01,3.647,18.771,7.364,64.524,7.542,92.838.042,6.6.462,12.9.935,14,1.1,2.563,1.478-5.384,1.066-22.512l-.3-12.511,4.453-4.989a128.988,128.988,0,0,0,9.011-11.819l4.557-6.83,5.981,7.856c12.968,17.036,38.473,35.667,60.047,43.864l8.316,3.16-6.036,7.5c-34.671,43.1-108.744,55.055-141.114,22.778-19.6-19.544-25.966-56.989-20.488-120.5,1.924-22.315,1.926-34.172.006-37.855-1.38-2.644-1.361-2.8.256-2.106,5.136,2.205,12.919,3.587,16.866,2.995,6.391-.958,6.167-2.251-.4-2.3-7.452-.054-15.638-3.374-29.623-12.018-11.22-6.934-15.138-10.654-14.092-13.381,1.784-4.647,17.314-5.356,26.991-1.231,10.223,4.357,10.755,4.264,17.632-3.087,3.685-3.939,8.147-7.486,11.453-9.1,4.874-2.385,6.942-4.415,4.5-4.415-1.936,0-9.733,3.832-12.591,6.188-2.837,2.339-3.4,2.428-10.992,1.71-4.4-.415-12.838-.788-18.75-.827-7.87-.052-10.762-.406-10.795-1.321-.272-7.492.232-34.367.715-38.143.537-4.2,1.027-5.044,3.478-5.969,3.618-1.366,3.668-2.643.1-2.623-6.416.036-7.194,3.133-7.226,28.735L189,209H131.19l.531-5.855c.681-7.51-1.165-9.145-10.327-9.145-5.061,0-6.226-.312-6.527-1.75-.775-3.7-.322-59.866.5-62,1.364-3.542-1.049-2.75-3.047,1-1.815,3.4-2.217,34.333-.709,54.433l.614,8.183-3.862.317c-3.8.312-3.868.392-4.179,4.737a27.865,27.865,0,0,0,.269,6.75c1.079,4.3,2.547,2.385,2.547-3.321V196.7l10.133.617c11.857.723,10.774.108,11.537,6.549l.609,5.136H110.764c-10.183,0-19.86-.269-21.5-.6l-2.99-.6-.678-65.152c-.373-35.834-.95-67.164-1.282-69.622-2.339-17.328-3.037,28.1-1.461,95.17.737,31.365,1.43,28.757-7.644,28.786-5.173.017-9.424,3.46-8.524,6.9.48,1.835.114,2.113-2.814,2.134-13.416.1-19.666,6.448-13.454,13.67,2.179,2.533,3.039,2.806,8.841,2.806,5.627,0,6.371.218,5.971,1.748-.671,2.565,2.447,6.717,6.232,8.3,4.178,1.745,45.966,3.437,85.157,3.446,54.716.013,56.219,1.426,51.831,48.741-1.9,20.463-2.187,59.579-.527,71.266,6.424,45.236,28.274,67.359,69.582,70.451a122.088,122.088,0,0,0,34.188-3.109c3.511-.882,6.564-1.423,6.784-1.2s-2.5,12.531-6.036,27.356c-6.621,27.73-6.963,29.508-5.686,29.5,1.422-.007,4.178-8.535,7.27-22.5,1.7-7.7,3.973-17.881,5.04-22.624a88.9,88.9,0,0,0,1.94-10.8c0-1.56.921-2.5,3.25-3.3,7.389-2.552,26.741-13.053,33.5-18.18l7.253-5.5,14.247,1c17.22,1.212,59.439,1.478,73.246.461l10-.736,2.761,5.633c7.317,14.931,4.653,40.782-5.262,51.045-4.835,5.005-6.036,9.255-5.778,20.454.337,14.682,3.482,8.221,3.706-7.614.063-4.428.624-5.858,3.955-10.071,11.4-14.421,14.171-39.21,6.061-54.19a32.749,32.749,0,0,1-2.689-5.6c.918-.651,21.021-2.484,27.253-2.484,8.9,0,10.886-.821,12.388-5.128,1.6-4.575,1.35-10.089-.928-20.872-1.1-5.225-2.472-14.632-3.041-20.9-2.619-28.852-17.441-96.562-26.314-120.212-9.069-24.169-22.712-39.258-42.166-46.634l-7.231-2.742-.581-7.5c-.32-4.127-.869-13.368-1.22-20.535l-.639-13.032,4.539-9.468c4.231-8.826,8.458-20.222,8.86-23.884.1-.872.483,7.64.861,18.915,1.165,34.7,6.5,44.265,24.7,44.3,13.216.026,21.131-4.245,25.9-13.979,4.569-9.319,4.047-16.879-2.955-42.823-3.118-11.55-7-27.616-8.633-35.7-4.178-20.713-8.423-27.884-19.483-32.908-5-2.27-16.156-2.505-21.091-.444-3.281,1.371-3.52,1.332-4.586-.75C426.514,31.154,420.2,28.108,407,28.173a49.394,49.394,0,0,1-17-2.594c-10.436-3.237-20.73-4.038-27.361-2.129M159.546,39.068c-.959,4.438-1.485,8.327-1.169,8.643,1.374,1.373,3.423-2.156,4.052-6.978.376-2.878.931-6.246,1.235-7.483.383-1.56.1-2.25-.911-2.25s-1.992,2.446-3.207,8.068M122,35.7c0,2.692,3.688,12.3,4.722,12.3,1.833,0,1.578-3.135-.686-8.417C124.361,35.677,122,33.4,122,35.7M93.624,53.71C92.36,54.974,93.1,55.87,97.6,58.5c4.285,2.512,7.254,2.443,5.608-.129-1.021-1.6-8.845-5.406-9.584-4.666M366.6,74.267c-1.75,14.379-1.587,16.6,1.239,16.926,3.752.436,4.267,3.771.542,3.5-3.781-.271-4.592,3.7-4.754,23.3-.139,16.716.374,19.026,6.046,27.239,6.294,9.114,21.617,11.83,39.825,7.06,3.985-1.044-.052,1.316-5.5,3.215a43.037,43.037,0,0,1-13.749,1.951L382,157.5v8.75c0,4.813.336,8.735.749,8.717s3.858-.433,7.656-.922c6.326-.815,14.816-.325,27.41,1.582l4.315.654-.549-5.891c-.3-3.239-.8-20.5-1.111-38.349-.548-31.619-1.157-37.432-3.934-37.513-.53-.015-1.709,3.254-2.619,7.266-3.25,14.313-7.781,12.932-8.865-2.7-.871-12.557-1.7-13.6-14.924-18.682-5.3-2.036-12.64-5.2-16.32-7.039l-6.692-3.338-.515,4.233M208,77.845c0,2.368,2,7.155,2.986,7.155,2.216,0,5.342-5.1,3.958-6.455-2.687-2.63-6.944-3.06-6.944-.7m-8.25.235c-2.331,1.358-2.208,4.985.373,10.985,3.238,7.527,8.77,5.149,6.677-2.87-.531-2.032-1.2-4.932-1.5-6.445-.56-2.9-2.46-3.472-5.554-1.67M60,82.5c0,.933.944,1.5,2.5,1.5s2.5-.567,2.5-1.5S64.056,81,62.5,81s-2.5.567-2.5,1.5m131.469,1.719c-4.938,5.869-5.937,8.974-4.057,12.611,5.439,10.518,15.566,4.957,10.662-5.855a23.118,23.118,0,0,1-2.052-6.666c-.035-3.519-1.641-3.551-4.553-.09m22.146,2.717c-1.037.377-2.612,2.192-3.5,4.034-1.579,3.273-2.819,4.331-6.365,5.426a2.822,2.822,0,0,0-1.75,2.6c0,2.709,3.989.787,8.63-4.159,5.252-5.6,6.621-9.22,2.985-7.9M386.5,94.007c-.343.554.193,1.266,1.191,1.581s2.809.971,4.027,1.456c2.914,1.159,4.234-.878,1.748-2.7-2.169-1.586-6.079-1.777-6.966-.341M168.9,95.25c-.056.688-.025,2.667.068,4.4s-.312,3.446-.9,3.809c-1.313.812-1.408,2.542-.139,2.542,3.087,0,5.118-6.108,3.464-10.418-.723-1.884-2.351-2.1-2.494-.332m207.559,8.5c-1.1,6.528-1.495,7.25-3.954,7.25-6.79,0-7.048,7.569-.338,9.908,2.687.937,6.616,0,4.767-1.141-.238-.147-1.738-.942-3.333-1.767-3.724-1.926-3.525-3.369.55-4,3.411-.528,3.923-1.54,5.182-10.25.4-2.8.188-3.75-.85-3.75-.829,0-1.647,1.516-2.024,3.75m-9.39-.331c-1.756,2.115-.912,5.081,1.446,5.081,1.527,0,1.986-.673,1.986-2.917,0-3.329-1.619-4.35-3.432-2.164m19.132.781a3.1,3.1,0,0,0,3.173,5.21c2.086-.8,2.118-5.007.045-5.8-2.014-.773-1.816-.809-3.218.593m-256.829,3.277a23.649,23.649,0,0,0-.219,6.5c.279,4.021.039,5.024-1.2,5.024a4.521,4.521,0,0,0-2.75,1.2c-1.689,1.689-1.494,4.8.3,4.8a1.5,1.5,0,0,0,1.5-1.5c0-1.083,1.111-1.5,4-1.5,3.387,0,4,.319,4,2.083,0,3.263,2.46,1.67,2.807-1.818.27-2.72-.052-3.16-2.75-3.753-2.989-.656-3.057-.8-3.057-6.591,0-5.59-1.328-7.835-2.629-4.444m18.221,2.606c-1.7,5.1-1.1,84.751.658,86.5,1.717,1.714,1.884-2.3,1.794-43.213-.085-38.421-.664-48.644-2.452-43.289m53.546,4.533c-2.928,2.051-1.371,4.171,1.67,2.272,1.582-.988,2.618-1.015,4.582-.12,2.946,1.342,4.47-.027,2.574-2.312-1.6-1.929-5.956-1.85-8.826.16m183.348,13.4a11.524,11.524,0,0,1-4.837,2.8c-3.236.839-4.864,3.189-2.208,3.189.885,0,2.036,1.125,2.559,2.5,2.094,5.508,11,1.368,11-5.114,0-5.2-3.309-6.912-6.514-3.371M207.726,144.75c-.215.412-.058,6.825.35,14.25s.789,20.925.848,30,.519,17.152,1.023,17.948c.935,1.478.946,1.45,2.538-6.311.52-2.536-1.03-40.046-2.082-50.387-.57-5.6-1.562-7.636-2.677-5.5M70.25,200.662c-.687.278-1.25,1.592-1.25,2.921,0,2.341.236,2.417,7.5,2.417H84v-6l-6.25.079a39.246,39.246,0,0,0-7.5.583m-12.912,9.459c-4.893,1.131-6.755,2.99-5.85,5.842,1.427,4.5,11.111,6.047,19,3.043,2.047-.78,20.135-1.274,57.419-1.57,44.219-.35,54.726-.689,56.011-1.8a17.157,17.157,0,0,1,4.581-2.424c2.188-.766-9.453-1.086-43-1.181-26.38-.075-48.986-.58-53-1.184-9.709-1.461-30.148-1.881-35.162-.723M205,213.136c1.925.526,6.339,2.139,9.808,3.585l6.309,2.629,3.675-3.675L228.467,212l-13.484.09c-10.469.07-12.7.3-9.983,1.046m-69.012,6.21c-.281.28-14.455.7-31.5.923-32.987.439-36.9.985-36.285,5.062.887,5.9,19.319,7.584,84.937,7.742,16.7.04,32.722.409,35.609.821a45.663,45.663,0,0,0,5.25.593c0-.085-2.406-1.812-5.347-3.837-4.922-3.39-7.653-6.939-7.653-9.947,0-1.209-43.839-2.531-45.012-1.357M194,223.917v2.833c0,.412.563.75,1.25.75s1.25-1.088,1.25-2.417-.562-2.6-1.25-2.833c-.733-.244-1.25.444-1.25,1.667m229.511,29.065c-.421.682-.9,4.227-1.072,7.879L421.507,281c-1.583,34.227-6.873,59.772-16.844,81.353-4.212,9.118-8.186,12.647-14.24,12.647-4.511,0-6.255,2.083-2.841,3.393,19,7.29,36.754-39.035,38.138-99.5.514-22.472-.074-29.367-2.209-25.912M504,393.355c0,.286.738,3.586,1.639,7.333,2.328,9.671,2.106,23.757-.547,34.782l-2.159,8.97,3.178,15.443c3.745,18.2,6.4,24.947,5.349,13.617a176.731,176.731,0,0,0-3.093-17.85l-2.446-10.85,2.163-8.637c3.4-13.553,1.539-41.455-2.856-42.92-.675-.225-1.228-.175-1.228.112M359.522,419.25c1.851,8.836,10.185,19.885,16.122,21.375,3.472.872,4.174-.377,1.3-2.307-6.351-4.259-12.678-12.016-14-17.159-1.5-5.867-4.615-7.6-3.422-1.909" fill="#050404" stroke="#050404" stroke-width="1" fill-rule="evenodd"/>
      </g>
    </g>
  </g>
</svg>
