<svg xmlns="http://www.w3.org/2000/svg" width="512" height="512"><defs><clipPath id="a"><path d="M0 0h512v512H0z"/></clipPath></defs><g clip-path="url(#a)"><g data-name="Group 444-vectormaker-co"><g fill-rule="evenodd" data-name="Group 444-vectormaker-co (1)"><path fill="#d3cfce" stroke="#d3cfce" d="M352.199 23.922c-17.365 3.881-25.753 15.7-26.991 38.038-1.1 19.8 5.425 34.855 17.987 41.518l4.364 2.316-.09 14.583c-.126 20.233 4.253 30.4 15.587 36.18l3.827 1.952-.408 6.726c-.224 3.7-.452 7.857-.508 9.24-.084 2.09-.963 2.822-5.194 4.324-2.8.995-5.242 1.659-5.426 1.476s-3.275-7.865-6.871-17.07c-9.994-25.586-27.131-57.912-39.662-74.815-16.364-22.074-43.748-39.41-73.388-46.45-39.675-9.426-66.879-2.577-72.487 18.248a21.834 21.834 0 0 1-3.063 6.532c-4.876 6.2-12.835 32.768-11.634 38.839.5 2.526-78.733 64.289-77.082 91.9h-5.4c-6.607 0-11.9 2.8-11.9 6.278 0 2.066-.7 2.431-6.552 3.434-7.721 1.323-11.166 3.311-12.086 6.977-1.5 5.975 5.573 11.778 13.388 10.984 3.949-.4 4.25-.26 4.25 1.991 0 3.247 3.9 6.96 8.635 8.226 4.768 1.275 65.7 3.173 92.865 2.893 27.986-.288 37.5 2.446 41.724 11.987 2.159 4.881 2.166 4.555-.8 39.226-1.834 21.436-1.809 55.385.052 69 5.139 37.589 21.024 58.5 51.039 67.188 11.092 3.211 40.912 3.31 52.237.174a60.86 60.86 0 0 1 7.254-1.767c0 .544-9.928 42.4-11.31 47.676-1.685 6.439-1.61 9.234.248 9.234 2.007 0 3.931-6.445 9.9-33.163l5.623-25.164 7.9-3.262a152.681 152.681 0 0 0 29.322-16.963l5.371-4.055 18.222 1.151c10.022.632 31.921.994 48.665.8l30.442-.347 1.772 3.032c7.015 12 5.51 38.686-2.764 49.016q-2.444 3.052-4.892 6.1c-1.689 2.1-2.08 4.462-2.511 15.169-.572 14.236-.577 14.2 1.731 11.89 1.233-1.232 1.834-4.247 2.282-11.44.653-10.478 1.453-12.718 6.6-18.473 8.376-9.369 11.117-37.873 4.857-50.5l-3.042-6.137 2.542-.585c1.4-.321 8.841-.865 16.541-1.208s14.769-1.021 15.708-1.505c5.256-2.71 7.144 25.84 2.866 43.352l-1.883 7.708 2.887 13.619c3.736 17.616 4.929 21.465 6.653 21.465 1.85 0 1.1-7.219-2.427-23.428l-2.6-11.928 1.9-7.072c3.807-14.2 1.764-43.343-3.17-45.236-1.217-.467-1.255-.846-.209-2.108 1.912-2.3 1.448-14.36-.951-24.728a139.225 139.225 0 0 1-2.706-18c-1.532-22.163-14.727-85.21-23.717-113.327-5.713-17.869-14.9-33.525-25.056-42.685-4.7-4.237-19.105-12.29-24.524-13.707-2.623-.686-3.032-3.326-3.867-24.961-.664-17.2-.621-17.784 1.584-21.5a136.6 136.6 0 0 0 6.123-13.32l3.855-9.5.017 10.526c.06 35.924 7.541 48.771 27.83 47.8 25.9-1.245 32.453-17.247 22.3-54.421-5.078-18.591-6.549-24.754-10.12-42.4-1.168-5.775-2.929-12.323-3.913-14.551-5.953-13.483-22.365-20.787-35.942-16-3.951 1.394-4.161 1.364-5.248-.75-4.124-8.024-9.993-11.091-20.81-10.874-6.532.131-10.911-.491-19.5-2.768-14.451-3.832-18.8-4.262-26.244-2.6M148.48 33.21c-3.757 12.624-3.8 19.864-.1 16.16 1.538-1.538 4.722-15.711 3.847-17.127s-3.222-.816-3.752.967m-39.129 3.274c-1.022 1.662 3.495 13.976 5.133 13.976 2.6 0 2.689-3 .283-9.056-2.235-5.626-3.989-7.221-5.411-4.92m77.444 7.343c-8.347 2.251-14.486 6.717-18.264 13.286-.365.635 1.867-.217 4.96-1.892 5.851-3.169 19.375-5.272 19.375-3.012 0 1.128-3.283 2.216-6.747 2.237-4.045.025-14.953 5.939-18.793 10.189-9.058 10.027-17.261 38.381-12.9 44.6 3.98 5.683 9.158 1.19 14.573-12.644 6.412-16.383 18.946-25.344 30.935-22.115 7.981 2.149 10.2 9.19 5.822 18.5-2.32 4.937-5.543 7.737-17.032 14.8-10.379 6.378 8.6 13.225 7.614 11.636-.762-1.232-4.792-1.226-6.027.009-1.7 1.7-4.134-.594-2.838-2.672 2.652-4.252 13.7-3.125 12.029 1.227-.694 1.81 14.021-4.491 19.843-8.5 7.361-5.065 13.423-13.7 16.512-23.517 1.387-4.409 4.615-8.5 6.707-8.5 1.032 0 .907.873-.538 3.75a78.486 78.486 0 0 0-3.552 8.855 52.568 52.568 0 0 1-4.637 9.785c-3.684 5.808-3.7 5.508.6 9.664a145.762 145.762 0 0 1 9.639 11.142c3.339 4.234 6.684 7.932 7.432 8.219a2.347 2.347 0 0 1 1.358 2.055c0 .941.907 1.531 2.354 1.531 5.318 0 10.3 8.971 7.935 14.279-.764 1.711.041 4.283 3.952 12.637 8.321 17.776 26.739 78.141 31.366 102.8 1.032 5.5 1.864 4.656 6.89-7.01 17.341-40.245 32.634-64.594 44.815-71.351 4.979-2.762-28.512-70.8-46.876-95.229-20.458-27.215-62.006-46.283-100.362-46.06-6.366.038-13.631.623-16.145 1.3M80.505 55.96c-.611 1.593 8.982 7.854 10.549 6.886 2.175-1.344.5-4.139-3.715-6.185-5.358-2.6-6.076-2.676-6.834-.7m274.352 21.166c0 2.658-.3 7.266-.658 10.24-.47 3.921-.336 5.213.488 4.7 1.516-.937 5.406 1.209 4.907 2.708-.216.65-1.706 1.409-3.31 1.687-2.64.456-2.948.922-3.232 4.885-.291 4.054-.192 4.259 1.319 2.748 2.4-2.4 5.72-.417 5.3 3.179-.28 2.42-.689 2.671-4.172 2.559l-3.862-.124.431 13.124c.483 14.711 2.168 19.933 8.464 26.228 5.661 5.661 18.938 8.034 29.736 5.315a24.092 24.092 0 0 1 7.193-.706l2.9.375-3 1.33c-1.65.732-3.9 1.717-5 2.189-3.451 1.481-15.115 2.92-18.377 2.268l-3.118-.622v17.037l4.25-.995c4.54-1.063 23.833-.375 29.836 1.064l3.585.859-.411-25.607c-.851-52.961-2.191-63.976-5.835-47.96s-8.713 14.421-10.034-3.136c-.893-11.866-1.983-13.133-15.891-18.465-5.5-2.109-12.25-5-15-6.435s-5.337-2.753-5.75-2.94-.754 1.836-.759 4.5m-166.3 2.6c-3.107 1.039-3.1 3.069.037 10.984 3.271 8.249 7.346 3.344 4.662-5.61-1.871-6.243-1.923-6.3-4.7-5.374m8.568 2.234c1.25 4.071 1.761 4.238 4.321 1.41 1.856-2.052 1.855-2.117-.036-3.5-3.731-2.728-5.5-1.866-4.285 2.09m-148.552.124c-1.923 1.923-.666 4.5 2.041 4.192 1.978-.227 2.75-.878 2.75-2.316 0-2.009-3.347-3.319-4.791-1.876m131.556 3.654c-2.484 2.716-5.262 8.074-5.262 10.151 0 3.2 5.447 7.921 8.314 7.2 3.822-.959 4.179-4.144 1.394-12.416l-2.413-7.163-2.03 2.221m20.485 3.411a2.464 2.464 0 0 0-1.75 2.25c0 2.609-3.83 7.062-6.073 7.062a1.742 1.742 0 0 0-1.927 1.619c0 3.086 9.3-5.065 11.218-9.837.4-.98.62-1.73.5-1.666s-1.005.322-1.968.573m175.5 5.1c-3.5.547-3.024 4.212.55 4.212a6.568 6.568 0 0 1 3.842 1.042c.724.724 1.435.57 2.323-.5 2.3-2.778-1.611-5.551-6.715-4.754M156.403 95.71a37.25 37.25 0 0 0-.816 4.75 24.139 24.139 0 0 1-1.176 5.25c-.6 1.373-.275 1.75 1.488 1.75 2.821 0 4.894-2.653 4.935-6.316.054-4.8-3.312-8.93-4.431-5.434m13.87 9.274-2.044 4.408 4.2.63c5.219.783 10.011-1.162 6.843-2.777a20.185 20.185 0 0 1-4.434-3.822l-2.525-2.847-2.044 4.408m194.253-3.774a29.808 29.808 0 0 0-1.172 5.5c-.613 4.094-1.031 4.75-3.026 4.75-3.147 0-5.458 2.547-5.458 6.015 0 3.533 3.163 5.985 7.723 5.985 4.384 0 4.246-2.168-.276-4.324-3.841-1.831-3.817-4.058.032-3.092 3.065.769 4.343-1.587 5.174-9.538.535-5.115.388-6.046-.952-6.046a2.7 2.7 0 0 0-2.045.75m8.464 5.026a3.536 3.536 0 0 0 3.371 5.224c2.953 0 3.883-1.374 3.084-4.557a3.522 3.522 0 0 0-6.455-.667m-150.91 6.218c-1.193.862-22.047 6.012-29.283 13.082-21.981 21.477-47.4 64.583-44.313 80.174 2.332 11.77 78.5-28.815 84.155-13.711 14.758-.039 14.775-.036 21.556 3.3 15.7 7.729 21.713 29.295 14.742 52.9-2.7 9.13-2.825 6.622 1.928 37.761 1.091 7.15 2.468 19.975 3.061 28.5s1.313 17.5 1.6 19.954l.526 4.454 1.924-2.454c9.183-11.708 12.063-18 9.522-20.81-3.5-3.871-3.072-7.063 3.244-24.051l6.05-16.273-6.022-24.66c-10.718-43.887-18.372-68.882-27.169-88.73-4.928-11.118-5.606-11.491-12.436-6.856a13 13 0 0 1-13.6.822c-3.873-1.941-8.194-21.2-3.363-21.924 2.83-.424 4.663-1.216 4.663-2.013 0-.723 1.107-2.185 2.461-3.249l2.46-1.936-7.576-9.137c-4.167-5.025-7.862-9.1-8.211-9.051a48.443 48.443 0 0 0-5.924 3.908M34.866 122.583a17.534 17.534 0 0 0-4.581 2.953c-2.067 1.941-2.1 1.94-3.906-.06-2.418-2.673-8.4-2.7-11.244-.053-2.6 2.424-2.9 12.143-.488 15.827 3.279 5.005 13.413 6.921 19.582 3.7 1.576-.822 5.4-1.5 8.5-1.5 6.4 0 11.483-2.468 13.3-6.449 2.262-4.964-2.342-10.541-8.71-10.541-1.353 0-2.453-.438-2.453-.974 0-.987-5.229-4.079-6.7-3.963a18.776 18.776 0 0 0-3.3 1.06m337.373 6.188a21.6 21.6 0 0 1-5.811 3.353c-3.513 1.149-4.519 3.273-1.879 3.964a5.146 5.146 0 0 1 2.855 2.684c2.555 5.819 12.954.367 12.275-6.436-.5-4.989-3.817-6.579-7.44-3.565m-154.873 82.417 3-2.246c4.51-3.376 9.1-5.482 11.95-5.482 4.112 0 2.961 1.762-3.2 4.9-5.775 2.941-12.844 9.025-15.893 13.678-1.954 2.983-3.823 2.817-13.357-1.187-8.557-3.594-27.686-3.928-25.535-.447.3.487-.018 1.091-.709 1.342-6.915 2.515 29.988 23.838 42.494 24.554 7.772.444 8.553 1.4 2.5 3.07-4.489 1.237-12.685.265-16.929-2.006-1.878-1.005-2.034-.921-1.342.73 1.677 4 1.666 12.8-.043 33.414-5.718 68.965-.028 104.262 20.064 124.48 31.355 31.552 104.8 20.211 139.1-21.477 6.641-8.072 6.643-8.107.725-10.123-19.967-6.8-49.018-27.667-61.854-44.425l-5.658-7.388-4.827 7.193a82.1 82.1 0 0 1-8.4 10.638l-3.586 3.446-.015 18.054c-.014 16.631-.724 22.148-2.607 20.266-.4-.4-1.086-13.391-1.522-28.864-.829-29.481-3.638-61.831-6.917-79.682-2.424-13.19-2.431-19-.034-26.881 6.846-22.509.027-44.258-15.3-48.81m-152.144 3.592c-.852 1.378.079 2.27 2.561 2.453 1.306.1 1.98-.478 1.98-1.687 0-2.009-3.417-2.586-4.541-.766m-36.961.643c-1.952.509-3.454 2.034-3.485 3.54-.008.412 3.135.75 6.985.75 6.333 0 7-.19 7-2 0-1.4-.671-2-2.25-2.014a27.639 27.639 0 0 1-4.25-.4 10.756 10.756 0 0 0-4 .129m-8.032 9.272c-9.011.8-12.468 2.187-12.468 5 0 4.644 9.889 6.578 18.5 3.618 4.789-1.646 90.128-3.174 102.646-1.837 7.042.751 7.846.645 10.163-1.348l2.516-2.165-48.162-.478c-28.738-.286-49.171-.884-50.663-1.484-3.809-1.531-13.6-2.1-22.532-1.3m152.226 2.951-7.807.567 5.976 2.63 5.977 2.631 3.276-3.381c1.808-1.865 2.628-3.3 1.83-3.2s-4.959.439-9.252.75m-117.194 8.041c-27.892.591-30.5.942-30.5 4.1 0 4.075 3.6 4.893 26.1 5.924 16.782.768 94.907 1.9 94.9 1.375 0-.065-1.792-1.3-3.981-2.752-2.252-1.49-4.262-3.752-4.627-5.206a5.579 5.579 0 0 0-3.084-3.5c-2.522-.959-31.966-.938-78.808.055m93.969 1.518c-.258.825-.667 2.142-.91 2.927a2.923 2.923 0 0 0 1.109 2.712c1.815 1.507 4.781-1.527 3.854-3.942a8.048 8.048 0 0 1-.522-2.279c0-1.527-3.028-1.028-3.531.582m230.274 32.504c-.359 1.375-.934 10.375-1.28 20-1.376 38.345-6.88 66.036-17.579 88.433-4.15 8.689-7.4 11.584-14.041 12.5-6.657.92-4.1 2.581 2.779 1.8 6.035-.68 9.728-4.261 14.169-13.739 10.857-23.172 16.546-50.613 17.764-85.693.576-16.559-.377-28.812-1.812-23.307m71.646 158.751c-.086 8.386-.8 13.569-3.25 23.576-1.726 7.054-3.139 14.6-3.139 16.767 0 4.514 3.564 22.054 5.315 26.156 3.335 7.816 3.419-3.246.139-18.55l-1.885-8.8 2.26-8.7c4.562-17.562 6-30.663 4.118-37.45-2.013-7.249-3.44-4.44-3.558 7m-45.706 1.5c-.918 13.725-5.759 27.538-12.724 36.3-1.652 2.08-3.18 4.719-3.394 5.865-1.977 10.577-4.067 26.774-3.5 27.124 2.082 1.287 5.713-9.19 6.588-19.007.513-5.758 1.213-7.849 3.863-11.533 8.806-12.241 14.987-33.469 12.934-44.415-1.288-6.868-3.112-4.125-3.767 5.665m31.257-8c-.033.688-.016 5.75.037 11.25.11 11.213-1.811 20.3-7.019 33.2-3.879 9.608-4.22 26.276-.721 35.3l.969 2.5.915-2.387c.5-1.313.662-7.662.352-14.109-.549-11.4-.479-11.937 2.535-19.523 6.189-15.581 9.05-36.938 6.017-44.916-1.012-2.661-2.98-3.5-3.085-1.315m-86.975 6.5c-2.794 7.376-5.49 20.5-7.409 36.071-.836 6.776-2.253 16.451-3.149 21.5-2.027 11.407-2.169 13.592-.907 13.9 2.212.531 5.472-12.64 7.9-31.921 2.639-20.939 4.5-31.011 7.042-38.172 3.215-9.043-.08-10.345-3.479-1.374m26.7-4.083c-.367.366-.667 2.137-.667 3.934 0 4.316-2.16 14.4-5.977 27.912-5.362 18.99-8.766 43.49-6.038 43.49.539 0 1.252-1.238 1.583-2.75s.827-3.425 1.1-4.25 1.37-6.644 2.436-12.932 3.532-17.311 5.479-24.5c5.99-22.108 6.91-35.726 2.088-30.9m-77.4 6.594c-7.49 9.707-20.559 72.2-13.425 64.189.466-.523 1.616-5.45 2.557-10.95a343.937 343.937 0 0 1 9.587-40c1.536-4.95 3.024-10.012 3.307-11.249.6-2.6-.627-3.8-2.026-1.99m15.733 2.249c0 9.274 13.766 25.328 19.75 23.032 1.182-.454-.294-2.383-5.991-7.827-6.514-6.224-7.792-8.02-9.231-12.97-1.93-6.639-4.528-7.921-4.528-2.235m.522 18.739c-.284 1.238-1.416 8.171-2.515 15.408s-2.583 16.012-3.3 19.5c-1.995 9.747-.492 13.246 2.617 6.092 2.474-5.691 7.457-38.768 6.3-41.793-.838-2.184-2.515-1.755-3.1.793" data-name="Path 20"/><path fill="#050404" stroke="#050404" d="M350.505 24.91c-16.203 4.665-24.639 18.324-24.639 39.894 0 18.971 6.222 32.188 17.951 38.131l4.727 2.4-.468 12.96c-.4 11.217-.182 13.9 1.655 19.95 2.366 7.79 8.719 15.976 14.142 18.222l3.06 1.267-.284 9.944-.283 9.944-5.453 1.918c-6.517 2.292-5.961 2.787-10.439-9.274-10.308-27.76-27.308-60.928-40.908-79.806-20.673-28.7-55.9-47.589-95.46-51.194-29.055-2.649-45.672 4.418-50.649 21.538-.862 2.967-2.218 5.934-3.013 6.594-3.759 3.117-11.578 28.08-11.578 36.953 0 4.739 3.52 10.211 7.2 11.19 4.732 1.259 8.862-1.742 12.857-9.342l3.553-6.761 2.208 2.985a11.571 11.571 0 0 0 5.384 3.809l3.178.823-3.188 2.271c-7.892 5.619-1.779 15.134 9.723 15.134 8.068 0 25.489-7.192 34.273-14.149l3.991-3.161 3.937 4.4c2.166 2.423 5.78 6.767 8.031 9.655 3.515 4.509 6.853 6.755 6.853 4.611 0-1.086-11.017-14.169-14.528-17.251l-3.323-2.918 3.139-4.269c3.937-5.348 10.696-24.118 7.712-21.418-1.056.955-2.841 4.506-3.968 7.892-5.008 15.05-13.62 22.821-34.416 31.055-11.991 4.748-21.556 2.929-21.606-4.108-.011-1.665 2.432-3.725 10.585-8.922 11.322-7.218 14.888-11.186 16.5-18.365 1.965-8.747-3.774-14.05-13.729-12.685-10.666 1.461-17.421 7.86-23.781 22.527-6.373 14.7-10.48 18.212-15.186 13-5.6-6.206 3.8-38.421 13.869-47.519 4.513-4.076 13.279-8.416 19.226-9.518 3.341-.619 2.982-.7-2.176-.489-4.705.193-7.656 1.029-12.391 3.51l-6.214 3.258 2.5-4.316c16.847-29.066 98.39-10.58 132.335 30 11.97 14.309 33.387 53.443 45.8 83.683l5.746 14-2.3 1.486c-13.85 8.95-26.105 28.387-44.388 70.4-4.76 10.938-7.009 15.141-7.225 13.5-.572-4.36-13.98-56.2-17.686-68.382-6.726-22.112-17.924-49.5-20.238-49.5-1.879 0-1.636.914 2.806 10.528 8.216 17.783 16.587 44.954 27.34 88.735 6.776 27.59 6.769 24.311.091 42.1-6.165 16.424-6.409 18.159-3.309 23.545l2.191 3.807-4.677 7.391a130.281 130.281 0 0 1-7.58 10.843l-2.9 3.451-.66-11.951c-.931-16.836-3.333-39.043-5.617-51.917-2.375-13.388-2.493-23.791-.338-29.659 2.2-6 2.995-22.6 1.414-29.72-3.677-16.575-13-24.074-30.993-24.941-11.957-.575-21.028.4-21.028 2.251 0 1.054 2.5 1.215 12.277.793 19.844-.858 29.272 3.481 34.8 16.014 3.421 7.751 3.91 23.689 1.024 33.379-2.5 8.4-2.685 17.184-.581 28.01 3.647 18.771 7.364 64.524 7.542 92.838.042 6.6.462 12.9.935 14 1.1 2.563 1.478-5.384 1.066-22.512l-.3-12.511 4.453-4.989a128.988 128.988 0 0 0 9.011-11.819l4.557-6.83 5.981 7.856c12.968 17.036 38.473 35.667 60.047 43.864l8.316 3.16-6.036 7.5c-34.671 43.1-108.744 55.055-141.114 22.778-19.6-19.544-25.966-56.989-20.488-120.5 1.924-22.315 1.926-34.172.006-37.855-1.38-2.644-1.361-2.8.256-2.106 5.136 2.205 12.919 3.587 16.866 2.995 6.391-.958 6.167-2.251-.4-2.3-7.452-.054-15.638-3.374-29.623-12.018-11.22-6.934-15.138-10.654-14.092-13.381 1.784-4.647 17.314-5.356 26.991-1.231 10.223 4.357 10.755 4.264 17.632-3.087 3.685-3.939 8.147-7.486 11.453-9.1 4.874-2.385 6.942-4.415 4.5-4.415-1.936 0-9.733 3.832-12.591 6.188-2.837 2.339-3.4 2.428-10.992 1.71-4.4-.415-12.838-.788-18.75-.827-7.87-.052-14.217.032-14.25-.883-.272-7.492 3.687-34.8 4.17-38.581.537-4.2 1.027-5.044 3.478-5.969 3.618-1.366 3.668-2.643.1-2.623-6.416.036-7.194 3.133-7.226 28.735l-.015 19.247h-57.81c1.212-13.365-3.283-11.577-1.911 0H98.63c-10.183 0-19.86-.269-21.5-.6l-2.99-.6c-.832-79.981 18.517-69.434 0-15.554-1.2 5.017-9.178 4.73-11.065 4.736-5.173.017-9.424 3.46-8.524 6.9.48 1.835.114 2.113-2.814 2.134-13.416.1-19.666 6.448-13.454 13.67 2.179 2.533 3.039 2.806 8.841 2.806 5.627 0 6.371.218 5.971 1.748-.671 2.565 2.447 6.717 6.232 8.3 4.178 1.745 45.966 3.437 85.157 3.446 54.716.013 56.219 1.426 51.831 48.741-1.9 20.463-2.187 59.579-.527 71.266 6.424 45.236 28.274 67.359 69.582 70.451a122.088 122.088 0 0 0 34.188-3.109c3.511-.882 6.564-1.423 6.784-1.2s-2.5 12.531-6.036 27.356c-6.621 27.73-6.963 29.508-5.686 29.5 1.422-.007 4.178-8.535 7.27-22.5 1.7-7.7 3.973-17.881 5.04-22.624a88.9 88.9 0 0 0 1.94-10.8c0-1.56.921-2.5 3.25-3.3 7.389-2.552 26.741-13.053 33.5-18.18l7.253-5.5 14.247 1c17.22 1.212 59.439 1.478 73.246.461l10-.736 2.761 5.633c7.317 14.931 4.653 40.782-5.262 51.045-4.835 5.005-6.036 9.255-5.778 20.454.337 14.682 3.482 8.221 3.706-7.614.063-4.428.624-5.858 3.955-10.071 11.4-14.421 14.171-39.21 6.061-54.19a32.749 32.749 0 0 1-2.689-5.6c.918-.651 21.021-2.484 27.253-2.484 8.9 0 10.886-.821 12.388-5.128 1.6-4.575 1.35-10.089-.928-20.872-1.1-5.225-2.472-14.632-3.041-20.9-2.619-28.852-17.441-96.562-26.314-120.212-9.069-24.169-22.712-39.258-42.166-46.634l-7.231-2.742-.581-7.5c-.32-4.127-.869-13.368-1.22-20.535l-.639-13.032 4.539-9.468c4.231-8.826 8.458-20.222 8.86-23.884.1-.872.483 7.64.861 18.915 1.165 34.7 6.5 44.265 24.7 44.3 13.216.026 21.131-4.245 25.9-13.979 4.569-9.319 4.047-16.879-2.955-42.823-3.118-11.55-7-27.616-8.633-35.7-4.178-20.713-8.423-27.884-19.483-32.908-5-2.27-16.156-2.505-21.091-.444-3.281 1.371-3.52 1.332-4.586-.75-4.373-8.535-10.687-11.581-23.887-11.516a49.394 49.394 0 0 1-17-2.594c-10.436-3.237-20.73-4.038-27.361-2.129M147.412 40.528c-.959 4.438-1.485 8.327-1.169 8.643 1.374 1.373 3.423-2.156 4.052-6.978.376-2.878.931-6.246 1.235-7.483.383-1.56.1-2.25-.911-2.25s-1.992 2.446-3.207 8.068m-37.546-3.368c0 2.692 3.688 12.3 4.722 12.3 1.833 0 1.578-3.135-.686-8.417-1.675-3.906-4.036-6.183-4.036-3.883M81.49 55.17c-1.264 1.264-.524 2.16 3.976 4.79 4.285 2.512 7.254 2.443 5.608-.129-1.021-1.6-8.845-5.406-9.584-4.666m272.976 20.562c-1.75 14.379-1.587 16.6 1.239 16.926 3.752.436 4.267 3.771.542 3.5-3.781-.271-4.592 3.7-4.754 23.3-.139 16.716.374 19.026 6.046 27.239 6.294 9.114 21.617 11.83 39.825 7.06 3.985-1.044-.052 1.316-5.5 3.215a43.037 43.037 0 0 1-13.749 1.951l-8.249.042v8.75c0 4.813.336 8.735.749 8.717s3.858-.433 7.656-.922c6.326-.815 14.816-.325 27.41 1.582l4.315.654-.549-5.891c-.3-3.239-.8-20.5-1.111-38.349-.548-31.619-1.157-37.432-3.934-37.513-.53-.015-1.709 3.254-2.619 7.266-3.25 14.313-7.781 12.932-8.865-2.7-.871-12.557-1.7-13.6-14.924-18.682-5.3-2.036-12.64-5.2-16.32-7.039l-6.692-3.338-.515 4.233m-158.601 3.577c0 2.368 2 7.155 2.986 7.155 2.216 0 5.342-5.1 3.958-6.455-2.687-2.63-6.944-3.06-6.944-.7m-8.25.235c-2.331 1.358-2.208 4.985.373 10.985 3.238 7.527 8.77 5.149 6.677-2.87-.531-2.032-1.2-4.932-1.5-6.445-.56-2.9-2.46-3.472-5.554-1.67M47.866 83.96c0 .933.944 1.5 2.5 1.5s2.5-.567 2.5-1.5-.944-1.5-2.5-1.5-2.5.567-2.5 1.5m131.469 1.719c-4.938 5.869-5.937 8.974-4.057 12.611 5.439 10.518 15.566 4.957 10.662-5.855a23.118 23.118 0 0 1-2.052-6.666c-.035-3.519-1.641-3.551-4.553-.09m22.146 2.717c-1.037.377-2.612 2.192-3.5 4.034-1.579 3.273-2.819 4.331-6.365 5.426a2.822 2.822 0 0 0-1.75 2.6c0 2.709 3.989.787 8.63-4.159 5.252-5.6 6.621-9.22 2.985-7.9m172.885 7.07c-.343.554.193 1.266 1.191 1.581s2.809.971 4.027 1.456c2.914 1.159 4.234-.878 1.748-2.7-2.169-1.586-6.079-1.777-6.966-.341m-217.6 1.247c-.056.688-.025 2.667.068 4.4s-.312 3.446-.9 3.809c-1.313.812-1.408 2.542-.139 2.542 3.087 0 5.118-6.108 3.464-10.418-.723-1.884-2.351-2.1-2.494-.332m207.559 8.5c-1.1 6.528-1.495 7.25-3.954 7.25-6.79 0-7.048 7.569-.338 9.908 2.687.937 6.616 0 4.767-1.141-.238-.147-1.738-.942-3.333-1.767-3.724-1.926-3.525-3.369.55-4 3.411-.528 3.923-1.54 5.182-10.25.4-2.8.188-3.75-.85-3.75-.829 0-1.647 1.516-2.024 3.75m-9.39-.331c-1.756 2.115-.912 5.081 1.446 5.081 1.527 0 1.986-.673 1.986-2.917 0-3.329-1.619-4.35-3.432-2.164m19.132.781a3.1 3.1 0 0 0 3.173 5.21c2.086-.8 2.118-5.007.045-5.8-2.014-.773-1.816-.809-3.218.593m-237.95 92.381c1.717 1.714 1.884-2.3 1.794-43.213m51.094-38.756c-2.928 2.051-1.371 4.171 1.67 2.272 1.582-.988 2.618-1.015 4.582-.12 2.946 1.342 4.47-.027 2.574-2.312-1.6-1.929-5.956-1.85-8.826.16m183.348 13.4a11.524 11.524 0 0 1-4.837 2.8c-3.236.839-4.864 3.189-2.208 3.189.885 0 2.036 1.125 2.559 2.5 2.094 5.508 11 1.368 11-5.114 0-5.2-3.309-6.912-6.514-3.371m-176.76 16.73c-.215.412-.058 6.825.35 14.25M58.116 202.122c-.687.278-1.25 1.592-1.25 2.921 0 2.341.236 2.417 7.5 2.417h7.5v-6l-6.25.079a39.246 39.246 0 0 0-7.5.583m-12.912 9.459c-4.893 1.131-6.755 2.99-5.85 5.842 1.427 4.5 11.111 6.047 19 3.043 2.047-.78 20.135-1.274 57.419-1.57 44.219-.35 54.726-.689 56.011-1.8a17.157 17.157 0 0 1 4.581-2.424c2.188-.766-9.453-1.086-43-1.181-26.38-.075-48.986-.58-53-1.184-9.709-1.461-30.148-1.881-35.162-.723m147.663 3.012c1.925.526 6.339 2.139 9.808 3.585l6.309 2.629 3.675-3.675 3.675-3.675-13.484.09c-10.469.07-12.7.3-9.983 1.046m-69.012 6.21c-.281.28-14.455.7-31.5.923-32.987.439-36.9.985-36.285 5.062.887 5.9 19.319 7.584 84.937 7.742 16.7.04 32.722.409 35.609.821a45.663 45.663 0 0 0 5.25.593c0-.085-2.406-1.812-5.347-3.837-4.922-3.39-7.653-6.939-7.653-9.947 0-1.209-43.839-2.531-45.012-1.357m58.013 4.571v2.833c0 .412.563.75 1.25.75s1.25-1.088 1.25-2.417-.562-2.6-1.25-2.833c-.733-.244-1.25.444-1.25 1.667m229.511 29.065c-.421.682-.9 4.227-1.072 7.879l-.932 20.139c-1.583 34.227-6.873 59.772-16.844 81.353-4.212 9.118-8.186 12.647-14.24 12.647-4.511 0-6.255 2.083-2.841 3.393 19 7.29 36.754-39.035 38.138-99.5.514-22.472-.074-29.367-2.209-25.912m80.489 140.374c0 .286.738 3.586 1.639 7.333 2.328 9.671 2.106 23.757-.547 34.782l-2.159 8.97 3.178 15.443c3.745 18.2 6.4 24.947 5.349 13.617a176.731 176.731 0 0 0-3.093-17.85l-2.446-10.85 2.163-8.637c3.4-13.553 1.539-41.455-2.856-42.92-.675-.225-1.228-.175-1.228.112M347.388 420.71c1.851 8.836 10.185 19.885 16.122 21.375 3.472.872 4.174-.377 1.3-2.307-6.351-4.259-12.678-12.016-14-17.159-1.5-5.867-4.615-7.6-3.422-1.909" data-name="Path 23"/></g></g><path fill="#1d1d1b" d="M92.041 83.72a75.66 75.66 0 0 1 31.963-10.029c12.075-.6 23.155 2.245 38.526 9.6s23.866 14.376 30.372 26.451 10.029 20.968 6.478 36.679-4.631 31.51-10.938 42.422-16.848 18.468-32.475 22.388-37.844 6.478-57.018-4.091-32.677-26.281-37.649-48.015-.881-33.043 2.841-43.243a67.165 67.165 0 0 1 27.9-32.162Z" data-name="Path 24"/><path fill="#81bd4d" d="M97.354 85.34a64.921 64.921 0 0 1 21.848-7.387c11.365-1.335 29.747 3.746 31.679 4.631s3.551 1.421 2.841 1.96-7.188 6.194-9.489 6.563-10.285-1.591-16.337-1.335-10.115 1.421-13.04 1.421-7.1-3.211-9.944-3.466-8.893-1.676-7.557-2.387Z" data-name="Path 25"/><path fill="#85bfe9" d="M91.756 89.772a16.535 16.535 0 0 1 11.819.966c4.6 2.5 4.091 3.551 10.37 3.466s9.347-1.136 11.194-.71 9.688 3.836 16.621 2.5a29.6 29.6 0 0 0 12.16-4.972c2.046-1.335 3.267-3.551 4.517-3.381s12.53 6.847 12.331 7.557a12.842 12.842 0 0 1-4.858 4.262 21.11 21.11 0 0 0-7.927 9.83c-1.421 4.177-2.216 16.706-.341 17.956s6.648-.54 8.523.881 2.3 5.853 5.427 6.222 4.432-1.96 7.273 0 2.841 3.438 7.273 3.551 8.523-.909 8.779 0a7.018 7.018 0 0 1-.341 4.063c-.455.284-15.456 2.046-19.007 2.245s-2.841.966-4.8 0-5.057-4.631-9.632-5.341-18.551-1.591-21.308-1.591-3.551 0-3.836 1.335.284 14.717-1.136 19.093-.455 11.535 4.688 13.581 10.484 3.1 11.194 4.972 3.211 14.206 5.427 18.382 5.313 8.95 4.262 9.83a57.7 57.7 0 0 1-17.047 4.375 67.166 67.166 0 0 1-16.422 0s-3.3-17.047-4.177-18.581a13.268 13.268 0 0 1-1.165-6.648c.369-1.165 6.648-13.836 5.853-17.047s-2.046-6.478-4.972-7.273-7.813 0-15.712 0a79.1 79.1 0 0 1-15.172-1.25c-1.591-.341-2.5 0-3.211-.8s-6.477-11.36-5.681-12.33 8.893-3.3 9.234-5.171-.17-6.393 1.875-6.563 11 1.08 13.836-.426 3.211-4.972 3.3-8.012-1.051-9.66-2.387-10.91-14.21-5.139-19.094-7.724-9.006-4.6-8.467-6.307a35.373 35.373 0 0 1 10.74-10.029Z" data-name="Path 26"/><path fill="#1d1d1b" d="M97.184 95.823c1.534-.2 1.676.994 1.136 2.046s0 4.887 1.7 4.8a157.855 157.855 0 0 1 18.188-3.01 74.95 74.95 0 0 1 22.729 4.688c2.131 1.165 3.125 5.682 3.3 7.018a83.644 83.644 0 0 1-7.813 15.712c-.8.426-9.063-2.841-15-5.682s-8.523-4.177-8.779-5.341a17.7 17.7 0 0 0-1.421-4.8c-.54-.256-8.523-.8-12.359-3.1s-7.279-6.052-6.568-7.645a11.876 11.876 0 0 1 4.887-4.688Z" data-name="Path 27"/><path fill="#81bd4d" d="M108.179 103.977a59.1 59.1 0 0 1 20.6.881c9.063 1.79 10.484 3.3 10.228 5.512s-3.638 11.364-4.884 10.91a118.706 118.706 0 0 1-15.087-6.194c-.625-.909-.824-5.341-3.466-6.137s-8.183-2.5-10.029-3.211-1.421-1.421-.994-1.421 3.637-.341 3.637-.341Z" data-name="Path 28"/><path fill="#81bd4d" d="M174.15 96.421c.6-.2 8.353 3.04 13.666 13.155s7.018 22.559 6.393 23.7-2.557 1.25-4.347.71-8.836-4.432-10.37-4.432-4.006 1.335-5.057 0-4.262-5.313-7.472-5.313-3.892.54-4.432-.17-2.3-15.712 1.051-18.468 6.307-4.517 7.643-5.682 2.131-3.211 2.926-3.495Z" data-name="Path 29"/><path fill="#81bd4d" d="M140.426 141.282c1.023 0 16.251-1.136 19.263 1.79s5.512 6.108 8.069 6.023 26.11-2.131 26.11-1.222-2.673 21.309-6.762 31.679a45.2 45.2 0 0 1-15.711 20.059c-3.267 1.875-6.648 2.585-6.9 2.046a62 62 0 0 1-6.506-16.848c-1.932-9.149-2.472-13.41-5.483-14.206s-10.489-2.562-11.911-4.347a11.365 11.365 0 0 1-1.59-5.315s.8-11.024.8-13.41.085-6.251.625-6.251Z" data-name="Path 30"/><path fill="#81bd4d" d="M88.489 161.767a36.2 36.2 0 0 0 13.752 2.59c9.4.17 18.638-.881 19.632.256s.8 5.057-1.25 8.808a60.746 60.746 0 0 0-3.381 7.359 74.326 74.326 0 0 0-8.978-7.1 1.676 1.676 0 0 0-.966 1.96c.369.8 8.523 6.307 8.893 7.018a27.7 27.7 0 0 1-.284 4.972 73.187 73.187 0 0 0-8.524-6.773c-1.051-.17-1.762 2.415-1.421 2.841s10.029 7.1 11.365 8.268a17.217 17.217 0 0 1 2.387 7.191c-.256 0-11.081-8.779-11.706-8.893s-.8 2.841-.8 2.841 12.785 9.063 13.211 9.774a18.439 18.439 0 0 1 1.25 5.341 92.533 92.533 0 0 1-10.2-2.585c-3.551-1.335-6.677-2.046-6.677-2.3s-3.324-10.74-7.984-15.285a36.68 36.68 0 0 1-6.705-7.529 88.333 88.333 0 0 1-.994-10.569c-.114-2.415-1.165-8.183-.625-8.183Z" data-name="Path 31"/><path fill="#85bfe9" d="M68.857 162.307c.54-1.051 7.273.71 10.484 1.96s4.262 2.841 4.347 5.313-.369 13.24 1.847 15.2a30.429 30.429 0 0 1 8.722 9.319 20.626 20.626 0 0 1 2.841 6.222 57.249 57.249 0 0 1-16.791-15.622c-9.063-11.734-11.706-21.849-11.45-22.388Z" data-name="Path 32"/><path fill="#81bd4d" d="M66.272 155.999a50.175 50.175 0 0 1-.341-27.417c3.892-16.166 11.365-24.775 11.99-24.69s15.342 8.523 21.309 11.365 6.307 2.841 6.734 4.091a28.781 28.781 0 0 1-.54 9.489c-.511.256-11.166-.256-14.206 0s-3.949 4.517-3.722 6.222.369 2.472-.341 3.012-10.228 3.097-10.743 5.681 6.734 15.257 5.682 15.626-12.982-.452-15.822-3.379Z" data-name="Path 33"/><g fill="#1d1d1b" data-name="Group 448"><path d="M71.244 124.746a54.238 54.238 0 0 1 3.3-10.37c1.421-2.131 2.046-2.585 2.671-2.415s2.387.994 2.216 1.506-3.211 6.393-4.006 8.978 0 2.585-1.136 2.841-2.676.085-3.045-.54Z" data-name="Path 34"/><path d="M152.614 97.498c.455-.4 7.188-2.046 7.643-1.421s.966 1.25.511 1.591a33.384 33.384 0 0 1-7.444 2.671c-.568-.283-1.278-2.414-.71-2.841Z" data-name="Path 35"/><path d="M148.239 118.354c.426.455 4.177 6.478 3.722 7.018s0 1.335-.966.881a17.729 17.729 0 0 1-4.375-6.307 5.694 5.694 0 0 1 1.619-1.592Z" data-name="Path 36"/><path d="M144.092 122.445a34.6 34.6 0 0 1 4.887 5.938c0 .54 0 1.335-.881 1.08a22.928 22.928 0 0 1-5.285-5.228c0-.454 1.279-1.875 1.279-1.79Z" data-name="Path 37"/><path d="M179.123 109.035a20.4 20.4 0 0 1 7.1 3.466c0 .54.284 1.96-.426 1.676s-7.217-2.841-7.472-3.182.71-1.875.8-1.96Z" data-name="Path 38"/><path d="M178.498 115.711c.227-.313 11.365 6.194 11.365 7.188s.994 1.676-.17 1.506a85.719 85.719 0 0 1-12.075-6.137c-.341-.54.568-2.131.881-2.557Z" data-name="Path 39"/><path d="M177.447 121.394a72.251 72.251 0 0 1 13.751 7.444c.17.8.8 1.676-.341 1.591a115.294 115.294 0 0 1-14.035-6.735 3.015 3.015 0 0 1 .625-2.3Z" data-name="Path 40"/><path d="M180.117 154.152a37.417 37.417 0 0 1 8.239 7.9c-.256.71 0 1.051-.8.8a63.554 63.554 0 0 1-8.859-7.73c.17-.455.966-.8 1.421-.966Z" data-name="Path 41"/><path d="M175.657 159.55a80.714 80.714 0 0 1 9.518 8.978c0 .71-.369 1.335-.71 1.25a118.535 118.535 0 0 1-9.774-8.523 13.494 13.494 0 0 1 .966-1.705Z" data-name="Path 42"/><path d="M172.814 165.318a66.341 66.341 0 0 1 9.518 9.433c-.2.71.17 1.136-.71 1.051a111.405 111.405 0 0 1-10.029-8.95 9.063 9.063 0 0 1 1.221-1.534Z" data-name="Path 43"/><path d="M170.6 170.034a82.792 82.792 0 0 1 9.688 9.319c0 .71-.284 1.165-.625.881a124.784 124.784 0 0 1-10.91-8.779 2.387 2.387 0 0 1 1.847-1.421Z" data-name="Path 44"/><path d="M168.838 178.558a45.459 45.459 0 0 1 8.694 7.728c0 .625-.455 1.051-.71.966a95.555 95.555 0 0 1-9.063-7.1c-.085-.54.881-1.506 1.08-1.591Z" data-name="Path 45"/><path d="M166.821 183.7c.483 0 9.234 7.643 8.523 8.353s-.341 1.051-1.051.8a63.273 63.273 0 0 1-8.893-7.647c.313-.426.938-1.506 1.421-1.506Z" data-name="Path 46"/><path d="M138.921 176.597c.256-.4 3.722.881 3.637 1.7s0 .966-.455.966a14.206 14.206 0 0 1-4.347-1.244c0-.342.966-1.137 1.165-1.422Z" data-name="Path 47"/><path d="M133.124 187.535a4.148 4.148 0 0 1 3.3 0c1.335.625 3.3 2.841 5.057 3.125s3.125-.8 3.551-.54a1.051 1.051 0 0 1 .455 1.335c-.284.455-.455.881-1.165 1.051a5.682 5.682 0 0 1-4.262-.426c-1.648-1.108-2.671-2.5-4.489-2.5s-1.619.341-1.96 0-1.197-1.445-.487-2.045Z" data-name="Path 48"/><path d="M112.839 167.278c.71.455 5.853 4.972 5.682 5.682s-.54 1.421-1.08 1.25a28.7 28.7 0 0 1-6.108-5.171c-.028-.682 1.506-1.762 1.506-1.762Z" data-name="Path 49"/><path d="M107.753 139.662c.341 0 7.984 11.9 7.359 12.53s-.966 1.25-1.335.881a127.138 127.138 0 0 1-8.07-12.331 3.722 3.722 0 0 1 2.046-1.08Z" data-name="Path 50"/><path d="M110.679 138.441c0-.341 1.676-1.08 2.216-.54a34.093 34.093 0 0 1 3.892 7.728c-.256.511 0 1.335-.71.8a50 50 0 0 1-5.4-7.984Z" data-name="Path 51"/><path d="M126.306 137.617c.227-.313 2.841-2.841 3.637-2.841s2.841 0 2.585.625-4.006 5.427-4.716 4.972a4.716 4.716 0 0 1-1.506-2.756Z" data-name="Path 52"/></g></g></svg>