<svg xmlns="http://www.w3.org/2000/svg" width="488.716" height="421.097" viewBox="0 0 488.716 421.097">
  <g id="_8393353-vectormaker-co" data-name="8393353-vectormaker-co" transform="translate(-11.962 -44.128)">
    <path id="Path_6" data-name="Path 6" d="M206.5,45.152c-1.65.54-7.457,1.327-12.9,1.749-9.666.749-9.982.852-13.147,4.306-2.245,2.45-3.659,3.275-4.6,2.681-2.5-1.585-10.8-.954-14.892,1.132-5.822,2.97-8.685,8.093-11.51,20.6-1.353,5.986-4.032,16.25-5.955,22.811-3.949,13.474-4.266,18.281-1.591,24.171,2.652,5.84,7.137,8.7,14.455,9.233,11.679.845,15.988-4.412,17.879-21.815l1.092-10.047,2.807,6.265c3.052,6.815,3.5,12.884,2.2,29.643l-.652,8.377-5.592,2.493A584.171,584.171,0,0,0,84.7,196.217c-10.61,7.114-11.795,9.073-8.878,14.67l2.09,4.01L63.1,229.7c-16.142,16.124-25.2,27.572-31.107,39.324-16.173,32.167-9.094,56.6,17.261,59.586,6.717.76,6.568.483,2.808,5.2-28.7,36.011-14.155,81,33.4,103.286,43.288,20.285,96.772,25.243,151.411,14.036l8.938-1.833,3.826,5.912c4.31,6.66,8.572,9.79,13.332,9.79,5.933,0,11.971-8.524,12.042-17,.032-3.914.989-4.551,8.934-5.945,13.38-2.347,24.637-7.007,31.556-13.061,1.1-.963,5.506-2.515,9.792-3.45s11.682-3.014,16.437-4.621A83.035,83.035,0,0,1,351.6,418c2.5,0,11.273,8.043,16.292,14.944,16.341,22.467,30.769,9.311,25.843-23.565-.766-5.112-.761-5.125,2.5-6.418C449.461,381.842,488.8,348.24,498.618,315.5c2.427-8.089,2.421-25.543-.012-34.442-12.993-47.539-64.07-71.993-124.4-59.559-20.838,4.295-63.923,20.316-70.4,26.179-2.468,2.234-2.777,1.588-1.76-3.678,1.13-5.847,1.2-13.676.114-12.45-.464.523-1.384,4.643-2.045,9.158-5.973,40.786-41.162,71.378-81.993,71.278-8.894-.021-10.119-.612-10.119-4.88,0-4-1.709-6.98-6.428-11.2-2.758-2.467-3.055-3.292-2.91-8.077.214-7.061-.367-7.543-10.079-8.352-9.45-.787-10.211-.525-17.632,6.066-5.841,5.187-7.619,5.458-11.207,1.706l-2.631-2.75,3.693-3.047c5.478-4.52,8.838-6.7,17.694-11.456,13.837-7.439,19.142-13.06,16.675-17.67a3.15,3.15,0,0,1,.416-3.782,7.152,7.152,0,0,0-.755-9.22c-1.97-2.1-2.026-2.463-.619-4.065,4.635-5.276,2.381-11.26-4.24-11.26-2.187,0-3.977-.418-3.977-.929,0-1.823-3.187-4.071-5.773-4.071-1.447,0-7.26,2.25-12.918,5C155.917,229.537,155,229.778,155,227.25c-.006-2.971-3.8-8.163-6.453-8.829-3.075-.771-7.889,2.033-10.61,6.181l-1.9,2.892.576-5.5a83.057,83.057,0,0,1,37.71-61.736c7.8-5.089,7.887-5.085,6.647.267-2.341,10.1-.834,15.651,5.9,21.731,5.6,5.062,6.136,6.481,6.136,16.36,0,10.337,2.224,16.12,7.439,19.343,4.276,2.643,7.165,2.579,9.577-.212,10.679-12.356,15.055-13.119,23.555-4.106,1.965,2.083,4.121,3.356,5.686,3.356,2.075,0,2.633.6,3.158,3.4.7,3.727,1.825,4.968,5.547,6.112a10.362,10.362,0,0,1,4.262,3.046c3.641,4.629,8.4,4.226,25.693-2.179a125.684,125.684,0,0,1,16.25-4.778L301,221.309V224.1c0,1.533.52,3.108,1.156,3.5.833.515.988-.324.553-3-.747-4.609,2.094-6.091,18.291-9.543,60.117-12.813,102.1-48.349,88.251-74.691-12.169-23.138-54.751-32.314-110.59-23.829-7.687,1.168-10.75,1.248-14,.364-9.068-2.463-48.566,5.918-74.148,15.735-3.6,1.383-1.7-5.176,2.237-7.715,5.7-3.675,8.57-10.338,8.907-20.679l.275-8.407,3.823-2.769C237.569,84.505,239.5,62.2,229.4,51.019c-5.428-6.008-14.979-8.455-22.9-5.867m64.251,24.6a20.206,20.206,0,0,0-3.671,5.521l-1.047,2.772L262.4,74.021c-4.748-5.256-5.826-5.147-5.051.509.808,5.895,4.2,13.695,7.16,16.478l2.347,2.206,4.078-3.773C275.144,85.546,280,76.737,280,73c0-6.147-4.856-7.851-9.249-3.246M213,77.02a53.046,53.046,0,0,1-7.988,3.026C195.606,83,194,84.285,194,88.874c0,10.646-4.7,13.381-6.439,3.746-1.365-7.566-2.622-1.968-2.684,11.96-.114,25.474-2.157,45.91-4.5,45.011-.757-.29-1.377-.14-1.377.333,0,2.134,3.85,1.858,12.335-.884,5.041-1.629,10.454-3.226,12.03-3.549,2.59-.531,2.807-.883,2.25-3.664a59.745,59.745,0,0,1-.615-8.952V127l-4.25-.074a24.825,24.825,0,0,1-8.25-1.9l-4-1.825,9.153.541c10.7.633,14.859-1.086,17.847-7.383,3.317-6.991,1.5-26.614,1.486-31.217-.023-8.088-1.005-10.088-3.986-8.122m73.591,9.054c-2.509,2.982-2.777,3.845-2.991,9.634-.24,6.5,13.372,6.235,15.012-.3.917-3.655-.653-5.845-4.463-6.224C291.588,88.932,291,88.429,291,86.5c0-3.659-1.56-3.808-4.409-.422m-76.543,15.992c1.872,1.2-.363,2.9-3.857,2.919-1.282.008-2.034.46-1.691,1.015,1.163,1.881,7.348,1.153,8.5-1,1.392-2.6-.328-6-3.035-6m-14.737-6.817c.509,1.528,6.65,1.805,7.022.317.137-.55-1.485-1.142-3.606-1.317-2.841-.233-3.74.03-3.416,1m4.345,20.7c-.808,1.307,2.562,3.118,5.8,3.118,2.252,0,4.9-1.881,2.934-2.083a23.855,23.855,0,0,1-6.458-1.356,1.9,1.9,0,0,0-2.278.321M323.5,116.66c-7.256.588-22.957,2.478-25.385,3.057-2.3.546-2.312.609-.417,1.675,6.919,3.893,12.134,10.913,15.882,21.378,1.522,4.252,2.911,7.914,3.086,8.138s5.834-2.355,12.576-5.733c12.268-6.148,28.318-12.2,32.2-12.145,3.011.045.507,1.363-11.426,6.013-5.326,2.076-14.289,6.085-19.918,8.91-8.771,4.4-14.72,7.922-36.41,21.547-2.462,1.547-4.912,2-10.8,2-6.66,0-7.731.252-8.5,2-1.275,2.9-7.386,3.255-9.816.569-2.129-2.352.266-4.286,2.752-2.223,1.474,1.224,5.946.385,5.115-.96-.973-1.573-10.156-1.018-11.893.719-2.975,2.975,1.073,10.984,5.051,9.995,8.227-2.046,8.007-2.037,6.54-.261a4.5,4.5,0,0,1-2.22,1.661c-1.938,0-28.561,12.291-30.3,13.988-2.346,2.292-1.469,5.018,1.608,4.994,1.254-.011,7.189-1.586,13.188-3.5,11.929-3.808,16.583-4.559,13.066-2.108-2.591,1.8-23.767,8.626-26.78,8.626-3.717,0-7.157,4.264-5.675,7.034,1.877,3.506,10.734,2.3,25.144-3.409,12.081-4.791,16.591-5.857,13.8-3.263-1.7,1.585-14.988,7.184-22.964,9.679-4.516,1.413-5.554,2.159-5.8,4.175q-1.086,8.871,19.64-.107C273.784,215.234,276,214.616,276,216c0,1.352-12.816,7.426-19.364,9.177-5.057,1.352-5.664,2.2-2.7,3.79,3.734,2,9.929,1.035,21.747-3.381a141.1,141.1,0,0,1,18.1-5.55,61.37,61.37,0,0,0,11-3.164A117.04,117.04,0,0,1,320,212.46c51.134-11.6,85.759-34.74,88.664-59.267,2.842-24-35.713-40.539-85.164-36.533M110.061,127.939A7.968,7.968,0,0,0,108,133.107c0,3.2.081,3.176-4.621,1.24C101.8,133.7,99,136.753,99,139.119c0,4.53,11.646,10.422,19.174,9.7l3.326-.319-.27-7.465c-.458-12.644-5.6-18.669-11.169-13.1M93.2,162.2a5.687,5.687,0,0,0-1.2,3.5c0,1.265-.464,2.3-1.031,2.3-1.946,0-2.211,3.075-.435,5.037,3.2,3.538,9.369,1.995,10.865-2.717,1.8-5.668-4.456-11.863-8.2-8.12m60.435,30.873c-3.771,2.965-4.009,12.927-.309,12.927,5.173,0,8.137-6.694,5.513-12.453-1.4-3.083-1.838-3.122-5.2-.474M243.5,197a2.046,2.046,0,0,0,1.559,3c.518,0,.941-.9.941-2,0-2.109-1.455-2.691-2.5-1m-4.346,11.97c.19,1.3.909,2.559,1.6,2.785,1.8.593,1.541-2.269-.346-3.835-1.394-1.156-1.552-1.023-1.25,1.05m9.356,9.014A2.045,2.045,0,0,0,250.059,221c1.217,0,1.225-2.707.01-3.457a1.151,1.151,0,0,0-1.559.441M64.629,232.171C37.448,259.221,26.6,278.541,26.53,300c-.057,18.254,9.25,26.1,30.977,26.112,23.974.015,48.939-10.223,79.555-32.623a132.155,132.155,0,0,1,13.983-9.012,73.107,73.107,0,0,0,10.79-7.121,110.076,110.076,0,0,1,15.389-9.52C188.447,262.071,194,257.282,194,253.368V250.8l-3.25,2.17c-4.261,2.845-14.52,7.657-18,8.443-5.632,1.272-2.436-1.349,7.655-6.277,13.389-6.54,16.818-10.789,11.922-14.774-1.088-.886-3.16-.073-9.466,3.718-8.77,5.271-18.231,9.211-20.765,8.649-.878-.194,3.579-2.967,9.9-6.161,18.627-9.407,24.531-14.818,20.918-19.171-1.793-2.16-5.941-1.181-9.757,2.3C179.914,232.671,161.156,243,159.017,243c-2.594,0,1.172-2.9,11.015-8.469,11.076-6.272,12.968-7.818,12.968-10.6,0-3.567-5.34-2.145-20.934,5.571-8.337,4.125-15.362,7.5-15.612,7.5-1.675,0,.135-2.415,3.14-4.188,4.046-2.387,4.234-6.429.473-10.19-3.41-3.41-6.485-1.487-12.692,7.938-7.586,11.517-9.243,12.579-29.49,18.892C89.233,255.267,83.23,257.636,63.412,267c-7,3.308-12.956,5.786-13.236,5.506s-.322-.638-.093-.8c9.4-6.472,26.616-14.785,40.917-19.758,5.225-1.818,9.693-3.456,9.929-3.642,1.352-1.064-18.2-29.158-20.974-30.142-.511-.181-7.407,6.119-15.326,14m326.425-10.023c-20.04,2.093-43.849,9.064-71.837,21.036-19.725,8.436-18.561,7.684-20.169,13.054-5.985,19.986-23.343,39.683-43.548,49.416-32.494,15.652-69.2,10.031-95.5-14.625l-5.5-5.156-4,1.936a117.657,117.657,0,0,0-12.951,8.618C112.856,314.86,87.667,326.2,66.155,328.579c-6.229.688-6.427.8-10.813,6.311-27.25,34.216-14.809,75.888,29.235,97.918,29.4,14.7,78.842,23.543,113.423,20.275,16.945-1.6,46-6.451,46-7.679,0-.236-.912-3.686-2.026-7.667C238.042,423.7,226.74,362.731,226.635,355c-.213-15.8,6.327-21.447,30.034-25.941,15.108-2.863,28.136-8.256,31.179-12.906l2.348-3.587-2.654-2.283c-3.558-3.061-6.265-2.867-18.042,1.291-17.888,6.316-24.346,7.513-45.5,8.436a224.462,224.462,0,0,0-36,3.949c-30.92,5.809-57.472,7.967-62,5.041-1.02-.659,1.969-.974,9.331-.985,11.051-.015,34.962-3.452,60.169-8.649,8.274-1.7,17.744-2.75,30.5-3.365,19.758-.952,23.071-1.59,42.339-8.156,13.207-4.5,16.7-4.541,22.345-.26,2.584,1.961,3.659,2.235,5.708,1.456,1.389-.528,10.081-2.565,19.316-4.528,35.916-7.631,51.7-13.848,79.7-31.384C408.863,264.7,432.3,252,434.4,252c1.9,0-.883,1.883-10.4,7.027-5.225,2.823-12.65,7.285-16.5,9.917-32.483,22.2-52.849,31.2-87,38.441-26.039,5.521-27.106,5.963-30.5,12.613-8.088,15.853-.887,54.239,17.615,93.9L312,423.29l6.867-.576c4.078-.341,13.116-2.579,22.251-5.509q15.186-4.866,30.384-9.687c43.743-13.862,75.571-31.644,99.537-55.61,17.211-17.211,24.99-32.5,25.754-50.608,2.1-49.63-45.715-85.42-105.738-79.152m-248.366,2.5a4.038,4.038,0,0,0-.688,2.4,2.712,2.712,0,0,1-2.1,2.267c-2.6.679-2,3.07.87,3.494,3.687.545,7.1-7.358,3.673-8.5a1.869,1.869,0,0,0-1.75.334m32.478,1.482a3.192,3.192,0,0,0,2.079,2.684c1.428.272,1.592-.079.9-1.938-1.175-3.177-3.408-3.735-2.983-.746m36.334-1.1c-10.4,2.1-12.146,4.721-8.614,12.931A25.786,25.786,0,0,1,205,245.3c0,3.338,3.436,7.416,6.887,8.174,4.179.918,6.724,4.165,10.626,13.556,1.91,4.6,4.822,9.751,6.47,11.452a15.191,15.191,0,0,1,3.877,7.8c2.863,15.329,13.938,5.78,17.626-15.2a54.1,54.1,0,0,1,3.453-11.96c5.377-10.54,1.025-18.181-14.262-25.04a59.941,59.941,0,0,1-11.1-6.568c-4.583-3.756-8.185-4.28-17.079-2.485m199.327,3.009c-.419,4.365-4.641,7.186-7.8,5.213-2.64-1.648-3.026-1.581-3.026.529,0,5.566-5.613,7.836-9.823,3.973-1.72-1.579-2.586-1.874-2.9-.989a3.987,3.987,0,0,1-6.359,1.664c-2.465-2.231-2.415-3.522.27-6.936,1.3-1.651,1.628-2.594.811-2.322-2.553.851-5.25,5.462-4.528,7.739,1.208,3.8,4.953,5.528,8.342,3.838,2.429-1.212,3.175-1.226,4.727-.092,2.994,2.19,6.434,1.589,9.461-1.652,1.747-1.87,3.8-3,5.447-3,4.955,0,9.029-6.119,6.615-9.934-.666-1.052-.995-.526-1.235,1.969m-152.639-.972a3.129,3.129,0,0,0,1.75,1.75c.75.25,1.125-.125.875-.875a3.129,3.129,0,0,0-1.75-1.75c-.75-.25-1.125.125-.875.875m19.545,2.687c-2.89,3.207-3.093,6.811-.658,11.686,2.755,5.517,5.214,6.54,8.8,3.66,1.447-1.163,4.318-3.241,6.38-4.618,6.335-4.228,4.637-8.206-4.655-10.907-6.84-1.989-7.926-1.969-9.862.179M186,230.893c0,1.735,2.712,3.728,3.712,2.728.58-.58-2-4.621-2.953-4.621-.417,0-.759.852-.759,1.893m1.53,13.058c-.863,1.4.237,3.049,2.029,3.049,1.836,0,1.851-1.415.03-2.926-.965-.8-1.616-.839-2.059-.123m79.036,2.377c-2.641,1.931-2.315,6.631.636,9.17a25.559,25.559,0,0,1,4.365,5.347c2.359,3.993,5.785,5.052,8.473,2.619,2.456-2.223,2.486-4.519.1-7.579a42.219,42.219,0,0,1-3.469-5.527,9.206,9.206,0,0,0-4.791-4.25c-3.836-1.337-3.147-1.365-5.315.22m-78.378,9.735a3.129,3.129,0,0,0,1.75,1.75c.75.25,1.125-.125.875-.875a3.129,3.129,0,0,0-1.75-1.75c-.75-.25-1.125.125-.875.875m163.253,12.394c-3.389,1.424-8.441,6.9-8.441,9.155,0,1.132-.433,1.227-1.934.423-9.192-4.919-16.636,6.448-9.3,14.2,3.506,3.708,3.9,2.826.785-1.762-2.975-4.385-3.013-4.68-1.089-8.4,2.782-5.379,8.558-4.509,10.64,1.6l1.3,3.819.743-4.936c.825-5.479,3.2-9.3,7.2-11.564,4.18-2.372,6.1-.489,6.461,6.344l.3,5.637,2.393-1.568c3.64-2.385,7.016-1.522,6.973,1.781-.027,2.083.256,2.452,1.25,1.628,3.357-2.787-1.042-8.348-5.78-7.308-2.8.615-2.935.488-2.935-2.78,0-3.109-1.38-5.248-4.51-6.993-.555-.309-2.378.013-4.049.716M204.98,278.524c-1.649,1.987-1.1,2.418,2.27,1.771,1.512-.29,2.75-1.151,2.75-1.912,0-1.858-3.441-1.762-5.02.141M266,280.992a6.43,6.43,0,0,1-4.155.448c-3.906-.82-4.363,1.155-.691,2.987,2.831,1.412,3.357,1.421,4.84.079A6.769,6.769,0,0,1,269.912,283c1.357,0,2.091-.5,1.843-1.25-.531-1.614-3.828-2.047-5.755-.758M207.25,285.7c-1.923.721-1.481,2.3.643,2.3a2.771,2.771,0,0,1,2.469,1.5,2.3,2.3,0,0,0,4.313-.1c.448-1.166,1.4-1.439,3.54-1.011,2.409.482,2.869.277,2.6-1.154-.42-2.212-5.167-2.846-6.958-.929-1.086,1.163-1.7,1.2-3.343.172a4.64,4.64,0,0,0-3.262-.784m-61.215,16.236c-3.3,6.166,3.74,12.4,10.138,8.973,1.477-.79,2.344-.79,3.134,0,3.308,3.308,10.51-.969,9.446-5.608-.342-1.486-.643-1.325-1.735.932-1.726,3.567-4.93,4.61-6.7,2.183-1.273-1.74-1.482-1.746-4.231-.122-3.693,2.181-5.369,2.154-7.428-.121-2.268-2.506-2.075-4.764.568-6.614L151.445,300h-2.187a4.036,4.036,0,0,0-3.223,1.934m276.6,2.139c-3.088,2.429-3.545,7.182-1.035,10.766,1.466,2.093,1.466,2.431,0,4.051-1.776,1.962-2.088,6.7-.684,10.389,2,5.256,14.955,7.07,19.565,2.739,2.648-2.487,3.443-7.694,1.477-9.66-.724-.724-.57-1.435.5-2.323,1.634-1.356,2.015-4.743.756-6.722-.983-1.548-6.119-3.49-7.3-2.761-.5.311-.916-.586-.916-1.993,0-5.864-7.263-8.5-12.365-4.486m1.115,1.007c-2.453,1.429-2.3,7.111.251,9.42l2,1.811-2,1.4c-1.482,1.038-2,2.535-2,5.772,0,5.938,3.173,8.516,10.48,8.516,7.646,0,11.347-4.906,6.344-8.411l-2.176-1.524,2.676-2.105c3.21-2.525,3.387-4.348.611-6.293a5.146,5.146,0,0,0-7.025.941A3.933,3.933,0,0,1,430.378,316c-2.083,0-1.65-2.784.622-4,2.4-1.283,2.6-4.262.429-6.429-1.785-1.784-5.1-2-7.679-.491M93.923,330.923C92.315,332.531,91,334.431,91,335.146s.7.3,1.561-.929c5.786-8.261,16.054-5.261,15.254,4.457-.277,3.368-.6,3.787-2.653,3.5-1.812-.254-2.258.084-1.982,1.5a2.462,2.462,0,0,0,2.539,1.858c3.1.042,7.281,4.307,7.281,7.422,0,7.158-6.217,9.168-11.754,3.8l-3.35-3.246,1.48,3.541c3.289,7.873-8.029,18.915-15.227,14.856-5.286-2.982-4.8-12.527.9-17.6,1.624-1.447,2.952-3.006,2.952-3.465,0-1.577-3.021-.833-4.732,1.165C80.034,355.777,73,353.431,73,348.576c0-5.577,7.491-11.286,13.172-10.038,2.136.469,2.869.337,2.394-.431-1.1-1.776-7.787-1.27-11.267.853-3.373,2.056-6.3,6.635-6.3,9.855,0,2.262,3.634,7.178,5.323,7.2,2.923.038,3.644,1.52,2.592,5.33-2.8,10.128,5.937,17.092,14.719,11.736,3.336-2.034,8.366-8,8.366-9.925,0-.7,1.745-1.156,4.427-1.156,8.28,0,11.845-9.882,5.76-15.967-2.292-2.291-2.649-3.25-1.928-5.173,3.568-9.516-9.069-17.2-16.336-9.937m98.486-.07c.39.631,2.067,1.147,3.727,1.147,6.677,0,11.525,9.21,6.56,12.463-2.576,1.688-5.265,1.173-12.4-2.374q-8.817-4.385-1.547.959c4.962,3.649,5.982,6.184,3.819,9.485-2.909,4.441-10.335,4.127-12.6-.533q-1.2-2.494-2.377-5l-1.648-3.5.493,4.628c.64,6.017-1.651,8.4-7.686,7.99-5.769-.39-7.865-10.094-3.189-14.77,1.408-1.408,2.328-2.792,2.044-3.076-1.551-1.552-6.6,5.773-6.6,9.574,0,8.449,10.3,13.9,15.474,8.183,1.775-1.962,1.8-1.962,4.29,0,5.394,4.243,15.236.187,15.236-6.279,0-2.056.4-2.345,2.765-2,7.362,1.081,10.857-7.786,5.453-13.835-2.835-3.172-13.6-5.966-11.809-3.064M336,337c-2.222,2.222-2.651,6.949-.8,8.8.933.933.522,1.2-1.852,1.2-5.085,0-9.848,3.94-9.848,8.148a9.685,9.685,0,0,1-1.3,5.108c-7.326,8.835,9.957,26.693,18.013,18.613,2.058-2.065,3.153-2.331,8.522-2.073,13.322.641,24.622-11.774,16.311-17.919l-2.953-2.183,1.953-2.482c2.51-3.192,2.464-5.291-.191-8.666-2.2-2.793-7.269-3.258-12.107-1.109-1.445.642-1.75.267-1.75-2.156,0-6.344-9.393-9.888-14-5.281m2.223.557c-2.7,1.889-2.986,6.908-.593,10.325,1.587,2.267,1.573,2.3-.549,1.161-2.266-1.213-8.021-.023-10.879,2.25-2.68,2.13-.916,5.063,3.8,6.315,3.159.839,3.755,1.229,2,1.307-10.623.476-12.786,9.643-3.856,16.337,6.077,4.555,11.856,4.363,11.856-.394,0-1.61.39-1.894,1.75-1.275,7.753,3.529,18.656.213,22.625-6.881l2.125-3.8-2.361-1.952a9.644,9.644,0,0,0-5.25-1.952c-3.227,0-3.888-1.548-1.047-2.45,3.482-1.105,6.457-5.223,5.765-7.979-1.18-4.7-7.952-4.676-13.572.053-3.807,3.2-4.56,2.735-2.44-1.514,3.333-6.681-3.513-13.658-9.372-9.553m75.116,33.378a9.816,9.816,0,0,0-3.846,4.087c-.494,1.555-1.219,1.995-2.589,1.569-1.047-.325-2.79-.865-3.873-1.2-3.527-1.091-8.408,4.879-7.689,9.4.585,3.683,5.322,9.2,7.9,9.2.664,0-.224-1.307-1.973-2.9-4.063-3.711-5.014-7.306-2.818-10.657,3.527-5.382,7.475-3.983,9.114,3.231l1.1,4.83.739-5c1.018-6.9,2.317-9.137,6.428-11.088,3.459-1.642,3.58-1.627,5.413.636,1.813,2.239,1.969,2.26,4.722.634a14,14,0,0,1,6-1.682c1.849,0,2.9-.414,2.537-1-.811-1.312-6.1-1.283-8.589.048a2.47,2.47,0,0,1-3.506-.5c-2.079-2.079-5.243-1.944-9.066.387M214,384.685c-3.059,1.161-6,4.731-5.961,7.239s.068,2.51,1.389-.524c2.978-6.84,12.247-5.605,14.946,1.991.8,2.243-1.767,6.609-3.882,6.609-1.181,0-1.348,1.1-.87,5.75.786,7.644-1.387,10.606-9.035,12.318-9.414,2.107-14.506-1.514-11.265-8.011,1.239-2.484,1.175-2.8-.732-3.639-4.916-2.16-2.429-9.526,3.829-11.343l3.081-.895-3.115-.09a7.952,7.952,0,0,0-6.985,12.464,12.525,12.525,0,0,1,1.4,5.938c0,6.157,3.828,8.945,11.106,8.089,9.953-1.17,14.052-5.132,14.079-13.609.011-3.256.569-5,1.988-6.217,6.926-5.93-1.388-19.327-9.973-16.07m-86.949,11.49c-4.11,4.412-3.62,13.289,1.063,19.242,2.883,3.666,3.648,2.462.894-1.406-4.445-6.242-3.448-16.133,1.827-18.138,4.56-1.734,8.078,4.48,8.141,14.377.032,4.98,1.119,4.727,3.386-.786,3.234-7.862,11.121-9.584,13.633-2.976,1.074,2.823.122,6.135-3.038,10.572-2.061,2.895-1.455,4.5,1.091,2.889,5.185-3.28,11.952.72,11.952,7.065S159.722,437,148.8,437c-9.442,0-13.652-3.421-13.9-11.3l-.1-3.2-1.068,3.338c-2.057,6.43-8.806,8.1-11.695,2.9-1.4-2.526-1.376-3.036.305-5.985l1.839-3.223-2.089,1.89c-6.326,5.726,1.477,15.559,9.107,11.476,1.729-.926,2.407-.7,4.184,1.4,5.989,7.088,22.531,6.829,30.3-.474,6.163-5.79,2.079-16.827-6.227-16.827-2.446,0-2.6-.234-1.866-2.75,3.4-11.579-5.552-18.452-13.775-10.573-2.939,2.815-3,2.771-4.31-3.177-1.433-6.5-8.232-8.857-12.455-4.325M298,412.574C287.577,419.814,273.781,439,279,439c4.628,0,16.888-3.409,23.5-6.534,10.182-4.812,10.342-4.963,7.59-7.192-1.267-1.026-3.718-4.85-5.447-8.5l-3.143-6.632-3.5,2.43" fill="#6dbf36" fill-rule="evenodd"/>
    <path id="Path_8" data-name="Path 8" d="M207.5,45.64a130.762,130.762,0,0,1-15.333,2.141c-8.88.71-9.463.9-12,3.942-2.59,3.1-2.787,3.162-6.832,2.052-5.111-1.4-10.752.022-15.326,3.871-4.127,3.473-5.643,6.667-7.554,15.919-.885,4.282-3.429,14.119-5.654,21.86-6.947,24.169-4.031,33.918,10.814,36.145,12.263,1.839,18.276-7,18.4-27.07l.052-8,3.464,7.385c3.36,7.163,3.464,7.75,3.464,19.61,0,6.724-.281,14.274-.624,16.777l-.624,4.551-9.626,4.223C146.829,159.264,118,175.051,94,190.728,73.421,204.172,72.373,205.5,77.109,212.153c1.16,1.629,1.948,3.087,1.75,3.24C55.07,233.77,31.066,265.69,25.928,285.78c-6.255,24.457,1.511,38.8,22.925,42.333l7.008,1.157-3.835,5.115c-13.6,18.146-17.469,36.656-11.552,55.313,9.9,31.217,40.727,51.533,94.526,62.3,34.154,6.834,58.461,6.707,97.484-.507,7.691-1.421,14.107-2.215,14.257-1.763,1.012,3.035,7.349,11.1,10.259,13.064,7.787,5.243,15.573-1,17.52-14.05.855-5.732.334-5.374,10.641-7.324,11.034-2.088,21.712-6.324,28.125-11.158a23.311,23.311,0,0,1,9.638-4.632A163.588,163.588,0,0,0,339.37,421l12.022-3.921,3.054,1.9c3.9,2.429,11.181,10.06,15.9,16.664,5.581,7.816,13.607,10.173,18.918,5.557,4.069-3.537,6.107-21.176,3.817-33.029-.694-3.589-.558-4.427.793-4.9,42.868-15.19,85.062-47.288,99.246-75.5,19.171-38.13-2.121-84.743-46.532-101.87-22.311-8.6-52.7-9.271-81.979-1.8-17.836,4.551-55.153,19.3-59.286,23.437A4.856,4.856,0,0,1,302.762,249c-.6,0-.869.226-.593.5s7.06-2.382,15.076-5.906c52.6-23.134,90.034-28.164,124.04-16.669,50.168,16.958,71.263,66.914,45.24,107.14-20.516,31.715-63.594,58.411-124.271,77.013q-14.383,4.406-28.753,8.861c-20.567,6.413-21.35,6.068-29.384-12.948-20.391-48.264-23.716-82.352-9.088-93.181,1.543-1.143,11.151-3.787,24.661-6.788,36.207-8.041,44.064-11.276,77.31-31.83,5.775-3.57,11.4-7.281,12.5-8.247s6.41-4.1,11.8-6.967,9.6-5.413,9.353-5.659c-.676-.677-22.582,11.365-36.3,19.956-26.657,16.69-42.875,23.117-76.1,30.158-9.489,2.011-18.991,4.269-21.115,5.019-3.673,1.3-3.983,1.239-6.378-1.156-4.3-4.3-9.6-4.177-23.9.561-18.477,6.125-24.623,7.254-44.356,8.153-11.589.528-21.562,1.573-28,2.937-21.306,4.51-39.469,7.4-50.5,8.037l-11.5.664,11.308.175c12.29.19,15.96-.255,45.192-5.488,15.713-2.812,22.607-3.552,35.5-3.807,17.608-.348,24.945-1.7,43.446-7.981,12.05-4.094,16.667-4.428,20.418-1.477L291,312.143l-2.9,4.179c-3.574,5.152-16.383,10.625-30.667,13.1-24.482,4.248-31.239,10.422-30.134,27.534.638,9.889,11.673,68.277,15.187,80.359,1.308,4.5,2.072,8.464,1.7,8.809-1.05.966-22.142,4.632-37.182,6.463-40.225,4.9-90.308-3.222-124-20.1-41.173-20.629-54.52-60.8-31.12-93.663,6.785-9.529,7.017-9.692,15.528-10.876,21.915-3.048,51.822-16.962,72.417-33.692a75.473,75.473,0,0,1,9.437-6.309l5.112-2.8,7.161,6.674c44.08,41.084,117.486,22.149,136.951-35.326,2.179-6.432,2.449-7.773,3.025-15a50.655,50.655,0,0,0,1.251-10.443c-.04-2.2.435-8.717,0-10.517-.341-1.425-1.6,2.036-1.6,2.036l-.541,19.924c-8.071,41.41-41.27,69.413-82.374,69.483L208,312v-2.935a15.646,15.646,0,0,0-5.25-11.565c-3.194-3.078-3.033-2.508.957,3.39,2.161,3.194,3.2,10.11,1.523,10.11-7.951,0-38.23-14.136-38.23-17.848,0-.425,2.995-3.361,6.655-6.525l6.656-5.753,6.594.643c10.092.985,10.187,1.038,9.526,5.3-.364,2.345-.081,4.339.779,5.491,1.179,1.581,1.321,1.08,1.129-3.97-.272-7.114-1.146-7.848-10.364-8.7-7.96-.739-10.565.164-15.475,5.366-5.841,6.189-8.242,6.725-12.235,2.731L156.8,284.27l5.457-4.445a134.88,134.88,0,0,1,16.129-10.287c11.74-6.428,16.7-11.043,16.461-15.323l-.15-2.715-.4,2.6c-.607,3.927-5.685,8.157-17.142,14.28a119.634,119.634,0,0,0-14.784,9.166,92.272,92.272,0,0,1-11.156,7.377c-3.694,2.056-12.116,7.648-18.716,12.426C93.985,325.238,51.139,334.8,33.258,319.489,17.39,305.907,26.149,273.477,54.186,242c8.2-9.208,25.535-25.692,26.176-24.894,10.527,13.1,22.518,30.526,21.509,31.252-.2.147-5.1,1.969-10.871,4.049-11.522,4.149-35.046,15.325-39,18.529-1.375,1.114,5.6-1.737,15.5-6.334,16.412-7.622,30.234-12.752,50.408-18.706,8.95-2.642,12.877-5.913,19.558-16.292,6.654-10.337,11.874-12.189,14.505-5.145,2.286,6.122,2.269,6.194-2.191,8.883-8.223,4.957-1.75,2.6,13.286-4.842,15.848-7.842,17.894-8.459,19.93-6.005,2.139,2.577-1.217,5.951-11.983,12.047-9.1,5.154-12.33,7.458-10.443,7.458,1.762,0,19-9.8,22.485-12.779,5.28-4.52,10.286-4.349,10.746.366.435,4.459-5.116,9.052-19.894,16.46-6.665,3.341-11.9,6.288-11.644,6.549.888.888,11.238-3.549,20.011-8.579,9.967-5.715,9.564-5.6,11.334-3.267,3.533,4.654.022,8.574-13.428,14.995-5.126,2.447-9.093,4.676-8.815,4.954,1,1,10.63-2.9,16.44-6.652,9.323-6.025,11.246-10.087,6.855-14.478-2.288-2.288-2.3-2.394-.523-4.705,3.943-5.127.839-11.709-4.973-10.547-2.356.471-3.086.149-3.947-1.741-2.05-4.5-5.468-4.139-17.84,1.878-13.421,6.527-12.063,6.253-12.867,2.593-2.157-9.822-10.909-10.7-16.688-1.68l-2.007,3.133.579-7c1.984-23.989,15.977-47.272,36.694-61.055,10.05-6.686,9.809-6.728,8.174,1.412-2,9.936-.724,13.953,6.57,20.743l5.668,5.275v10.312c0,19.005,10.51,27.761,19.051,15.874,6-8.346,13.631-8.957,20.135-1.611a12.49,12.49,0,0,0,6.45,4.048c2.789.523,3.479,1.137,3.654,3.248.668,8.074,11.1,7.917,27.537-.412,7.76-3.933,4.657-3.846-5,.139-11.513,4.752-18.65,5.668-20.29,2.6-2.161-4.037-.925-5.16,9.959-9.05,11.668-4.171,20.325-8.035,19.607-8.754-.259-.258-3.089.522-6.289,1.734-24.468,9.267-28.235,10.14-32.1,7.436-4.562-3.194-.383-9.443,6.315-9.443,3.1,0,22.278-6.129,25.462-8.14,2.5-1.576-4.66.049-14.451,3.282-9.831,3.245-14.83,3.427-15.373.56-.574-3.025,1.295-4.213,17.824-11.331,14.857-6.4,21.474-10.216,11.75-6.781-4.742,1.675-7,.231-8.41-5.371-1.324-5.276-.019-5.719,16.847-5.719h15.454l5.872-3.888q27.553-18.244,52.735-28.125c5.362-2.1,9.561-4.012,9.331-4.242-1.059-1.058-19.233,5.8-30.441,11.5-6.832,3.469-12.505,6.184-12.606,6.033s-1.4-3.678-2.891-7.837C309.286,131.771,300.565,121,295.068,121c-.913,0-1.109-.346-.518-.914,4.471-4.3,62.13-5.209,76.95-1.212,39.865,10.753,48.842,34.592,22.579,59.96-15.286,14.765-37.933,25.461-70.1,33.106-6.885,1.636-15.443,4.076-19.017,5.422a68.845,68.845,0,0,1-11.481,3.178c-2.741.4-10.383,2.757-16.983,5.232-11.871,4.452-18.823,5.61-23,3.833-1.552-.661-1.473-.459.354.9,3.352,2.5,10.567,1.524,22.192-2.991,11.794-4.579,23.943-7.135,25.119-5.283.6.94.808.847.82-.36.017-1.887,8.489-5.318,17.015-6.892,62.9-11.608,106.869-51.393,87.044-78.761-6.548-9.038-24.648-17.837-42.837-20.823-12.136-1.992-44.056-1.424-61.207,1.091-9.668,1.417-12.633,1.494-18.613.481-6.519-1.1-8.151-.987-19.522,1.4-13.337,2.8-37.667,9.278-47.272,12.6-7.606,2.627-7.593,2.629-7.593-1.275,0-2.78.544-3.574,3.372-4.923,5.554-2.648,8.628-10.092,8.628-20.891,0-7.805.209-8.8,1.964-9.36,3.787-1.2,9.858-9.356,11.1-14.909,5.087-22.731-7.215-38.459-26.565-33.962M213,76.516a59.975,59.975,0,0,1-9.025,3.44c-9.259,2.83-10.022,3.593-10.879,10.862-1.051,8.916-2.568,9.806-4.629,2.715-2.82-9.7-3.713-5.65-4.561,20.673-.932,28.948-1.877,37.036-3.944,33.766-.745-1.178-.934-1.047-.947.656-.029,4.058,2.178,4.56,8.593,1.953a84.263,84.263,0,0,1,12.155-3.693L206,145.6V127.28l-5.4-.558a26.625,26.625,0,0,1-8.25-2.15L189.5,122.98l4,.7c17.621,3.069,24.5-2.893,24.5-21.235,0-11.488-1.107-27.453-1.9-27.407a14.637,14.637,0,0,0-3.1,1.481M206.18,95.18c-.164,5.186.015,5.709,2.06,6,3.759.537,3.431,3.624-.43,4.047l-3.31.364,2.763.816c1.824.539,3.268.4,4.25-.418A3.966,3.966,0,0,0,208.855,99c-1.363,0-1.827-1.041-2.12-4.75l-.375-4.75-.18,5.68M195,92.093c0,1.153,3.161,1.991,5.141,1.362,3.011-.955,2.133-2.055-1.641-2.055-1.925,0-3.5.312-3.5.693M210,92c0,.55,1.323,1,2.941,1s3.219-.45,3.559-1c.368-.6-.823-1-2.941-1C211.6,91,210,91.45,210,92m-8.559,22.418c2.153,1.755,6.559,2.145,6.559.582,0-.55-1.088-1-2.418-1a17.026,17.026,0,0,1-4.25-.582c-1.676-.532-1.667-.447.109,1m1.628,33.609c-8.021,1.684-17.074,5.113-17.983,6.813-1.6,2.981-3,12.9-2.378,16.751.457,2.81,1.943,5.036,5.9,8.833,6.629,6.362,7.727,9.193,6.874,17.725-1.55,15.5,8.671,24.342,16.011,13.851,4.4-6.284,9.656-8.15,16.269-5.772,6.184,2.224,9.344-.02,8.534-6.059-.676-5.038,4.264-8.344,22.876-15.31l2.672-1-2.422-3.569c-5.343-7.873-1.949-12.623,8.659-12.119,3.808.181,6.922.255,6.921.164-.012-.892-13.992-10.312-19.181-12.925-13.806-6.953-38.4-10.4-52.752-7.383M190,166.309c0,2.411.688,5.164,1.562,6.25,1.46,1.815,1.516,1.681.854-2.059a34.747,34.747,0,0,1-.573-6.25c.074-1.238-.31-2.25-.854-2.25s-.989,1.939-.989,4.309m74,6.874c0,2.781,6.04,3.415,9.081.953l2.3-1.865-5.691.082c-3.131.046-5.692.419-5.692.83m-106.675,22.74c1.132,4.239-.1,7.077-3.078,7.077-1.522,0-1.418-3.508.252-8.5.585-1.752.41-1.707-1.415.361-3.455,3.914-2.927,10.139.859,10.139,4.973,0,7.348-5.072,4.9-10.453-1.767-3.879-2.692-3.038-1.514,1.376M244,197.441c0,.857.45,1.559,1,1.559a.974.974,0,0,0,1-.941,2.144,2.144,0,0,0-1-1.559c-.55-.34-1,.084-1,.941m-4.812,11.622a3.129,3.129,0,0,0,1.75,1.75c.75.25,1.125-.125.875-.875a3.129,3.129,0,0,0-1.75-1.75c-.75-.25-1.125.125-.875.875M249,218.941a2.144,2.144,0,0,0,1,1.559c.55.34,1-.084,1-.941S250.55,218,250,218a.974.974,0,0,0-1,.941m-105.977,7.5a7.86,7.86,0,0,1-3.082,3.593c-1.514.81-1.841,1.468-1.1,2.209,1.86,1.86,6.159-1.815,6.159-5.264,0-3.613-.732-3.812-1.977-.538m69.477-.856-6,1.326,8.186-.553c8.138-.55,8.211-.533,12.316,2.8A90.955,90.955,0,0,0,240.278,237c13.737,6.758,15.89,10.909,11.309,21.794a69.887,69.887,0,0,0-3.578,12.219c-2.666,14.857-11,25.655-12.527,16.237-.854-5.254-2.148-8.075-5.176-11.284-1.44-1.525-4.107-6.464-5.926-10.974-4.067-10.08-4.614-10.754-11.035-13.6-4.906-2.174-5.209-2.531-6.251-7.389a40.019,40.019,0,0,0-2.594-8c-1.985-3.84-1.9-6.67.25-7.92.963-.561,1.2-1.033.523-1.05-3.276-.081-4.519,4.625-2.455,9.292a42.753,42.753,0,0,1,2.624,8.333c.884,5.231,1.258,5.679,7.285,8.719,5.52,2.784,6.738,4.448,10.377,14.175a35.837,35.837,0,0,0,5.649,9.6,17.333,17.333,0,0,1,4.376,8.512c2.744,14.686,13.62,5.307,16.886-14.562a58.609,58.609,0,0,1,3.591-12.5c4.934-10.6,1.218-17.116-13.606-23.864a60.544,60.544,0,0,1-10.5-5.926c-6.211-5.2-7.211-5.39-17-3.226m-36.5.8a2.718,2.718,0,0,0,1,2.118c.55.34,1-.057,1-.882a2.718,2.718,0,0,0-1-2.118c-.55-.34-1,.057-1,.882m83.079,1.2c.048,1.165.285,1.4.6.6a2.013,2.013,0,0,0-.079-1.917c-.332-.332-.568.258-.525,1.312m20.31,1.237c.278.451,3.117,1.67,6.309,2.709a43.682,43.682,0,0,1,6.993,2.754A2.13,2.13,0,0,1,291.478,238c-.72,0-2.583,1.35-4.14,3-3.807,4.033-5.884,3.811-8.28-.887-1.535-3.009-1.782-4.59-1.09-7,.9-3.153-.243-4.444-1.361-1.531-1.174,3.059-.586,7.34,1.492,10.861,2.515,4.263,5.525,4.651,8.825,1.137a17.754,17.754,0,0,1,5.1-3.591c6.6-2.734,4.412-7.178-4.9-9.951-7.615-2.268-8.47-2.4-7.738-1.218m-93.212,1.847a2.856,2.856,0,0,0,1.494,2.057c.745.248.976-.358.634-1.667-.639-2.444-2.6-2.8-2.128-.39M188,244.819c0,1.208,1.9,2.617,2.591,1.924.251-.252-.229-1.027-1.067-1.723-.95-.789-1.524-.865-1.524-.2m55-.364a13.768,13.768,0,0,0,2.5,2.954,8.081,8.081,0,0,1,2.5,5.6c0,1.815.415,2.847,1,2.486,1.92-1.187,1.061-6.53-1.455-9.045-2.192-2.192-4.545-3.228-4.545-2m23.2,2.745c-2.031,2.031-1.342,5.058,1.917,8.421a29.3,29.3,0,0,1,4.28,5.547c.883,1.771,2,2.332,4.633,2.332,4.27,0,5.257-3.721,2.176-8.206q-1.858-2.73-3.586-5.544c-2.776-4.582-3.492-3.078-.951,2a71.822,71.822,0,0,0,3.513,6.364c1.251,1.776.5,4.886-1.184,4.886-.586,0-1.973-1.538-3.082-3.418a18,18,0,0,0-4.466-5.023c-2.891-1.894-3.273-5.98-.7-7.479,1.441-.839,1.476-1.025.2-1.05a4.4,4.4,0,0,0-2.75,1.17m-60.759,31.374c-1.873,1.52-1.854,1.555.559,1.014a26.072,26.072,0,0,1,3.309-.574c.445-.008.531-.464.191-1.014-.858-1.388-1.8-1.254-4.059.574m60.079,3.393c-.329.532-2.043.717-3.809.41l-3.211-.557,2.921,1.619c2,1.111,3.244,1.3,3.95.59A6.564,6.564,0,0,1,269.2,283c1.54,0,2.8-.45,2.8-1,0-1.284-5.689-1.312-6.48-.033m-51.029,4.416c-1.372,1-2.35,1.1-3.559.342a4.029,4.029,0,0,0-3.55-.207c-1.762.781-1.743.858.295,1.218a6.571,6.571,0,0,1,3.4,1.857c1.06,1.277,1.542,1.174,3.615-.774,2.02-1.9,2.7-2.057,4.35-1.025,1.594,1,1.958.963,1.958-.179,0-1.264-2.01-2.615-3.891-2.615a7.467,7.467,0,0,0-2.618,1.383m80.29,128.108c-8.484,6.66-19.818,22.8-17.58,25.043,1.075,1.075,19.357-3.606,25.733-6.59,9.755-4.565,10.629-5.6,7.187-8.495-1.526-1.285-3.858-5.061-5.181-8.392-2.878-7.246-2.916-7.252-10.159-1.566m160.13-.556a14.3,14.3,0,0,0-3.532,5.92c-.563,2.813-.853,2.974-5.074,2.814-8.332-.315-12.5,8.865-6.669,14.7,1.45,1.45,3.138,2.626,3.75,2.614s.154-.8-1.019-1.75c-4.8-3.886-5.273-9.78-1.03-12.751,5.114-3.582,9.645-.5,9.693,6.6.026,3.662.217,4.1,1.114,2.557.641-1.1.823-3.828.446-6.67-1.077-8.121,2.7-14.966,8.267-14.966,2.869,0,4.538,5.794,3.729,12.947-.879,7.768.79,12.732,1.856,5.523.877-5.922,2.874-8.47,6.642-8.47,4.821,0,8.254,5.631,6,9.841-1.8,3.366-1.276,3.935,3.168,3.434,4.739-.534,6.659.865,8.538,6.225l1.051,3,.079-2.827c.1-3.495-4.749-8.673-8.117-8.673-2.069,0-2.349-.471-2.349-3.944,0-6.96-6.545-11.219-12.414-8.078-1.579.845-1.919.473-2.508-2.75-1.553-8.5-6.267-10.648-11.622-5.293M31.99,435.856c-2.346,1.252-4.348,3.568-6.109,7.066s-2.808,4.71-3.2,3.7c-.938-2.445-5.38-4.853-7.634-4.137-4.511,1.432-2.856,9.889,3.38,17.266,4.454,5.27,4.889,3.712.557-2C14.857,452.3,13,446.6,14.774,444.826c1.925-1.925,5.261.309,7.728,5.177,3.274,6.462,4.725,7.268,3.91,2.173C25.3,445.222,30.707,436,35.9,436c1.969,0,4.1,6.526,4.1,12.54v5.605l2.635-2.072c6.527-5.135,14.865-.79,14.865,7.745,0,2.745.331,4.471.735,3.837,1.223-1.923.855-7.581-.688-10.564-1.872-3.62-6.466-5.519-11.429-4.726l-3.86.617-.519-4.605c-.485-4.3-3.144-9.345-5.309-10.067-.522-.174-2.52.522-4.44,1.546" fill="#060505" stroke="#060505" stroke-width="1" fill-rule="evenodd"/>
  </g>
</svg>
