<svg xmlns="http://www.w3.org/2000/svg" xmlns:xlink="http://www.w3.org/1999/xlink" width="256" height="256" viewBox="0 0 256 256">
  <defs>
    <clipPath id="clip-logo">
      <rect width="256" height="256"/>
    </clipPath>
  </defs>
  <g id="logo" clip-path="url(#clip-logo)">
    <g id="Group_60" data-name="Group 60" transform="translate(-2021 484)">
      <g id="Group_2" data-name="Group 2" transform="translate(2021 -484)">
        <rect id="Rectangle_1" data-name="Rectangle 1" width="256" height="256" rx="18" fill="#F2F2EF"/>
        <path id="Path_2" data-name="Path 2" d="M1.22-15.86C1.22-6.588,6.71.915,17.08.915,31.11.915,32.025-11.59,32.025-11.59h-8.54s-.3,6.1-6.405,6.1c-5.429,0-7.32-4.636-7.32-10.37s1.891-10.37,7.32-10.37c6.1,0,6.405,6.1,6.405,6.1h8.54S31.11-32.635,17.08-32.635C6.71-32.635,1.22-25.132,1.22-15.86Zm42.09-6.1c.122-3.416,2.135-4.88,5.8-4.88,3.355,0,5.185,1.464,5.185,3.965,0,3.538-5,3.965-10.309,5.307-5.246,1.342-10.126,4.026-10.126,9.943,0,5.856,4.27,8.54,10.065,8.54A10.2,10.2,0,0,0,53.985-6.1h.305V0h8.54V-21.655c0-8.235-6.1-10.98-13.725-10.98-7.32,0-13.847,2.562-14.335,10.675Zm10.98,5.978c0,4.7-1.525,11.407-7.32,11.407-2.745,0-4.453-1.525-4.453-3.965,0-2.806,2.318-4.209,5.063-4.88C50.02-14.03,52.887-14.7,54.29-15.982ZM65.88,0h8.54V-18.91h6.4c8.845,0,11.285-2.135,11.285-9.15v-3.66H83.57v2.745c0,3.965-1.22,3.965-4.88,3.965H74.42v-6.71H65.88ZM94.55,0h16.165c8.54,0,12.5-3.05,12.5-9.15s-5.795-7.32-5.795-7.32v-.3a6.635,6.635,0,0,0,4.88-6.405c0-5.8-4.27-8.54-12.5-8.54H94.55ZM109.8-13.42c3.05,0,4.88,1.22,4.88,3.66s-1.525,3.66-4.27,3.66h-7.32v-7.32Zm-6.71-5.49v-6.71h6.71c2.745,0,3.965,1.22,3.965,3.355s-1.525,3.355-4.575,3.355Zm30.5,3.05c0-5.734,2.2-10.37,7.625-10.37s7.625,4.636,7.625,10.37-2.2,10.37-7.625,10.37S133.59-10.126,133.59-15.86Zm-8.54,0c0,9.272,5.734,16.775,16.165,16.775s16.165-7.5,16.165-16.775-5.734-16.775-16.165-16.775S125.05-25.132,125.05-15.86ZM160.125,0h8.54V-16.47c0-6.405,2.44-9.15,7.015-9.15,3.965,0,5.49,2.44,5.49,7.93V0h8.54V-19.52c0-7.32-2.44-13.115-11.285-13.115a11.017,11.017,0,0,0-9.76,6.1h-.305V-31.72h-8.235ZM1.375,53h7.7V38.15c0-5.775,2.2-8.25,6.325-8.25,3.575,0,4.95,2.2,4.95,7.15V53h7.7V35.4c0-6.6-2.2-11.825-10.175-11.825a9.933,9.933,0,0,0-8.8,5.5H8.8V24.4H1.375Zm29.15-14.3c0,8.36,4.675,15.125,14.3,15.125C56.65,53.825,58.3,43.65,58.3,43.65H50.6a5.527,5.527,0,0,1-5.5,4.4c-4.62,0-6.49-3.3-6.82-7.7H58.52s.055-.99.055-1.65c0-8.36-4.345-15.125-13.75-15.125S30.525,30.34,30.525,38.7Zm14.3-9.35c3.8,0,5.335,2.53,5.83,6.05H38.5C39.16,31.88,41.03,29.35,44.825,29.35Zm42.9-4.95h-7.7V39.25c0,5.775-2.2,8.25-6.325,8.25-3.575,0-4.95-2.2-4.95-7.15V24.4h-7.7V42c0,6.6,2.2,11.825,10.175,11.825a9.933,9.933,0,0,0,8.8-5.5H80.3V53h7.425Zm2.2,0v6.05h8.8V45.3c0,6.6,3.575,7.975,8.8,7.975a14.059,14.059,0,0,0,4.675-.55V46.95a8.633,8.633,0,0,1-2.475.275c-2.475,0-3.3-.825-3.3-3.3V30.45h9.35V24.4ZM117.975,53h7.7V35.95h5.775c7.975,0,10.175-1.925,10.175-8.25V24.4h-7.7v2.475c0,3.575-1.1,3.575-4.4,3.575h-3.85V24.4h-7.7Zm33-19.8c.11-3.08,1.925-4.4,5.225-4.4,3.025,0,4.675,1.32,4.675,3.575,0,3.19-4.51,3.575-9.295,4.785-4.73,1.21-9.13,3.63-9.13,8.965,0,5.28,3.85,7.7,9.075,7.7A9.2,9.2,0,0,0,160.6,47.5h.275V53h7.7V33.475c0-7.425-5.5-9.9-12.375-9.9-6.6,0-12.485,2.31-12.925,9.625Zm9.9,5.39c0,4.235-1.375,10.285-6.6,10.285-2.475,0-4.015-1.375-4.015-3.575,0-2.53,2.09-3.795,4.565-4.4C157.025,40.35,159.61,39.745,160.875,38.59Zm32.175,8.36H179.025V24.4h-7.7V53H193.05ZM25.685,106H34.65l6.435-28.6h-7.7l-3.74,19.69L24.31,77.4H17.325L11.99,97.09,8.25,77.4H.55L6.985,106H15.95l4.84-18.315Zm15.95-14.3c0,8.36,4.675,15.125,14.3,15.125,11.825,0,13.475-10.175,13.475-10.175h-7.7a5.527,5.527,0,0,1-5.5,4.4c-4.62,0-6.49-3.3-6.82-7.7H69.63s.055-.99.055-1.65c0-8.36-4.345-15.125-13.75-15.125S41.635,83.34,41.635,91.7Zm14.3-9.35c3.8,0,5.335,2.53,5.83,6.05H49.61C50.27,84.88,52.14,82.35,55.935,82.35ZM72.16,106H86.735c7.7,0,11.275-2.75,11.275-8.25a6.735,6.735,0,0,0-5.225-6.6v-.275a5.982,5.982,0,0,0,4.4-5.775c0-5.225-3.85-7.7-11.275-7.7H72.16ZM85.91,93.9c2.75,0,4.4,1.1,4.4,3.3s-1.375,3.3-3.85,3.3h-6.6V93.9Zm-6.05-4.95V82.9h6.05c2.475,0,3.575,1.1,3.575,3.025S88.11,88.95,85.36,88.95Zm20.075,7.7c0,3.3,2.2,10.175,13.475,10.175,8.25,0,12.925-4.125,12.925-9.625,0-10.725-18.15-7.15-18.15-12.1,0-1.76,1.65-3.3,4.675-3.3,5.225,0,5.225,3.85,5.225,3.85h7.425c0-2.75-1.65-9.075-12.65-9.075-7.7,0-12.375,4.125-12.375,9.075,0,11,18.15,6.325,18.15,12.375,0,1.65-1.1,3.575-5.225,3.575-6.05,0-6.05-4.95-6.05-4.95ZM136.51,77.4h-7.7V106h7.7Zm-8.25-6.325a4.4,4.4,0,1,0,4.4-4.4A4.413,4.413,0,0,0,128.26,71.075ZM138.71,77.4v6.05h8.8V98.3c0,6.6,3.575,7.975,8.8,7.975a14.059,14.059,0,0,0,4.675-.55V99.95a8.633,8.633,0,0,1-2.475.275c-2.475,0-3.3-.825-3.3-3.3V83.45h9.35V77.4Zm26.4,14.3c0,8.36,4.675,15.125,14.3,15.125,11.825,0,13.475-10.175,13.475-10.175h-7.7a5.527,5.527,0,0,1-5.5,4.4c-4.62,0-6.49-3.3-6.82-7.7h20.24s.055-.99.055-1.65c0-8.36-4.345-15.125-13.75-15.125S165.11,83.34,165.11,91.7Zm14.3-9.35c3.8,0,5.335,2.53,5.83,6.05H173.085C173.745,84.88,175.615,82.35,179.41,82.35Z" transform="translate(31 99)" fill="#1a1a1a"/>
      </g>
    </g>
  </g>
</svg>
